<svg id="Illustration" xmlns="http://www.w3.org/2000/svg" viewBox="0 0 960 315.93">
  <title>02_how_it_works</title>
  <g id="Составная_фигура" data-name="Составная фигура">
    <path d="M842.79,185.64h-144a20,20,0,0,0-20,20V337.57c0,1.75,1.37,5,3.62,5H859.17c2.25,0,3.63-3.22,3.63-5V205.65A20,20,0,0,0,842.79,185.64ZM860.3,337.57a3.73,3.73,0,0,1-1.13,2.47H682.46a3.65,3.65,0,0,1-1.15-2.47V205.65a17.52,17.52,0,0,1,17.5-17.51h144a17.52,17.52,0,0,1,17.51,17.51Z" transform="translate(-19.99 -30.07)" fill="#fff" fill-rule="evenodd"/>
  </g>
  <g id="Составная_фигура_copy" data-name="Составная фигура copy">
    <path d="M299.79,185.64h-144a20,20,0,0,0-20,20V337.57c0,1.75,1.37,5,3.62,5H316.17c2.25,0,3.63-3.22,3.63-5V205.65A20,20,0,0,0,299.79,185.64ZM317.3,337.57a3.73,3.73,0,0,1-1.13,2.47H139.46a3.65,3.65,0,0,1-1.15-2.47V205.65a17.52,17.52,0,0,1,17.5-17.51h144a17.52,17.52,0,0,1,17.51,17.51Z" transform="translate(-19.99 -30.07)" fill="#fff" fill-rule="evenodd"/>
  </g>
  <g id="Составная_фигура-2" data-name="Составная фигура">
    <rect x="700.17" y="113.97" width="46.29" height="39.64" fill="#121214"/>
  </g>
  <g id="Составная_фигура-3" data-name="Составная фигура">
    <path d="M719.06,142.94v41.83h48.48V142.94Zm46.29,39.64h-44.1V145.13h44.1Z" transform="translate(-19.99 -30.07)" fill="#fff" fill-rule="evenodd"/>
  </g>
  <g id="Составная_фигура-4" data-name="Составная фигура">
    <path d="M439.41,290.73H415.6a1.1,1.1,0,1,0,0,2.19h23.81a4.77,4.77,0,0,1,0,9.53H415.6a1.1,1.1,0,1,0,0,2.19h23.81a7,7,0,0,0,0-13.91Z" transform="translate(-19.99 -30.07)" fill="#5b141a" fill-rule="evenodd"/>
  </g>
  <g id="new_vector_shape_done">
    <path d="M779,104V76.5c-5.94-24.67-21.39-39.85-52.5-39.5-3.39,2.53-9.69,2.11-13.5,4a50.1,50.1,0,0,0-25,28c-3.46,9.45-2,24.64-2,37,0,35.13.7,48.27,25,60,5.24,2.53,15.91,6.18,25,4,21.87-5.25,35.78-14.41,42-35C780.5,126.74,779,113.91,779,104Z" transform="translate(-19.99 -30.07)" fill="#121214" fill-rule="evenodd"/>
  </g>
  <g id="Составная_фигура-5" data-name="Составная фигура">
    <path d="M780.31,90.27V83.78A47.73,47.73,0,0,0,732.59,36h0a47.79,47.79,0,0,0-47.72,47.76v44.78A42.17,42.17,0,0,0,727,170.7h5.61a47.75,47.75,0,0,0,47.73-47.78V90.4A.53.53,0,0,0,780.31,90.27Zm-2.19,32.65a45.55,45.55,0,0,1-45.54,45.59H727a40,40,0,0,1-39.91-39.95V83.78A45.61,45.61,0,0,1,732.59,38.2h0a45.55,45.55,0,0,1,45.53,45.58V94.33s0,.08,0,.12Z" transform="translate(-19.99 -30.07)" fill="#fff" fill-rule="evenodd"/>
  </g>
  <g id="Составная_фигура-6" data-name="Составная фигура">
    <path d="M431.86,302.45H408a1.1,1.1,0,0,0,0,2.19h23.82a4.77,4.77,0,0,1,0,9.54H408a1.1,1.1,0,0,0,0,2.19h23.82a7,7,0,0,0,0-13.92Z" transform="translate(-19.99 -30.07)" fill="#5b141a" fill-rule="evenodd"/>
  </g>
  <g id="Составная_фигура-7" data-name="Составная фигура">
    <path d="M431.15,313.94H407.33a1.1,1.1,0,0,0,0,2.19h23.82a4.77,4.77,0,0,1,0,9.53H407.33a1.1,1.1,0,0,0,0,2.19h23.82a7,7,0,0,0,0-13.91Z" transform="translate(-19.99 -30.07)" fill="#5b141a" fill-rule="evenodd"/>
  </g>
  <g id="Составная_фигура-8" data-name="Составная фигура">
    <path d="M428.31,291.83,393,297.9l-68.39.86a23,23,0,0,1-3.91-.33A22.22,22.22,0,0,1,304,285.13L275.84,212.3l-34.47,2.76,40.57,85.06c4.34,13.09,15.55,26.87,31.91,26.87h115.6c-1.31-2-9.66-12.29-12.48-23.45C415.11,296.16,435.93,291.83,428.31,291.83Z" transform="translate(-19.99 -30.07)" fill="#121214" fill-rule="evenodd"/>
  </g>
  <g id="Составная_фигура-9" data-name="Составная фигура">
    <path d="M430.36,326.4c-.19-.29-.52-.75-1-1.35-2.46-3.39-9-12.38-11.37-21.77-.9-3.58,5.91-6.78,9.58-8.5,2.7-1.26,3.71-1.74,3.45-2.91s-1.64-1.14-2.75-1.14l-35.45,6.08-68.29.86a21.46,21.46,0,0,1-3.72-.32,21,21,0,0,1-15.8-12.62l-28.48-73.59-36.87,3,41.23,86.44a46,46,0,0,0,11.71,18.73,30.63,30.63,0,0,0,21.21,8.83H431.48Zm-116.51-.5c-10.24,0-24.47-6.84-30.87-26.12L243,216l32.08-2.57,27.9,72.1a23.34,23.34,0,0,0,21.57,14.31L393,299l32.33-5.53c-4.53,2.17-10.6,5.53-9.39,10.35,2.38,9.42,8.68,18.32,11.41,22.09Z" transform="translate(-19.99 -30.07)" fill="#fff" fill-rule="evenodd"/>
  </g>
  <g id="Составная_фигура-10" data-name="Составная фигура">
    <path d="M759.14,193.13a16.82,16.82,0,0,0-21.49-10.19L533.12,256a16.83,16.83,0,1,0,11.3,31.7l204.53-73A16.84,16.84,0,0,0,759.14,193.13Z" transform="translate(-19.99 -30.07)" fill="#121214" fill-rule="evenodd"/>
  </g>
  <g id="Составная_фигура-11" data-name="Составная фигура">
    <path d="M760.17,192.77a17.9,17.9,0,0,0-22.89-10.86l-204.53,73a17.92,17.92,0,1,0,12,33.76l204.53-73A18,18,0,0,0,760.17,192.77Zm-11.59,20.84-204.53,73A15.73,15.73,0,0,1,533.49,257L738,184a15.71,15.71,0,0,1,20.09,9.53A15.76,15.76,0,0,1,748.58,213.61Z" transform="translate(-19.99 -30.07)" fill="#fff" fill-rule="evenodd"/>
  </g>
  <g id="Составная_фигура-12" data-name="Составная фигура">
    <path d="M710.64,128.51a6,6,0,0,1-5.95-5.95V106.73a1.1,1.1,0,0,0-2.19,0v15.83a8.15,8.15,0,0,0,8.14,8.14,1.1,1.1,0,0,0,0-2.19Z" transform="translate(-19.99 -30.07)" fill="#fff" fill-rule="evenodd"/>
  </g>
  <g id="Составная_фигура-13" data-name="Составная фигура">
    <rect x="369.23" y="233.53" width="48.42" height="10.09" rx="1.36" ry="1.36" fill="#121214"/>
  </g>
  <g id="Составная_фигура-14" data-name="Составная фигура">
    <path d="M436.28,262.5H390.59a2.46,2.46,0,0,0-2.46,2.46v7.37a2.46,2.46,0,0,0,2.46,2.45h45.69a2.46,2.46,0,0,0,2.46-2.45V265A2.46,2.46,0,0,0,436.28,262.5Zm.27,9.83a.27.27,0,0,1-.27.26H390.59a.27.27,0,0,1-.27-.26V265a.27.27,0,0,1,.27-.27h45.69a.27.27,0,0,1,.27.27Z" transform="translate(-19.99 -30.07)" fill="#fff" fill-rule="evenodd"/>
  </g>
  <g id="Составная_фигура-15" data-name="Составная фигура">
    <path d="M392.75,273.69l4.05,51.11a3.1,3.1,0,0,0,3.08,2.85h27.25a3.1,3.1,0,0,0,3.08-2.86l3.91-51.1Z" transform="translate(-19.99 -30.07)" fill="#121214" fill-rule="evenodd"/>
  </g>
  <g id="Составная_фигура-16" data-name="Составная фигура">
    <path d="M391.57,272.59l4.14,52.3a4.21,4.21,0,0,0,4.17,3.85h27.25a4.21,4.21,0,0,0,4.17-3.87l4-52.28Zm37.55,52.11a2,2,0,0,1-2,1.85H399.88a2,2,0,0,1-2-1.84l-3.95-49.93h39Z" transform="translate(-19.99 -30.07)" fill="#fff" fill-rule="evenodd"/>
  </g>
  <g id="Составная_фигура-17" data-name="Составная фигура">
    <path d="M426,253.69l-26.3,3.17a4.54,4.54,0,0,0-4,4.5v2.24h35.35v-5.41A4.53,4.53,0,0,0,426,253.69Z" transform="translate(-19.99 -30.07)" fill="#121214" fill-rule="evenodd"/>
  </g>
  <g id="Составная_фигура-18" data-name="Составная фигура">
    <path d="M430.31,254a5.6,5.6,0,0,0-4.4-1.37l-26.3,3.17a5.63,5.63,0,0,0-4.95,5.58v3.33h37.55v-6.5A5.62,5.62,0,0,0,430.31,254ZM430,262.5H396.85v-1.14a3.44,3.44,0,0,1,3-3.41l26.29-3.17a3.44,3.44,0,0,1,3.85,3.41Z" transform="translate(-19.99 -30.07)" fill="#fff" fill-rule="evenodd"/>
  </g>
  <g id="Составная_фигура-19" data-name="Составная фигура">
    <path d="M749.41,36.85H674.19V48.46a30,30,0,0,0,30,30h12.23a15,15,0,0,0,13.8-9.16,9.26,9.26,0,0,1,8.49-5.82h.67a16.93,16.93,0,0,1,16.88,16.93v17a18.9,18.9,0,0,0,18.9,18.91H790V77.45A40.58,40.58,0,0,0,749.41,36.85Z" transform="translate(-19.99 -30.07)" fill="#121214" fill-rule="evenodd"/>
  </g>
  <g id="Составная_фигура-20" data-name="Составная фигура">
    <path d="M749.41,35.75H673.09V47.83A31.76,31.76,0,0,0,704.8,79.56h11.59a16,16,0,0,0,14.81-9.83,8.19,8.19,0,0,1,7.46-5.15h.69a15.86,15.86,0,0,1,15.79,15.84v17a20,20,0,0,0,20,20h15.94v-40A41.73,41.73,0,0,0,749.41,35.75Zm39.47,79.5H775.13a17.82,17.82,0,0,1-17.8-17.82v-17a18,18,0,0,0-18-18h-.7a10.37,10.37,0,0,0-9.47,6.49,13.87,13.87,0,0,1-12.8,8.49H704.8a29.56,29.56,0,0,1-29.52-29.54V37.94h74.13a39.53,39.53,0,0,1,39.47,39.51Z" transform="translate(-19.99 -30.07)" fill="#fff" fill-rule="evenodd"/>
  </g>
  <g id="new_vector_shape_done-2" data-name="new_vector_shape_done">
    <path d="M779,104.5c-1.4.93-3.45.62-5,1.5-3,1.7-3.51,5.21-5.5,8,.31,5.65,4.11,9.19,6.5,13,11.69,2.84,11.73-1.92,17-8C792.26,109.66,787.65,104.85,779,104.5Z" transform="translate(-19.99 -30.07)" fill="#121214" fill-rule="evenodd"/>
  </g>
  <g id="Составная_фигура-21" data-name="Составная фигура">
    <path d="M780.16,103.59a12.76,12.76,0,0,0-12.75,12.75,1.1,1.1,0,1,0,2.19,0,10.55,10.55,0,1,1,5.33,9.19,1.1,1.1,0,0,0-1.09,1.9,12.75,12.75,0,1,0,6.32-23.84Z" transform="translate(-19.99 -30.07)" fill="#fff" fill-rule="evenodd"/>
  </g>
  <g id="Составная_фигура-22" data-name="Составная фигура">
    <path d="M780.16,110.51a1.09,1.09,0,1,0,0,2.18,3.65,3.65,0,0,1,3.64,3.65,1.1,1.1,0,1,0,2.19,0A5.84,5.84,0,0,0,780.16,110.51Z" transform="translate(-19.99 -30.07)" fill="#fff" fill-rule="evenodd"/>
  </g>
  <g id="Составная_фигура-23" data-name="Составная фигура">
    <path d="M719.88,140.26a1.08,1.08,0,0,0-1.53.19,9.75,9.75,0,0,1-15.41,0,1.09,1.09,0,0,0-1.73,1.34,11.94,11.94,0,0,0,18.86,0A1.08,1.08,0,0,0,719.88,140.26Z" transform="translate(-19.99 -30.07)" fill="#fff" fill-rule="evenodd"/>
  </g>
  <g id="Составная_фигура-24" data-name="Составная фигура">
    <path d="M275.16,35.49h0c-27.29,0-47.34,11.85-54.6,38L207,145.58c-8.57,36.1,24,67,61,67l20.64-10.49a64.36,64.36,0,0,0,35.15-57.32l0-58.29a7.54,7.54,0,0,0,.64-3.24A49.44,49.44,0,0,0,275.16,35.49Z" transform="translate(-19.99 -30.07)" fill="#121214" fill-rule="evenodd"/>
  </g>
  <g id="Составная_фигура-25" data-name="Составная фигура">
    <path d="M275.16,34.4c-29.36,0-48.61,13.41-55.68,38.89l-13.51,72c-3.67,15.45-.1,31,10,43.86,12.13,15.35,31.6,24.51,52.08,24.51h.27l20.86-10.62A65.13,65.13,0,0,0,325,144.79l0-58.07a8.59,8.59,0,0,0,.64-3.49A50.3,50.3,0,0,0,275.16,34.4ZM322.9,86.07l-.09.21,0,58.51a63,63,0,0,1-34.55,56.34l-20.4,10.38c-19.72-.08-38.44-8.91-50.11-23.67-9.71-12.3-13.13-27.22-9.61-42.06l13.5-72c6.76-24.34,25.28-37.21,53.55-37.21a48.14,48.14,0,0,1,48.3,46.72A6.42,6.42,0,0,1,322.9,86.07Z" transform="translate(-19.99 -30.07)" fill="#fff" fill-rule="evenodd"/>
  </g>
  <g id="new_vector_shape_done-3" data-name="new_vector_shape_done">
    <path d="M809,320.5c-2.65-10-3.43-20.22-6-29.5-1.79-6.47-1.22-12-3-18.5-5.41-19.71-7.74-41.67-13-61.5-1.23-4.63-.67-8.4-2-13-3-10.28-11.6-21.79-24-22.5-1.31.83-3.56.06-5.5.5-5.83,1.33-13.67,1.65-19.5,3-3.12.72-6.25-.37-8.5,1-6.7,0-7.24,4.21-9.5,8.5-2.88,5.47-5.08,12.42-7,19-.33,3.17-.67,6.33-1,9.5-3.73,15.61.68,34,4,46.5,3.21,12.08,3.8,24.59,7,36s2.35,26.93,7.5,36.5c5.31.21,10,1.84,14.5,3,5.82,1.5,11.74,1.69,17,3s10.46,1,15,2h6.5c11.39,2.65,23.35.75,30.5-4C812.66,333.36,810.58,326.47,809,320.5Z" transform="translate(-19.99 -30.07)" fill="#121214" fill-rule="evenodd"/>
  </g>
  <g id="Составная_фигура-26" data-name="Составная фигура">
    <path d="M813.41,335.7,786.1,199.63a32.31,32.31,0,0,0-23-25.19,1.09,1.09,0,1,0-.61,2.1A30.19,30.19,0,0,1,784,200.05l27.31,136.08a4,4,0,0,1-1.14,4c-3.14,3.05-13.5,5.72-45.07,1.19-17-2.43-33-6-36.5-6.79l-17.84-92.3c-3.88-28.78,7.64-57.72,13.74-61.07a1.1,1.1,0,0,0,.43-1.49,1.09,1.09,0,0,0-1.48-.43c-8.2,4.51-18.54,36-14.85,63.35l18,93.06.14.69.69.17c.18,0,18.18,4.22,37.37,7a204,204,0,0,0,27.94,2.41c9.73,0,16.08-1.4,19-4.19A6.16,6.16,0,0,0,813.41,335.7Z" transform="translate(-19.99 -30.07)" fill="#fff" fill-rule="evenodd"/>
  </g>
  <g id="Составная_фигура-27" data-name="Составная фигура">
    <rect x="538.25" y="233.53" width="48.42" height="10.09" rx="1.36" ry="1.36" fill="#121214"/>
  </g>
  <g id="Составная_фигура-28" data-name="Составная фигура">
    <path d="M605.3,262.5H559.6a2.46,2.46,0,0,0-2.45,2.46v7.37a2.45,2.45,0,0,0,2.45,2.45h45.7a2.46,2.46,0,0,0,2.46-2.45V265A2.47,2.47,0,0,0,605.3,262.5Zm.27,9.83a.27.27,0,0,1-.27.26H559.6a.26.26,0,0,1-.26-.26V265a.27.27,0,0,1,.26-.27h45.7a.27.27,0,0,1,.27.27Z" transform="translate(-19.99 -30.07)" fill="#fff" fill-rule="evenodd"/>
  </g>
  <g id="Составная_фигура-29" data-name="Составная фигура">
    <path d="M561.77,273.69l3.91,51.1a3.1,3.1,0,0,0,3.08,2.86H596a3.1,3.1,0,0,0,3.08-2.85l4-51.11Z" transform="translate(-19.99 -30.07)" fill="#121214" fill-rule="evenodd"/>
  </g>
  <g id="Составная_фигура-30" data-name="Составная фигура">
    <path d="M596.14,256.86l-26.29-3.17a4.54,4.54,0,0,0-5.08,4.5v5.41h35.36v-2.24A4.54,4.54,0,0,0,596.14,256.86Z" transform="translate(-19.99 -30.07)" fill="#121214" fill-rule="evenodd"/>
  </g>
  <g id="Составная_фигура-31" data-name="Составная фигура">
    <path d="M596.27,255.78,570,252.61a5.63,5.63,0,0,0-6.3,5.58v6.5h37.54v-3.33A5.62,5.62,0,0,0,596.27,255.78ZM599,262.5H565.87v-4.31a3.44,3.44,0,0,1,3.84-3.41L596,258a3.44,3.44,0,0,1,3,3.41Z" transform="translate(-19.99 -30.07)" fill="#fff" fill-rule="evenodd"/>
  </g>
  <g id="Составная_фигура-32" data-name="Составная фигура">
    <path d="M560.59,272.59l4,52.28a4.2,4.2,0,0,0,4.17,3.87H596a4.21,4.21,0,0,0,4.17-3.86l4.14-52.29ZM598,324.71a2,2,0,0,1-2,1.84H568.76a2,2,0,0,1-2-1.84L563,274.78h39Z" transform="translate(-19.99 -30.07)" fill="#fff" fill-rule="evenodd"/>
  </g>
  <g id="Составная_фигура-33" data-name="Составная фигура">
    <path d="M579.5,291.83c-7.61,0,13.21,4.33,11.34,11.71C588,314.7,567.67,327,578.37,327h45V292Z" transform="translate(-19.99 -30.07)" fill="#121214" fill-rule="evenodd"/>
  </g>
  <g id="Составная_фигура-34" data-name="Составная фигура">
    <path d="M579.5,290.73c-1.11,0-2.49,0-2.74,1.14s.75,1.65,3.45,2.91c3.66,1.72,10.47,4.92,9.57,8.5-1.22,4.81-6,10-9.93,14.2s-6.38,6.89-5.48,9c.64,1.47,2.58,1.64,4,1.65h46.11V290.88Zm42.79,35.17H578.37c-1.65,0-2-.32-2-.32-.21-.9,3-4.33,5.08-6.61,4-4.37,9.09-9.8,10.44-15.16s-5.94-8.74-10.5-10.88l40.89.13Z" transform="translate(-19.99 -30.07)" fill="#fff" fill-rule="evenodd"/>
  </g>
  <g id="new_vector_shape_done-4" data-name="new_vector_shape_done">
    <path d="M599,292H573c-5.14,6.41-4.12,7,1.5,12,7.31,0,18.25,1.59,24.5-.5.32-.86.1-.49.5-1C599.54,299.12,599.87,294.56,599,292Z" transform="translate(-19.99 -30.07)" fill="#121214"/>
  </g>
  <g id="Составная_фигура-35" data-name="Составная фигура">
    <path d="M599.27,302.45H575.45a4.77,4.77,0,0,1,0-9.53h23.82a1.1,1.1,0,0,0,0-2.19H575.45a7,7,0,0,0,0,13.91h23.82a1.1,1.1,0,0,0,0-2.19Z" transform="translate(-19.99 -30.07)" fill="#fff" fill-rule="evenodd"/>
  </g>
  <g id="Составная_фигура-36" data-name="Составная фигура">
    <path d="M720.74,186.39c.93-7.35-5.17,7.81-6.32,10.68-4.37,10.91-8,24.2-5.15,42.37s5.64,30.21,5.64,30.21l10.58-30.6S718.85,201.46,720.74,186.39Z" transform="translate(-19.99 -30.07)" fill="#00ffc4" fill-rule="evenodd"/>
  </g>
  <g id="Составная_фигура-37" data-name="Составная фигура">
    <path d="M726.57,238.86c-.07-.37-6.6-37.6-4.74-52.33.14-1.14.36-2.85-.93-3.18-1.06-.28-2-.51-7.5,13.31h0c-4,10-8.18,23.87-5.21,43,2.81,18,5.63,30.16,5.65,30.28l.86,3.7,11.92-34.45Zm-11.42,26.75c-1-4.91-2.92-14.31-4.8-26.33-2.87-18.45,1-31.49,5.08-41.81h0c1.81-4.5,3.13-7.48,4.05-9.37-1.19,15.42,4.26,47.27,4.89,50.86Z" transform="translate(-19.99 -30.07)" fill="#00ffc4" fill-rule="evenodd"/>
  </g>
  <g id="new_vector_shape_done-5" data-name="new_vector_shape_done">
    <path d="M598.5,303.5c-2.94-1.44-18.08.39-23-.5-3.08,2.41-3.27,1.83-6,5,.13,5.83,2.42,5.23,6,7.5,6.94.06,19,1.62,24-1C599.59,311,600.17,305.37,598.5,303.5Z" transform="translate(-19.99 -30.07)" fill="#121214" fill-rule="evenodd"/>
  </g>
  <g id="Составная_фигура-38" data-name="Составная фигура">
    <path d="M599.27,314.18H575.45a4.77,4.77,0,0,1,0-9.54h23.82a1.1,1.1,0,0,0,0-2.19H575.45a7,7,0,0,0,0,13.92h23.82a1.1,1.1,0,0,0,0-2.19Z" transform="translate(-19.99 -30.07)" fill="#fff" fill-rule="evenodd"/>
  </g>
  <g id="new_vector_shape_done-6" data-name="new_vector_shape_done">
    <path d="M599,315c-9.68-.07-22.58-1.25-28.5,2.5a5.86,5.86,0,0,1-1,2.5c.17,4.19,1.84,4.58,3.5,7,7.27,0,20.55,1.48,26.5-.5A110,110,0,0,0,599,315Z" transform="translate(-19.99 -30.07)" fill="#121214" fill-rule="evenodd"/>
  </g>
  <g id="Составная_фигура-39" data-name="Составная фигура">
    <path d="M599.27,325.9H575.45a4.77,4.77,0,0,1,0-9.53h23.82a1.1,1.1,0,0,0,0-2.19H575.45a7,7,0,0,0,0,13.91h23.82a1.1,1.1,0,0,0,0-2.19Z" transform="translate(-19.99 -30.07)" fill="#fff" fill-rule="evenodd"/>
  </g>
  <g id="new_vector_shape_done-7" data-name="new_vector_shape_done">
    <path d="M745,213c-3.65-.79-7.5.65-10-1-5.52.25-9.86,17.47-12,22.5-3.37,7.91-7.19,16.79-11,24.5-4.32,8.74-6,18.64-11.5,26-3.06,4.06-8.74,4-12.5,7H643.5c-6.22,0-15.26-1.23-20.5.5V327h55c10.29,0,21.94.86,29.5-2,19.37-7.34,22.59-21.95,30.5-40.5,5.52-12.94,10.31-26.2,16-39.5,3.06-7.15,5.77-14.48,9-22,1.06-2.46,2.81-4.61,3-8A117.49,117.49,0,0,1,745,213Z" transform="translate(-19.99 -30.07)" fill="#121214" fill-rule="evenodd"/>
  </g>
  <g id="Составная_фигура-40" data-name="Составная фигура">
    <path d="M766.86,214a1.1,1.1,0,0,0-1.43.6L730.18,301.5A38.94,38.94,0,0,1,694,325.9H624.48V293.07l59.24.19a24,24,0,0,0,4.11-.35,23.2,23.2,0,0,0,17.45-14L733,212.72a1.09,1.09,0,1,0-2-.84l-27.7,66.23a21,21,0,0,1-15.81,12.64,21.66,21.66,0,0,1-3.73.32l-61.43-.2v37.22H694a41.13,41.13,0,0,0,38.25-25.76l35.25-86.86A1.1,1.1,0,0,0,766.86,214Z" transform="translate(-19.99 -30.07)" fill="#fff" fill-rule="evenodd"/>
  </g>
  <g id="Составная_фигура-41" data-name="Составная фигура">
    <polygon points="700.17 146.55 698.86 168.72 745.63 146.38 745.63 136.78 700.17 146.55" fill="#121214" fill-rule="evenodd"/>
  </g>
  <g id="Составная_фигура-42" data-name="Составная фигура">
    <path d="M719.11,175.73l-1.46,24.84,49.06-23.44V165.49Zm45.41,0L720.05,197l1.15-19.49,43.32-9.31Z" transform="translate(-19.99 -30.07)" fill="#fff" fill-rule="evenodd"/>
  </g>
  <g id="Составная_фигура-43" data-name="Составная фигура">
    <path d="M715.31,175.53l-2,24.71,2.15.34,6.07-25.05Zm2,2.18h1.44l-2.16,8.9Z" transform="translate(-19.99 -30.07)" fill="#fff" fill-rule="evenodd"/>
  </g>
  <g id="Составная_фигура-44" data-name="Составная фигура">
    <rect x="603.39" y="258.75" width="19.35" height="38.18" rx="4.08" ry="4.08" fill="#121214"/>
  </g>
  <g id="Составная_фигура-45" data-name="Составная фигура">
    <path d="M638.65,287.72H627.47a5.18,5.18,0,0,0-5.18,5.18v30a5.18,5.18,0,0,0,5.18,5.18h11.18a5.18,5.18,0,0,0,5.17-5.18v-30A5.18,5.18,0,0,0,638.65,287.72Zm3,35.19a3,3,0,0,1-3,3H627.47a3,3,0,0,1-3-3v-30a3,3,0,0,1,3-3h11.18a3,3,0,0,1,3,3Z" transform="translate(-19.99 -30.07)" fill="#fff" fill-rule="evenodd"/>
  </g>
  <g id="Составная_фигура-46" data-name="Составная фигура">
    <path d="M633.06,294.72a3.13,3.13,0,1,0,3.12,3.13A3.12,3.12,0,0,0,633.06,294.72Z" transform="translate(-19.99 -30.07)" fill="#00ffc4" fill-rule="evenodd"/>
  </g>
  <g id="Составная_фигура-47" data-name="Составная фигура">
    <rect x="223.38" y="113.97" width="39.07" height="39.64" fill="#121214"/>
  </g>
  <g id="Составная_фигура-48" data-name="Составная фигура">
    <path d="M242.28,142.94v41.83h41.26V142.94Zm39.07,39.64H244.46V145.13h36.89Z" transform="translate(-19.99 -30.07)" fill="#fff" fill-rule="evenodd"/>
  </g>
  <g id="new_vector_shape_done-8" data-name="new_vector_shape_done">
    <path d="M296,209.5a63.79,63.79,0,0,1-9-18c-1.28-4.21-1.25-8.17-3-11.5l-40-4.5c-1.72,1.33-4,1.39-6,2.5-4.54,2.47-9.32,7.63-12,12-4.89,8-4.32,19.9-7,30-4.82,18.16-6.94,38.51-12,56.5-1.36,4.85-.65,8.65-2,13.5-2.59,9.34-3.35,19.55-6,29.5-.71,2.65-3.34,9.52-2,12,.89,7.54,10.33,5.9,17.5,7.5,11.93,2.66,36.71-.47,48-3,5-1.13,13.35-.16,17-2.5.86-.32.49-.1,1-.5,2.22-3.11,1.41-8.26,2.5-12.5,2.21-8.61,3.72-18.91,6-27.5.73-2.74.62-10.83,2-12.5l8-2.5a43.84,43.84,0,0,0,17-16.5,61.46,61.46,0,0,0,4-9.5C328,228.18,304.31,221.09,296,209.5Z" transform="translate(-19.99 -30.07)" fill="#121214" fill-rule="evenodd"/>
  </g>
  <g id="Составная_фигура-49" data-name="Составная фигура">
    <path d="M312.85,223.52c-21.13-15-24.27-30.15-26-38.28-.68-3.29-1.09-5.27-2.49-6a1.1,1.1,0,1,0-1.06,1.92c.52.28,1,2.55,1.4,4.56,1.63,7.83,5,24.12,26.84,39.62,6.64,4.72,9.5,12.5,8,21.9-2.16,13.85-13.1,27.25-25.46,31.18l-4,1.28-10.29,52.82c-7.53,1.33-70.23,12-80.78,1.28a4.37,4.37,0,0,1-1.2-4.19l26-129.53a30.16,30.16,0,0,1,21.46-23.5,1.09,1.09,0,1,0-.6-2.1,32.32,32.32,0,0,0-23,25.18l-26,129.52a6.49,6.49,0,0,0,1.78,6.15c3.51,3.56,12,5.35,25.32,5.35q9.1,0,21.19-1.11c19-1.75,36.78-5,36.95-5l.74-.13,10.33-53,2.79-.89c13.31-4.23,24.65-18.08,27-32.93C323.38,237.27,320.21,228.74,312.85,223.52Z" transform="translate(-19.99 -30.07)" fill="#fff" fill-rule="evenodd"/>
  </g>
  <g id="Составная_фигура-50" data-name="Составная фигура">
    <polygon points="267.67 146.55 222.21 136.78 222.21 146.38 268.98 168.72 267.67 146.55" fill="#121214" fill-rule="evenodd"/>
  </g>
  <g id="Составная_фигура-51" data-name="Составная фигура">
    <path d="M288.7,175.73l-47.6-10.24v11.64l49.07,23.44Zm-45.41,0V168.2l43.33,9.31L287.77,197Z" transform="translate(-19.99 -30.07)" fill="#fff" fill-rule="evenodd"/>
  </g>
  <g id="Составная_фигура-52" data-name="Составная фигура">
    <polygon points="273.66 147.86 267.67 146.55 268.98 166.15 274.97 170.26 273.66 147.86" fill="#121214" fill-rule="evenodd"/>
  </g>
  <g id="Составная_фигура-53" data-name="Составная фигура">
    <path d="M294.7,177l-8.23-1.79,1.44,21.57,8.27,5.68ZM290,195.61,288.85,178l3.76.81,1.13,19.35Z" transform="translate(-19.99 -30.07)" fill="#fff" fill-rule="evenodd"/>
  </g>
  <g id="Составная_фигура-54" data-name="Составная фигура">
    <path d="M430.52,276.27a1.73,1.73,0,1,0,1.63,1.81A1.72,1.72,0,0,0,430.52,276.27Z" transform="translate(-19.99 -30.07)" fill="#2b2b2b" fill-rule="evenodd"/>
  </g>
  <g id="Составная_фигура-55" data-name="Составная фигура">
    <path d="M556,282s-2.4-6.06-5-12.57c-3-7.55-6.21-15.71-6.21-15.71-.92-2.33-4-3.32-6.77-2.2l-6.74,2.67c-2.83,1.12-4.37,3.91-3.44,6.25L533,273l6.05,15.76c.92,2.33,4,3.32,6.78,2.2l6.74-2.66C555.42,287.14,557,284.34,556,282Z" transform="translate(-19.99 -30.07)" fill="#121214" fill-rule="evenodd"/>
  </g>
  <g id="Составная_фигура-56" data-name="Составная фигура">
    <path d="M557.05,281.61l-11.17-28.28a5.23,5.23,0,0,0-3.35-3,7.19,7.19,0,0,0-4.85.21l-6.74,2.67c-3.37,1.34-5.19,4.78-4.05,7.68L532,273.35l6,15.77a5.24,5.24,0,0,0,3.36,3,6.84,6.84,0,0,0,2.07.32,7.5,7.5,0,0,0,2.77-.54l6.74-2.67C556.38,287.93,558.2,284.5,557.05,281.61Zm-4.85,5.63-6.74,2.67a5.1,5.1,0,0,1-3.37.17,3.1,3.1,0,0,1-2-1.75L534,272.54,528.92,260c-.7-1.77.57-3.93,2.83-4.82l6.74-2.67a5.27,5.27,0,0,1,2-.39,4.36,4.36,0,0,1,1.4.22,3.11,3.11,0,0,1,2,1.76L555,282.41C555.72,284.18,554.45,286.34,552.2,287.24Z" transform="translate(-19.99 -30.07)" fill="#fff" fill-rule="evenodd"/>
  </g>
  <g id="Составная_фигура-57" data-name="Составная фигура">
    <path d="M441.16,291.38h-8.37a3.8,3.8,0,0,0-3.8,3.8v4.13a3.8,3.8,0,0,0,3.8,3.8h8.37a2.55,2.55,0,0,0,2.55-2.55v-6.63A2.55,2.55,0,0,0,441.16,291.38Z" transform="translate(-19.99 -30.07)" fill="#121214" fill-rule="evenodd"/>
  </g>
  <g id="Составная_фигура-58" data-name="Составная фигура">
    <path d="M441.16,290.29h-8.37a4.9,4.9,0,0,0-4.89,4.89v4.13a4.9,4.9,0,0,0,4.89,4.89h8.37a3.65,3.65,0,0,0,3.65-3.64v-6.63A3.65,3.65,0,0,0,441.16,290.29Zm1.46,10.27a1.45,1.45,0,0,1-1.46,1.45h-8.37a2.7,2.7,0,0,1-2.7-2.7v-4.13a2.7,2.7,0,0,1,2.7-2.7h8.37a1.45,1.45,0,0,1,1.46,1.45Z" transform="translate(-19.99 -30.07)" fill="#fff" fill-rule="evenodd"/>
  </g>
  <g id="Составная_фигура-59" data-name="Составная фигура">
    <path d="M440.73,303h-7.94a3.8,3.8,0,0,0-3.8,3.8v4.12a3.8,3.8,0,0,0,3.8,3.8h7.94a3,3,0,0,0,3-3V306A3,3,0,0,0,440.73,303Z" transform="translate(-19.99 -30.07)" fill="#121214" fill-rule="evenodd"/>
  </g>
  <g id="Составная_фигура-60" data-name="Составная фигура">
    <path d="M440.73,301.91h-7.94a4.91,4.91,0,0,0-4.89,4.9v4.12a4.9,4.9,0,0,0,4.89,4.89h7.94a4.08,4.08,0,0,0,4.08-4.07V306A4.08,4.08,0,0,0,440.73,301.91Zm1.89,9.84a1.89,1.89,0,0,1-1.89,1.89h-7.94a2.71,2.71,0,0,1-2.7-2.71v-4.12a2.7,2.7,0,0,1,2.7-2.71h7.94a1.89,1.89,0,0,1,1.89,1.89Z" transform="translate(-19.99 -30.07)" fill="#fff" fill-rule="evenodd"/>
  </g>
  <g id="Составная_фигура-61" data-name="Составная фигура">
    <path d="M436.56,315h-8a3.8,3.8,0,0,0-3.8,3.8V323a3.8,3.8,0,0,0,3.8,3.8h8a3,3,0,0,0,3-3V318A3,3,0,0,0,436.56,315Z" transform="translate(-19.99 -30.07)" fill="#121214" fill-rule="evenodd"/>
  </g>
  <g id="Составная_фигура-62" data-name="Составная фигура">
    <path d="M436.56,313.94h-8a4.9,4.9,0,0,0-4.9,4.89V323a4.91,4.91,0,0,0,4.9,4.9h8a4.06,4.06,0,0,0,4.05-4.05V318A4.06,4.06,0,0,0,436.56,313.94Zm1.86,9.86a1.86,1.86,0,0,1-1.86,1.86h-8a2.71,2.71,0,0,1-2.71-2.71v-4.12a2.7,2.7,0,0,1,2.71-2.7h8a1.86,1.86,0,0,1,1.86,1.86Z" transform="translate(-19.99 -30.07)" fill="#fff" fill-rule="evenodd"/>
  </g>
  <g id="Составная_фигура-63" data-name="Составная фигура">
    <path d="M537.78,257.35a3.13,3.13,0,1,0,3.12,3.13A3.12,3.12,0,0,0,537.78,257.35Z" transform="translate(-19.99 -30.07)" fill="#00ffc4" fill-rule="evenodd"/>
  </g>
  <g id="new_vector_shape_done-9" data-name="new_vector_shape_done">
    <path d="M527.5,260H525c-1.91,1.77-4.88,1.89-7.5,3-6.62,2.81-13.32,5.2-20.5,8a278.58,278.58,0,0,0-31.5,15c-4.66,2.53-9.9,6.68-15.5,8,1.28,3.49,7.34,4.78,10.5,6.5,5.62,3.06,11.81,6,17.5,9.5,3.29,2,6.85,5,11,6,2.35.85,11.39-5.59,14-7,5.78-3.14,11.53-6.06,17-9,2.09-1.12,4.16-1.16,6-2.5l2.5-3.5c3.55-2.18,8-3.12,11.5-5C536.79,279.17,530,270.21,527.5,260Z" transform="translate(-19.99 -30.07)" fill="#121214" fill-rule="evenodd"/>
  </g>
  <g id="Составная_фигура-64" data-name="Составная фигура">
    <path d="M527.69,258.09l-12.3,5a1.1,1.1,0,0,0-.61,1.42,1.11,1.11,0,0,0,1.43.61l10.31-4.16,12,27.65-10.73,4.77-.17.22a31.89,31.89,0,0,1-2.53,2.92l-35.61,18.84-37.76-20.6,37.72-19.14a1.09,1.09,0,1,0-1-1.95l-41.43,21,42.44,23.15,36.81-19.46.15-.08.11-.12a34.94,34.94,0,0,0,2.66-3l12.2-5.42Z" transform="translate(-19.99 -30.07)" fill="#fff" fill-rule="evenodd"/>
  </g>
  <g id="new_vector_shape_done-10" data-name="new_vector_shape_done">
    <path d="M526.5,293c-2.35-3.53-7.88-4.2-12-6-8.72-3.8-18-8.53-26.5-12.5a25.43,25.43,0,0,1,0-9c-5.22-2.17-16.55-4.48-23-4.5-1.42,1.82-4.05,2.24-5.5,4-4.27.34-10.49-.14-13-3-1,.2-1,.12-1.5.5-4,5-4.69,21-9,25,1.2,4.38,9,3.78,12,6.5,2.32,2.09,3.89,5.14,6.5,7,8.16,5.81,19.26,7.92,28.5,12.5,3.12,1.54,10.65,7,14.5,4l2-2V312c-1.33-1.24-2.58-2.28-4-3.5-.74-.34,1.79-2.5,2.5-3,3.54-2.48,10.1-7.8,14-9,.64-.65,7.75,2.49,9,3.5a10.3,10.3,0,0,0,5.5-1.5C527.3,296.63,527.92,294.72,526.5,293Z" transform="translate(-19.99 -30.07)" fill="#121214" fill-rule="evenodd"/>
  </g>
  <g id="Составная_фигура-65" data-name="Составная фигура">
    <path d="M528.24,293.61a5.75,5.75,0,0,0-3.19-3.53l-31.41-13.63-3.9-2.2a2.65,2.65,0,0,1-1.26-3.11l.37-7-1-.18c-4.28-.78-11.31-2.08-11.91-2.26h0c-.65-.22-2.62-.59-10-1.89l-.41-.07-6,3.65a6.43,6.43,0,0,1-5.55.58l-9.83-3.5-9,27.63-.52,1.34,12.17,5.32a34.7,34.7,0,0,0,13.37,10.28l28,12.17,4.18,1.78a5.87,5.87,0,0,0,2.38.49,5.79,5.79,0,0,0,5.26-3.2,6.2,6.2,0,0,0,.19-4.82,5.47,5.47,0,0,0-2.94-3.13l-2.44-1.09a1.09,1.09,0,0,0-.89,2l2.45,1.1a3.31,3.31,0,0,1,1.77,1.91,4,4,0,0,1-.12,3.1A3.7,3.7,0,0,1,493.3,317l-32.13-13.94a32.54,32.54,0,0,1-12.68-9.84l-.17-.22-10.79-4.72,8.12-25,7.72,2.74a8.62,8.62,0,0,0,7.42-.77l5.25-3.22c3.45.61,8.69,1.55,9.22,1.71v0c.68.23,2.87.66,11.3,2.2l-.22,4.67a4.82,4.82,0,0,0,2.34,5.53l3.92,2.22,31.57,13.71a3.55,3.55,0,0,1,2,2.18,3.51,3.51,0,0,1-.36,2.94c-.94,1.56-3.71,1.89-5.48,1.12l-7.81-3.27a1.09,1.09,0,0,0-1.43.59,1.08,1.08,0,0,0,.58,1.43l7.8,3.26c2.68,1.17,6.62.64,8.21-2A5.78,5.78,0,0,0,528.24,293.61Z" transform="translate(-19.99 -30.07)" fill="#fff" fill-rule="evenodd"/>
  </g>
  <g id="new_vector_shape_done-11" data-name="new_vector_shape_done">
    <path d="M487,257c-3.86,2.4-11.69-.87-16.5.51-2.77.8-2.93,2.63-4.5,4.59.13,3,.93,3.76,2,5.6,4.4,1.07,14.34-.71,18,1,2.55,1.21,2,3.82,3.5,6.12,1.78.77,4.21-1.36,6-2,6-2.28,15.42-4,20-7.64l.5-.51C507.81,260.54,499.76,256.8,487,257Z" transform="translate(-19.99 -30.07)" fill="#121214" fill-rule="evenodd"/>
  </g>
  <g id="Составная_фигура-66" data-name="Составная фигура">
    <path d="M516.48,263.38l-6-3A41.06,41.06,0,0,0,493,255.71l-4.43-.16-17.94.63a6.36,6.36,0,0,0-6.12,6.82,6.5,6.5,0,0,0,6.69,5.9l10.38-.37a6.87,6.87,0,0,1,5,1.92,2.61,2.61,0,0,1,.8,2.25v.15a5.17,5.17,0,0,0,.57,2.36,1.08,1.08,0,0,0,.94.53,1.15,1.15,0,0,0,.56-.15,1.1,1.1,0,0,0,.37-1.51,3,3,0,0,1-.25-1.19,4.77,4.77,0,0,0-1.46-4,9.18,9.18,0,0,0-6.6-2.53l-10.38.37a4.26,4.26,0,0,1-4.43-3.87,4.17,4.17,0,0,1,1.06-3.09,4.12,4.12,0,0,1,2.95-1.38l17.87-.64,4.35.16a38.91,38.91,0,0,1,16.63,4.45l6,3a1.1,1.1,0,0,0,1-2Z" transform="translate(-19.99 -30.07)" fill="#fff" fill-rule="evenodd"/>
  </g>
  <g id="Составная_фигура-67" data-name="Составная фигура">
    <path d="M474.79,300.08l-1-1.86a4.92,4.92,0,0,0-6.71-1.88l-9.59,5.39a4.93,4.93,0,0,0-1.89,6.71l1,1.86a4.94,4.94,0,0,0,6.72,1.89l9.59-5.39A4.93,4.93,0,0,0,474.79,300.08Z" transform="translate(-19.99 -30.07)" fill="#121214" fill-rule="evenodd"/>
  </g>
  <g id="Составная_фигура-68" data-name="Составная фигура">
    <path d="M475.75,299.55l-1-1.86a6,6,0,0,0-8.21-2.31l-9.59,5.39a6,6,0,0,0-2.3,8.21l1,1.86a6,6,0,0,0,3.62,2.85,6.18,6.18,0,0,0,1.64.23,5.91,5.91,0,0,0,2.94-.78l9.59-5.39A6,6,0,0,0,475.75,299.55Zm-3.38,6.3-9.59,5.39a3.85,3.85,0,0,1-5.22-1.47l-1-1.86a3.85,3.85,0,0,1,1.46-5.23l9.59-5.39a3.86,3.86,0,0,1,2.92-.35,3.8,3.8,0,0,1,2.31,1.82l1,1.86A3.84,3.84,0,0,1,472.37,305.85Z" transform="translate(-19.99 -30.07)" fill="#fff" fill-rule="evenodd"/>
  </g>
  <g id="new_vector_shape_done-12" data-name="new_vector_shape_done">
    <path d="M513.5,286c-.91,3.34-2.94,8.39-5,11,.74,1.5,14.57,8.07,18,7,2.24-.7,2.92-3.12,4.5-4.5C530.93,290.7,519.38,289,513.5,286Z" transform="translate(-19.99 -30.07)" fill="#121214" fill-rule="evenodd"/>
  </g>
  <g id="Составная_фигура-69" data-name="Составная фигура">
    <path d="M527.43,291.28l-13.51-6a1.08,1.08,0,0,0-1.44.55,1.1,1.1,0,0,0,.55,1.45l13.53,6a4.92,4.92,0,0,1,2.63,6.42l-.11.26a4.9,4.9,0,0,1-6.41,2.64l-13.88-5.81a1.09,1.09,0,0,0-1.43.59,1.08,1.08,0,0,0,.58,1.43l13.89,5.81a7.19,7.19,0,0,0,2.73.55,7.13,7.13,0,0,0,6.54-4.36l.11-.27A7.1,7.1,0,0,0,527.43,291.28Z" transform="translate(-19.99 -30.07)" fill="#fff" fill-rule="evenodd"/>
  </g>
  <g id="new_vector_shape_done-13" data-name="new_vector_shape_done">
    <path d="M519.5,303.5c-1.92-2.79-9-5.55-12.5-6.5-2.19,3.15-8.13,6.1-11.5,8,.74,1.51,14.26,7.28,16.5,8a6.6,6.6,0,0,0,5.5-1c2.11-.85,2-2.66,3.5-4A7.31,7.31,0,0,0,519.5,303.5Z" transform="translate(-19.99 -30.07)" fill="#121214" fill-rule="evenodd"/>
  </g>
  <g id="Составная_фигура-70" data-name="Составная фигура">
    <path d="M517.29,300.31l-9.54-4a1.09,1.09,0,1,0-.84,2l9.53,4a4.92,4.92,0,0,1,2.64,6.42L519,309a4.88,4.88,0,0,1-6.41,2.63l-17.26-7.12a1.09,1.09,0,1,0-.83,2l17.25,7.12a7.07,7.07,0,0,0,9.27-3.81l.11-.27A7.09,7.09,0,0,0,517.29,300.31Z" transform="translate(-19.99 -30.07)" fill="#fff" fill-rule="evenodd"/>
  </g>
  <g id="new_vector_shape_done-14" data-name="new_vector_shape_done">
    <path d="M506.5,312.5c-1.18-3.58-7.89-6.51-12.5-6.5-1.88,2.85-6,6.27-9,8,2.07,4.05,10.57,3.58,13.5,7,5.81.1,5.92-1.69,8.5-4.5C507,315,507.07,313.34,506.5,312.5Z" transform="translate(-19.99 -30.07)" fill="#121214" fill-rule="evenodd"/>
  </g>
  <g id="Составная_фигура-71" data-name="Составная фигура">
    <path d="M503.78,308.08l-8.48-3.56a1.1,1.1,0,0,0-.85,2l8.49,3.56a4.92,4.92,0,0,1,2.63,6.42l-.11.26a4.9,4.9,0,0,1-6.41,2.64l-13.89-5.8a1.09,1.09,0,1,0-.84,2l13.88,5.81a7.11,7.11,0,0,0,9.28-3.81l.11-.27A7.12,7.12,0,0,0,503.78,308.08Z" transform="translate(-19.99 -30.07)" fill="#fff" fill-rule="evenodd"/>
  </g>
  <g id="new_vector_shape_done-15" data-name="new_vector_shape_done">
    <path d="M459,290h-5.5c-2.29,2.71-7,3-9.5,5.5-.91.91-1.1,2.58-2,3.5.21,4.23,2.14,4.67,4,7,7.62-.05,10.89-4,15.5-7a25.1,25.1,0,0,0,.5-5.5Z" transform="translate(-19.99 -30.07)" fill="#121214" fill-rule="evenodd"/>
  </g>
  <g id="Составная_фигура-72" data-name="Составная фигура">
    <path d="M462.33,292.25a7.08,7.08,0,0,0-9.65-2.71l-7.75,4.35a7.09,7.09,0,1,0,6.94,12.37l7.75-4.35A7.12,7.12,0,0,0,462.33,292.25ZM458.54,300l-7.74,4.35a4.9,4.9,0,0,1-4.8-8.55l7.75-4.36a4.93,4.93,0,0,1,2.39-.63,5.09,5.09,0,0,1,1.33.19,4.86,4.86,0,0,1,2.95,2.32A4.91,4.91,0,0,1,458.54,300Z" transform="translate(-19.99 -30.07)" fill="#fff" fill-rule="evenodd"/>
  </g>
  <g id="Составная_фигура-73" data-name="Составная фигура">
    <path d="M484.69,308.19l-1-1.86a4.92,4.92,0,0,0-6.71-1.88l-5.75,3.23a4.93,4.93,0,0,0-1.89,6.71l1,1.86a4.94,4.94,0,0,0,6.72,1.89l5.74-3.23A4.94,4.94,0,0,0,484.69,308.19Z" transform="translate(-19.99 -30.07)" fill="#121214" fill-rule="evenodd"/>
  </g>
  <g id="Составная_фигура-74" data-name="Составная фигура">
    <path d="M485.64,307.66l-1-1.86a6,6,0,0,0-8.2-2.31l-5.75,3.23a6,6,0,0,0-2.3,8.21l1,1.86a6,6,0,0,0,3.62,2.85,6.13,6.13,0,0,0,1.64.23,5.91,5.91,0,0,0,2.94-.78l5.75-3.23A6,6,0,0,0,485.64,307.66Zm-3.37,6.3-5.75,3.23a3.85,3.85,0,0,1-5.22-1.47l-1-1.86a3.85,3.85,0,0,1,1.46-5.23l5.75-3.23a3.86,3.86,0,0,1,2.92-.35,3.8,3.8,0,0,1,2.3,1.82l1.05,1.86A3.86,3.86,0,0,1,482.27,314Z" transform="translate(-19.99 -30.07)" fill="#fff" fill-rule="evenodd"/>
  </g>
  <g id="new_vector_shape_done-16" data-name="new_vector_shape_done">
    <path d="M432.5,257c-9.57-3.61-18.94-6.56-28-10-27.86-10.58-56.14-19.58-83.5-30-13.18-5-26.36-9.17-39-14-4.69-1.79-10.48-2-14-5a9,9,0,0,0-3,.5c.19,2.64,1.56,5.43,1.5,8-.07,3-1.85,6.52-2.5,9-1.2,4.6,2.25,10.63,4,13,3.85,5.21,26.67,10.55,34.5,13.5,32.81,12.35,67.24,23.53,100,36,9.66,3.68,19.28,6.55,28.5,10,3.2,1.2,8.74,1.4,10.5,4H443c2.07-8.49,6.06-19.66,6-29C443,262.14,437.6,258.92,432.5,257Z" transform="translate(-19.99 -30.07)" fill="#121214" fill-rule="evenodd"/>
  </g>
  <g id="Составная_фигура-75" data-name="Составная фигура">
    <path d="M449.7,262.43l-180-64.54c-2.5-.89-4.13-1.24-5.08-.38s-.6,2.2-.18,3.9c.58,2.29,1.36,5.42.07,9a19.74,19.74,0,0,0,0,13.66,15.72,15.72,0,0,0,9.51,9.32L442.79,293a1.19,1.19,0,0,0,.37.06,1.1,1.1,0,0,0,.36-2.13L274.77,231.37c-7.76-2.77-11.27-11.45-8.16-20.18a16.83,16.83,0,0,0,0-10.31,12.94,12.94,0,0,1-.36-1.68A11.42,11.42,0,0,1,269,200l180,64.54a1.09,1.09,0,0,0,1.4-.66A1.11,1.11,0,0,0,449.7,262.43Z" transform="translate(-19.99 -30.07)" fill="#fff" fill-rule="evenodd"/>
  </g>
  <g id="new_vector_shape_done-17" data-name="new_vector_shape_done">
    <path d="M302,208c-7.92-3-16.13-5.83-24.5-9-3.72-1.41-7.6-3.69-12-4.5-3.06,7-6.57,14.16-9.5,21-1.54,3.59-2.28,8.58-5,11,1.62,3.12,8,3.2,11.5,4.5,8,2.95,17,6,25,9,3.73,1.39,9,1.39,11.5,4,10.71,0,9.08-21.78,15-27.5C313.91,209.41,307.15,210,302,208Z" transform="translate(-19.99 -30.07)" fill="#121214" fill-rule="evenodd"/>
  </g>
  <g id="Составная_фигура-76" data-name="Составная фигура">
    <path d="M311.25,209.88,266,193.33a1.09,1.09,0,1,0-.75,2l45.29,16.56a3.3,3.3,0,0,1,2,4.17l-8.54,24.47a3.29,3.29,0,0,1-4.14,2l-48.32-16.18a1.1,1.1,0,0,0-.69,2.08l48.31,16.18a5.43,5.43,0,0,0,1.72.28A5.51,5.51,0,0,0,306,241.3l8.53-24.47A5.5,5.5,0,0,0,311.25,209.88Z" transform="translate(-19.99 -30.07)" fill="#fff" fill-rule="evenodd"/>
  </g>
  <g id="new_vector_shape_done-18" data-name="new_vector_shape_done">
    <path d="M324,74c-3-4.57-8.59-8.41-14.5-10H256c-1.82,1.58-4.9,1.7-7,3a25.73,25.73,0,0,0-9,11c-3.05,7.41-1.5,20.73-1.5,30.5s-1,20.81,1.5,28.5c6.74,20.36,31.37,41,60,29,14-5.85,23.05-18,27-34q.25-14,.5-28C327.5,93.05,328.37,80.71,324,74Z" transform="translate(-19.99 -30.07)" fill="#121214" fill-rule="evenodd"/>
  </g>
  <g id="Составная_фигура-77" data-name="Составная фигура">
    <path d="M304.52,62.42H261.37a23.83,23.83,0,0,0-23.83,23.84V124.4a45.4,45.4,0,1,0,90.8,0V86.27A23.86,23.86,0,0,0,304.52,62.42Zm21.64,62a43.22,43.22,0,1,1-86.43,0v-27a.49.49,0,0,0,0-.12v-11a21.65,21.65,0,0,1,21.64-21.65h43.15a21.68,21.68,0,0,1,21.64,21.66Z" transform="translate(-19.99 -30.07)" fill="#fff" fill-rule="evenodd"/>
  </g>
  <g id="Составная_фигура-78" data-name="Составная фигура">
    <path d="M307.94,123a1.09,1.09,0,0,0-1.09,1.1,5.6,5.6,0,0,1-5.6,5.6,1.1,1.1,0,0,0,0,2.19,7.81,7.81,0,0,0,7.79-7.79A1.1,1.1,0,0,0,307.94,123Z" transform="translate(-19.99 -30.07)" fill="#fff" fill-rule="evenodd"/>
  </g>
  <g id="Составная_фигура-79" data-name="Составная фигура">
    <path d="M312.93,143.3a1.1,1.1,0,0,0-1.53.1,5,5,0,0,1-1.17.82l-.74.07a2.85,2.85,0,0,1-2.44-1.1,3.92,3.92,0,0,0-2.73-1.37h-6.13a4.78,4.78,0,0,0-2.69,1,5.93,5.93,0,0,1-3.14,1.15,5.74,5.74,0,0,1-1-.65,1.09,1.09,0,0,0-1.54,1.55,7.44,7.44,0,0,0,1.48,1l1.62,2.28a7.85,7.85,0,0,0,2.79,2.46,12.3,12.3,0,0,0,10.34.1,7.57,7.57,0,0,0,3.06-2.83l.76-1.16a8.32,8.32,0,0,0,3.15-2A1.09,1.09,0,0,0,312.93,143.3Z" transform="translate(-19.99 -30.07)" fill="#00ffc4" fill-rule="evenodd"/>
  </g>
  <g id="new_vector_shape_done-19" data-name="new_vector_shape_done">
    <path d="M298.5,34c-25.09-9.22-56.66,2.43-67.5,17-8.42,11.32-9.91,23.61-14,39.5-1.25,4.86-1.24,17.29-4,20V112c7.46,1.8,15.5,2,23.5,4,3.71,1,7.71,2.07,12.5,2-.07-3.5-1.15-13,1-14.5s8.82-.46,12-.5l22-2c13-3,26.78-4,38-9,4.23-1.9,8.62-5.68,13-7C335.15,57.62,318.48,41.35,298.5,34Z" transform="translate(-19.99 -30.07)" fill="#121214" fill-rule="evenodd"/>
  </g>
  <g id="Составная_фигура-80" data-name="Составная фигура">
    <path d="M320.63,46.75c-10.89-10.91-25.77-16.68-43-16.68-30.48,0-53.49,18-58.6,45.76l-6.79,36.25,2.15.4,6.79-36.26c4.92-26.71,27.08-44,56.45-44,27.2,0,56.1,18.1,56.4,51.66-18,13.64-63.15,18.14-81.74,18.14h-.54a3.92,3.92,0,0,0-2.82,1.17,4,4,0,0,0-1.19,2.83l0,12.33h2.18l.05-12.33a1.78,1.78,0,0,1,.54-1.29,1.69,1.69,0,0,1,1.29-.53c18.6.1,65.69-4.56,84-18.93l.42-.33v-.53A53,53,0,0,0,320.63,46.75Z" transform="translate(-19.99 -30.07)" fill="#fff" fill-rule="evenodd"/>
  </g>
  <g id="new_vector_shape_done-20" data-name="new_vector_shape_done">
    <path d="M236.5,108c-1.29,1.14-3.5,1-5,2-1.92,1.29-2.74,4-4.5,5.5-.12,2.11-.73,3.79,0,5,.14,7.31,5.08,7.14,9,10.5,2.78,0,4.53-.27,6-1.5,3.68-1.38,4.13-7.15,7-9.5C249,112.77,243.55,108.14,236.5,108Z" transform="translate(-19.99 -30.07)" fill="#121214" fill-rule="evenodd"/>
  </g>
  <g id="Составная_фигура-81" data-name="Составная фигура">
    <path d="M237.74,107.34a12.18,12.18,0,1,0,6,22.76,1.1,1.1,0,1,0-1.09-1.9,10,10,0,1,1,5-8.68,1.1,1.1,0,0,0,2.19,0A12.19,12.19,0,0,0,237.74,107.34Z" transform="translate(-19.99 -30.07)" fill="#fff" fill-rule="evenodd"/>
  </g>
  <g id="Составная_фигура-82" data-name="Составная фигура">
    <path d="M237.74,113.92a5.6,5.6,0,0,0-5.59,5.6,1.09,1.09,0,0,0,2.18,0,3.42,3.42,0,0,1,3.41-3.42,1.09,1.09,0,1,0,0-2.18Z" transform="translate(-19.99 -30.07)" fill="#fff" fill-rule="evenodd"/>
  </g>
  <g id="Составная_фигура-83" data-name="Составная фигура">
    <path d="M444.72,259.62A2.19,2.19,0,0,0,442,261L433,288.13a2.2,2.2,0,0,0,1.4,2.76,2.25,2.25,0,0,0,.68.11,2.18,2.18,0,0,0,2.08-1.5l8.95-27.12A2.19,2.19,0,0,0,444.72,259.62Z" transform="translate(-19.99 -30.07)" fill="#fff" fill-rule="evenodd"/>
  </g>
  <g id="Составная_фигура-84" data-name="Составная фигура">
    <path d="M238.36,125.64a2.91,2.91,0,1,0,2.91,2.91A2.9,2.9,0,0,0,238.36,125.64Z" transform="translate(-19.99 -30.07)" fill="#00ffc4" fill-rule="evenodd"/>
  </g>
  <g id="Составная_фигура-85" data-name="Составная фигура">
    <ellipse cx="420.08" cy="243.62" rx="9.11" ry="9.12" fill="#00ffc4"/>
  </g>
  <g id="Составная_фигура-86" data-name="Составная фигура">
    <path d="M971.18,327H28.8a7.86,7.86,0,0,0-7.81,7.9V345H979v-10.1A7.86,7.86,0,0,0,971.18,327Z" transform="translate(-19.99 -30.07)" fill="#121214" fill-rule="evenodd"/>
  </g>
  <g id="Составная_фигура-87" data-name="Составная фигура">
    <path d="M971.08,327H28.9A8.7,8.7,0,0,0,20,335.46V346H980V335.46A8.7,8.7,0,0,0,971.08,327Zm6.72,16.92H22.18v-8.46a6.57,6.57,0,0,1,6.72-6.39H971.08a6.57,6.57,0,0,1,6.72,6.39Z" transform="translate(-19.99 -30.07)" fill="#fff" fill-rule="evenodd"/>
  </g>
  <g id="Rectangle_1" data-name="Rectangle 1">
    <rect x="2.01" y="312.93" width="956" height="3" fill="#121214"/>
  </g>
</svg>
