<?xml version="1.0" encoding="UTF-8"?>
<svg id="Laag_1" xmlns="http://www.w3.org/2000/svg" baseProfile="tiny" version="1.2" viewBox="0 0 187 34">
  <!-- Generator: Adobe Illustrator 29.5.1, SVG Export Plug-In . SVG Version: 2.1.0 Build 141)  -->
  <g id="Ovaal_1">
    <g id="Ovaal_11" data-name="Ovaal_1">
      <circle cx="17.1" cy="17" r="17" fill="#00ffc4"/>
    </g>
  </g>
  <g id="JOBHULP">
    <g>
      <path d="M59,19c0,5.4-3.5,9.4-9.2,9.4-5.4,0-9.2-3.2-9.2-9.1h3.9c0,3.6,1.7,5.4,5.3,5.4s5.3-2.5,5.3-5.7v-8.3h-6.3v-3.7h10.3l-.1,12h0Z"/>
      <path d="M83.3,17.6c-.1,5.4-3.4,10.9-10.8,10.9s-10.8-5.3-10.8-10.8,3.6-11.1,10.8-11.1,10.9,5.5,10.8,11ZM65.6,17.7c.1,3.5,1.9,7.1,6.9,7.1s6.8-3.7,6.9-7.2-1.9-7.5-6.9-7.5c-4.9.1-6.9,4-6.9,7.6Z"/>
      <path d="M103.3,13.1c0,1.6-.8,3.2-2.7,4,2.5.8,3.4,3.4,3.4,4.7,0,4.7-3.5,6.2-7.9,6.2h-10V7h10c4.1,0,7.2,1.8,7.2,6.1ZM90,15.4h6.1c2.5,0,3.3-1.1,3.3-2.2,0-1-.8-2.6-3.3-2.6h-6.1v4.8ZM90,24.3h6.1c1.6,0,3.9-.5,3.9-2.5s-2.3-2.9-3.9-2.9h-6.1v5.4Z"/>
      <path d="M121,28v-8.5h-10.3v8.5h-4V7h4v8.8h10.3V7h3.9v21h-3.9Z"/>
      <path d="M147.1,7v12c0,6.2-3.8,9.4-9.1,9.4-5,0-9.3-3.1-9.3-9.4V7h3.9v12c0,3.8,2.2,5.8,5.4,5.8s5.1-2.2,5.1-5.8V7h4Z"/>
      <path d="M154.9,7v17.3h10.8v3.7h-14.7V7h3.9Z"/>
      <path d="M178.4,21.8h-5.9v6.2h-4V7h9.9c10.3-.1,10.3,14.8,0,14.8ZM172.5,18.2h5.9c5.1,0,5-7.4,0-7.4h-5.9v7.4Z"/>
    </g>
  </g>
  <g id="stripped-tie_xA0_Afbeelding">
    <g id="Layer_5">
      <g>
        <path d="M21.3,6.4c-.1.7-.7,1.3-1.4,1.3h-5.5c-.7,0-1.3-.6-1.4-1.3l-.2-2.9c-.1-.7.5-1.3,1.2-1.3h6.4c.7,0,1.2.6,1.2,1.3l-.3,2.9Z" fill="#fff"/>
        <path d="M24.3,24.4l-2.9-13.9c-.1-.7-.8-1.3-1.6-1.3h-5.5c-.7,0-1.4.6-1.6,1.3l-2.8,13.9c-.1.7.2,1.7.7,2.1l5.6,5.1c.5.5,1.4.5,1.9,0l5.6-5.1c.5-.5.8-1.4.6-2.1ZM13.2,16.8c.1-.3.2-1,.3-1.4,0-.1.1-.1.1-.1l6.3-2.9c.1-.1.1,0,.2.1v.2s.1.7.2.9c0,.1-.1.2-.1.2l-6.9,3.3c-.1-.2-.1-.1-.1-.3ZM11.8,23.3c.1-.3.2-1,.3-1.3,0-.2.2-.2.2-.2l8.6-4.1s.2-.1.3.1c0,.2.2.8.2,1,0,.1-.1.2-.1.2l-9.3,4.5c-.1-.1-.2-.1-.2-.2ZM22.3,24.1l-7.9,3.8s-.1.1-.2,0c-.2-.2-.6-.5-.8-.7-.1-.2,0-.2,0-.2l8.6-4.1s.2-.1.2.1.2.8.2,1l-.1.1Z" fill="#fff"/>
      </g>
    </g>
  </g>
</svg>