<?xml version="1.0" encoding="utf-8"?>
<!-- Generator: Adobe Illustrator 22.1.0, SVG Export Plug-In . SVG Version: 6.00 Build 0)  -->
<svg version="1.1" xmlns="http://www.w3.org/2000/svg" xmlns:xlink="http://www.w3.org/1999/xlink" x="0px" y="0px"
	 viewBox="0 0 115.7 30" style="enable-background:new 0 0 115.7 30;" xml:space="preserve">
<style type="text/css">
	.st0{display:none;}
	.st1{display:inline;fill:#121214;}
	.st2{fill:#FD4E26;}
	.st3{fill:#08469C;}
	.st4{fill:#159CE4;}
	.st5{fill:#F9BC35;}
	.st6{fill:#121214;}
</style>
<g id="Logo">
	<title>02_logo_dark</title>
	<g id="Puzzle_job" class="st0">
		<path class="st1" d="M56,10.3c0.5-1.3,0.5-2.8-0.1-4.1c-0.6-1.3-1.6-2.4-2.9-2.9c-1.4-0.6-2.9-0.6-4.3,0c-1.3,0.6-2.4,1.6-2.9,2.9
			c-0.3,0.7-0.4,1.4-0.4,2.1v7.5H48v-2.7c0.6,0.4,1.2,0.6,1.9,0.7c0.6,0.1,1.3,0.1,1.9,0c0.6-0.1,1.2-0.3,1.7-0.6
			c0.6-0.3,1.1-0.7,1.5-1.2C55.4,11.4,55.8,10.9,56,10.3z M53.4,9.4c-0.1,0.3-0.3,0.6-0.6,0.9c-0.3,0.3-0.6,0.5-0.9,0.6
			c-0.3,0.1-0.7,0.2-1.1,0.2c-0.4,0-0.7-0.1-1.1-0.2c-0.7-0.3-1.2-0.8-1.5-1.5C48.1,9,48,8.7,48,8.3c0-0.4,0.1-0.7,0.2-1.1
			c0.1-0.3,0.3-0.6,0.6-0.9c0.5-0.5,1.3-0.8,2-0.8c0.4,0,0.7,0.1,1.1,0.2c0.3,0.1,0.6,0.3,0.9,0.6c0.2,0.3,0.4,0.6,0.6,0.9
			c0.1,0.3,0.2,0.7,0.2,1.1C53.6,8.7,53.5,9,53.4,9.4L53.4,9.4z M69.4,10.5c0.3-0.7,0.4-1.4,0.4-2.2V2.8H67v5.5
			c0,0.4-0.1,0.7-0.2,1.1c-0.1,0.3-0.3,0.6-0.6,0.9c-0.3,0.3-0.6,0.5-0.9,0.6c-0.3,0.1-0.7,0.2-1.1,0.2c-0.4,0-0.7-0.1-1.1-0.2
			c-0.3-0.1-0.6-0.3-0.9-0.6c-0.5-0.5-0.8-1.2-0.8-2V2.8h-2.7v5.5c0,0.7,0.1,1.5,0.4,2.2c0.6,1.3,1.6,2.4,2.9,2.9
			c1.4,0.6,2.9,0.6,4.3,0C67.7,12.8,68.8,11.8,69.4,10.5L69.4,10.5z M72.4,2.8v2.8H78l-5.6,8.3h10.8v-2.8h-5.6l5.6-8.3H72.4z
			 M85.8,2.8v2.8h5.6l-5.6,8.3h10.8v-2.8H91l5.6-8.3H85.8z M99.3,13.8h2.7V0h-2.8L99.3,13.8z M115,5.4c-0.5-0.8-1.1-1.4-1.9-1.8
			c-0.8-0.4-1.6-0.7-2.5-0.8c-0.9-0.1-1.7,0-2.6,0.3c-2.8,1.1-4.2,4.3-3.1,7.2c0.3,0.8,0.8,1.6,1.5,2.1c0.7,0.6,1.4,1,2.3,1.2
			c0.8,0.2,1.7,0.3,2.6,0.1c1.9-0.4,3.4-1.7,4-3.6h-3.1c-0.3,0.4-0.7,0.6-1.2,0.8c-0.4,0.1-0.9,0.2-1.4,0.1
			c-0.5-0.1-0.9-0.3-1.2-0.6c-0.4-0.3-0.7-0.7-0.8-1.2h8l0.1-0.5c0-0.2,0-0.3,0-0.5C115.7,7.3,115.4,6.3,115,5.4L115,5.4z
			 M108.1,6.5c0.3-0.3,0.6-0.6,1-0.7c0.4-0.2,0.7-0.3,1.1-0.2c0.4,0,0.8,0.1,1.1,0.2c0.4,0.2,0.7,0.4,1,0.7H108.1z M49,24.3
			c0,0.4-0.1,0.7-0.2,1.1c-0.1,0.3-0.3,0.6-0.6,0.9c-0.3,0.3-0.6,0.5-0.9,0.6c-0.3,0.1-0.7,0.2-1.1,0.2h-0.9v2.8h0.9
			c0.7,0,1.5-0.1,2.1-0.4c0.7-0.3,1.2-0.7,1.8-1.2c0.5-0.5,0.9-1.1,1.2-1.8c0.3-0.7,0.4-1.4,0.4-2.2v-5.5H49V24.3z M63.7,20.3
			c-0.5-0.5-1.1-0.9-1.8-1.2c-0.7-0.3-1.4-0.4-2.1-0.4c-0.7,0-1.5,0.1-2.1,0.4c-1.3,0.6-2.4,1.6-2.9,2.9c-0.6,1.4-0.6,3,0,4.3
			c0.3,0.7,0.7,1.3,1.2,1.8c0.5,0.5,1.1,0.9,1.8,1.2c0.7,0.3,1.4,0.4,2.1,0.4c0.7,0,1.5-0.1,2.2-0.4c1.3-0.6,2.4-1.6,2.9-2.9
			c0.6-1.4,0.6-3,0-4.4C64.6,21.4,64.2,20.9,63.7,20.3L63.7,20.3z M62.4,25.3c-0.1,0.3-0.3,0.6-0.6,0.9c-0.3,0.2-0.6,0.4-0.9,0.6
			c-0.3,0.1-0.7,0.2-1.1,0.2c-0.4,0-0.7-0.1-1.1-0.2c-0.7-0.3-1.2-0.8-1.5-1.5c-0.2-0.3-0.2-0.7-0.2-1.1c0-0.4,0.1-0.7,0.2-1.1
			c0.1-0.3,0.3-0.6,0.6-0.9c0.3-0.2,0.5-0.4,0.9-0.6c0.3-0.2,0.7-0.2,1.1-0.2c0.4,0,0.7,0.1,1.1,0.2c0.3,0.1,0.6,0.3,0.9,0.6
			c0.3,0.3,0.5,0.6,0.6,0.9c0.1,0.3,0.2,0.7,0.2,1.1C62.6,24.6,62.5,25,62.4,25.3L62.4,25.3z M77.6,20.6c-0.4-0.5-0.9-0.9-1.4-1.2
			c-0.5-0.3-1.1-0.5-1.7-0.7c-1.3-0.2-2.6,0-3.8,0.6V16h-2.8v8.3c0,0.7,0.1,1.5,0.4,2.2c0.6,1.3,1.6,2.4,2.9,2.9
			c1.4,0.6,2.9,0.6,4.3,0c1.3-0.6,2.4-1.6,2.9-2.9c0.3-0.7,0.4-1.4,0.4-2.2c0-0.7-0.1-1.4-0.4-2C78.4,21.7,78,21.2,77.6,20.6
			L77.6,20.6z M76,25.4c-0.1,0.3-0.3,0.6-0.6,0.9c-0.3,0.2-0.6,0.4-0.9,0.6c-0.3,0.1-0.7,0.2-1.1,0.2c-0.4,0-0.7-0.1-1.1-0.2
			c-0.7-0.3-1.2-0.8-1.5-1.5c-0.2-0.3-0.2-0.7-0.2-1.1c0-0.4,0.1-0.7,0.2-1.1c0.1-0.3,0.3-0.6,0.6-0.9c0.3-0.2,0.5-0.4,0.9-0.6
			c0.3-0.2,0.7-0.2,1.1-0.2c0.4,0,0.7,0.1,1.1,0.2c0.3,0.1,0.6,0.3,0.9,0.6c0.3,0.3,0.5,0.6,0.6,0.9c0.1,0.3,0.2,0.7,0.2,1.1
			C76.2,24.7,76.1,25,76,25.4z"/>
	</g>
	<g id="Составная_фигура">
		<path class="st2" d="M0,15v12.4C0,28.9,1.2,30,2.7,30c0,0,0,0,0,0H15V15H0z"/>
	</g>
	<g id="Составная_фигура-2">
		<path class="st3" d="M15,15v15h12.4c1.4,0,2.6-1.2,2.6-2.6c0,0,0,0,0,0V15H15z"/>
	</g>
	<g id="Составная_фигура-3">
		<path class="st4" d="M27.3,0H15v15h15V2.7C30,1.2,28.8,0,27.3,0C27.3,0,27.3,0,27.3,0z"/>
	</g>
	<g id="Составная_фигура-4">
		<path class="st5" d="M2.6,0C1.1,0,0,1.2,0,2.6c0,0,0,0,0,0V15h15V0H2.6z"/>
	</g>
	<g id="Ellipse_1">
		<circle class="st3" cx="14.5" cy="22.5" r="3.5"/>
	</g>
	<g id="Ellipse_1_copy">
		<circle class="st2" cx="7.5" cy="14.5" r="3.5"/>
	</g>
	<g id="Ellipse_1_copy_2">
		<circle class="st5" cx="15.5" cy="7.5" r="3.5"/>
	</g>
	<g id="Ellipse_1_copy_3">
		<circle class="st4" cx="22.5" cy="15.5" r="3.5"/>
	</g>
</g>
<g id="Txt">
	<g>
		<path class="st6" d="M43.8,9.1c0.8,0,1.6,0.2,2.4,0.5s1.4,0.7,1.9,1.3c0.6,0.5,1,1.2,1.3,1.9c0.3,0.7,0.5,1.5,0.5,2.4
			c0,0.8-0.1,1.5-0.4,2.2c-0.3,0.7-0.6,1.3-1.1,1.8c-0.4,0.5-1,1-1.6,1.3c-0.6,0.3-1.2,0.6-1.9,0.7c-0.7,0.1-1.4,0.1-2.1,0
			c-0.7-0.1-1.4-0.4-2.1-0.7v3h-3v-8.2c0-0.8,0.2-1.6,0.5-2.4s0.7-1.4,1.3-1.9c0.6-0.5,1.2-1,1.9-1.3S43,9.1,43.8,9.1z M46.8,15.2
			c0-0.4-0.1-0.8-0.2-1.2c-0.2-0.4-0.4-0.7-0.6-1c-0.3-0.3-0.6-0.5-1-0.6c-0.4-0.2-0.8-0.2-1.2-0.2c-0.4,0-0.8,0.1-1.2,0.2
			c-0.4,0.2-0.7,0.4-1,0.6c-0.3,0.3-0.5,0.6-0.6,1c-0.2,0.4-0.2,0.8-0.2,1.2c0,0.4,0.1,0.8,0.2,1.2c0.2,0.4,0.4,0.7,0.6,1
			c0.3,0.3,0.6,0.5,1,0.6c0.4,0.2,0.8,0.2,1.2,0.2c0.4,0,0.8-0.1,1.2-0.2c0.4-0.2,0.7-0.4,1-0.6c0.3-0.3,0.5-0.6,0.6-1
			C46.8,16,46.8,15.6,46.8,15.2z"/>
		<path class="st6" d="M62.9,9.1v6.1c0,0.8-0.2,1.6-0.5,2.4c-0.3,0.7-0.7,1.4-1.3,1.9c-0.6,0.5-1.2,1-1.9,1.3
			c-0.7,0.3-1.5,0.5-2.4,0.5s-1.6-0.2-2.4-0.5c-0.7-0.3-1.4-0.7-1.9-1.3c-0.6-0.5-1-1.2-1.3-1.9s-0.5-1.5-0.5-2.4V9.1h3V10v5.3
			c0,0.4,0.1,0.8,0.2,1.2c0.2,0.4,0.4,0.7,0.6,1s0.6,0.5,1,0.6c0.4,0.2,0.8,0.2,1.2,0.2c0.4,0,0.8-0.1,1.2-0.2
			c0.4-0.2,0.7-0.4,1-0.6c0.3-0.3,0.5-0.6,0.6-1c0.2-0.4,0.2-0.8,0.2-1.2V9.1H62.9z"/>
		<path class="st6" d="M75.9,21.3H63.9l6.2-9.1h-6.2v-3h11.9l-6.2,9.1h6.2V21.3z"/>
		<path class="st6" d="M88.8,21.3H76.9l6.2-9.1h-6.2v-3h11.9l-6.2,9.1h6.2V21.3z"/>
		<path class="st6" d="M93.1,21.3h-3V6.1h3V21.3z"/>
		<path class="st6" d="M106.4,15.2c0,0.2,0,0.4,0,0.5c0,0.2,0,0.4-0.1,0.5h-8.8c0.2,0.5,0.5,1,0.9,1.3c0.4,0.3,0.9,0.5,1.4,0.6
			c0.5,0.1,1,0.1,1.5-0.1c0.5-0.2,0.9-0.4,1.3-0.9h3.5c-0.4,1.2-1,2.1-1.8,2.7c-0.8,0.6-1.7,1-2.6,1.2c-0.9,0.2-1.9,0.2-2.8-0.1
			s-1.8-0.7-2.5-1.3s-1.3-1.4-1.7-2.3c-0.4-0.9-0.5-2-0.3-3.2c0.2-1.2,0.6-2.2,1.3-3c0.7-0.8,1.5-1.3,2.4-1.7
			c0.9-0.3,1.8-0.5,2.8-0.4c1,0.1,1.9,0.4,2.7,0.8c0.8,0.5,1.5,1.2,2,2C106.1,12.9,106.4,14,106.4,15.2z M98,13.2h4.6
			c-0.3-0.4-0.7-0.6-1.1-0.8c-0.4-0.2-0.8-0.3-1.2-0.3s-0.8,0.1-1.2,0.3C98.7,12.6,98.3,12.9,98,13.2z"/>
		<path class="st6" d="M107.4,21.3v-5.8V9.1h3v1.1c0.5-0.3,0.9-0.5,1.5-0.6c0.5-0.1,1.1-0.2,1.6-0.2h1.7v3h-1.7
			c-0.4,0-0.8,0.1-1.2,0.2c-0.4,0.2-0.7,0.4-1,0.6c-0.3,0.3-0.5,0.6-0.6,1s-0.2,0.8-0.2,1.2v5.8H107.4z"/>
	</g>
</g>
</svg>
