<svg id="Illustration" xmlns="http://www.w3.org/2000/svg" viewBox="0 0 660.03 422.03">
  <title>08_time</title>
  <g id="new_vector_shape_done">
    <path d="M298.55,151.74c-.23-4.53-2.16-4.61-4.13-7.08-7.91-.57-17.69-.63-26.52-.59-.7.48-1,.48-2.36.59l-4.72,4.72c-.08,5.28-1.14,14.41,1.18,17.69,1.1,1.55,3.49,2.05,4.72,3.54h25.93c2.39-.77,4.06-3.32,5.9-4.72C298.73,162.31,300.57,154.83,298.55,151.74Z" transform="translate(-69.98 -72.97)" fill="#00ffc4" fill-rule="evenodd"/>
  </g>
  <g id="Составная_фигура" data-name="Составная фигура">
    <path d="M290.9,142.49h-22a9.79,9.79,0,0,0-9.78,9.78v10a9.79,9.79,0,0,0,9.78,9.78h22a9.79,9.79,0,0,0,9.77-9.78v-10A9.78,9.78,0,0,0,290.9,142.49Zm6.23,19.74a6.24,6.24,0,0,1-6.23,6.24h-22a6.25,6.25,0,0,1-6.24-6.24v-10a6.25,6.25,0,0,1,6.24-6.24h22a6.24,6.24,0,0,1,6.23,6.24Z" transform="translate(-69.98 -72.97)" fill="#00ffc4" fill-rule="evenodd"/>
  </g>
  <g id="Составная_фигура-2" data-name="Составная фигура">
    <path d="M247.44,414.33H102.57a30.22,30.22,0,0,0-3.59.22,30,30,0,0,0,3.59,59.84H247.44a30,30,0,0,0,0-60.06Z" transform="translate(-69.98 -72.97)" fill="#121214" fill-rule="evenodd"/>
  </g>
  <g id="Составная_фигура-3" data-name="Составная фигура">
    <path d="M506.13,253.84A30.89,30.89,0,0,1,481,241L400.66,129A64.94,64.94,0,0,0,363,103.69L243.62,75.05A11.12,11.12,0,0,0,230,84.45,60.47,60.47,0,0,0,276,150.72l.42.11,29.09,6.92,41.82,10,49.12,102.64c-21.4.06-16.37,4.8-16.37,4.8H329.34V474.48h24a271,271,0,0,0,127.77-32.06,56.65,56.65,0,0,1,26.76-6.84h95.32V253.84Z" transform="translate(-69.98 -72.97)" fill="#121214" fill-rule="evenodd"/>
  </g>
  <g id="Составная_фигура-4" data-name="Составная фигура">
    <path d="M247.44,412.56H102.57a32.55,32.55,0,0,0-3.8.23,31.8,31.8,0,0,0,3.8,63.37H247.44a31.8,31.8,0,0,0,0-63.6Zm20,51.78a28.06,28.06,0,0,1-20,8.28H102.57a28.26,28.26,0,0,1-3.38-56.32,29.74,29.74,0,0,1,3.38-.2H247.44a28.26,28.26,0,0,1,20,48.24Z" transform="translate(-69.98 -72.97)" fill="#fff" fill-rule="evenodd"/>
  </g>
  <g id="Составная_фигура-5" data-name="Составная фигура">
    <path d="M506.13,252.07a29.22,29.22,0,0,1-23.67-12.15L402.1,128a66.67,66.67,0,0,0-38.68-26L244,73.33a12.93,12.93,0,0,0-10.39,2,12.8,12.8,0,0,0-5.42,9,62.2,62.2,0,0,0,47.39,68.21l70.52,16.82,47.56,99.38c-12.41.3-14.91,2.41-15.64,4.26a2.46,2.46,0,0,0-.15.51H327.57V476.25h25.74A273.25,273.25,0,0,0,481.9,444a55.28,55.28,0,0,1,25.93-6.62h97.09V252.07Zm95.25,181.74H507.83a58.76,58.76,0,0,0-27.6,7,269.74,269.74,0,0,1-126.92,31.86H331.1V276.94h53.49l-3.06-2.89c.7-.51,3.65-1.89,15-1.91h2.8L348.6,166.21,276.44,149a58.68,58.68,0,0,1-44.7-64.34,9.25,9.25,0,0,1,3.92-6.47,9.37,9.37,0,0,1,7.55-1.42l119.38,28.64A63.19,63.19,0,0,1,399.23,130l80.36,112a32.76,32.76,0,0,0,26.54,13.63h95.25Z" transform="translate(-69.98 -72.97)" fill="#fff" fill-rule="evenodd"/>
  </g>
  <g id="Составная_фигура-6" data-name="Составная фигура">
    <path d="M279.89,170.34A160.71,160.71,0,0,0,123.31,366.2l.09.39A160.61,160.61,0,0,0,279.89,491.47c88.61,0,160.46-71.88,160.46-160.56S368.5,170.34,279.89,170.34Z" transform="translate(-69.98 -72.97)" fill="#121214" fill-rule="evenodd"/>
  </g>
  <g id="Составная_фигура-7" data-name="Составная фигура">
    <path d="M279.89,168.57a162.48,162.48,0,0,0-158.32,198l.06.27,0,.19a160.72,160.72,0,0,0,27.68,60.32,163.52,163.52,0,0,0,56.27,48,160.29,160.29,0,0,0,74.27,18c89.45,0,162.23-72.82,162.23-162.33S369.34,168.57,279.89,168.57Zm0,321.13a156.92,156.92,0,0,1-72.65-17.57,160.22,160.22,0,0,1-55.05-46.93,157.12,157.12,0,0,1-27.06-58.93l-.09-.46a158.71,158.71,0,0,1,154.85-193.7c87.5,0,158.69,71.24,158.69,158.8S367.39,489.7,279.89,489.7Z" transform="translate(-69.98 -72.97)" fill="#fff" fill-rule="evenodd"/>
  </g>
  <g id="Составная_фигура-8" data-name="Составная фигура">
    <ellipse cx="209.9" cy="257.93" rx="137.96" ry="138.05" fill="#121214"/>
  </g>
  <g id="Составная_фигура-9" data-name="Составная фигура">
    <path d="M279.88,191.08c-77,0-139.73,62.73-139.73,139.83s62.68,139.82,139.73,139.82S419.61,408,419.61,330.91,356.93,191.08,279.88,191.08Zm0,276.11c-75.1,0-136.19-61.14-136.19-136.28s61.09-136.29,136.19-136.29,136.2,61.14,136.2,136.29S355,467.19,279.88,467.19Z" transform="translate(-69.98 -72.97)" fill="#fff" fill-rule="evenodd"/>
  </g>
  <g id="Составная_фигура-10" data-name="Составная фигура">
    <path d="M350.68,262.08a1.06,1.06,0,0,0-1.5,0L234,374.14a1.07,1.07,0,0,0,.74,1.83,1,1,0,0,0,.74-.3L350.66,263.58A1.07,1.07,0,0,0,350.68,262.08Z" transform="translate(-69.98 -72.97)" fill="#00ffc4" fill-rule="evenodd"/>
  </g>
  <g id="Составная_фигура-11" data-name="Составная фигура">
    <path d="M279.88,323.31a7.6,7.6,0,1,0,7.59,7.59A7.59,7.59,0,0,0,279.88,323.31Z" transform="translate(-69.98 -72.97)" fill="#121214" fill-rule="evenodd"/>
  </g>
  <g id="Составная_фигура-12" data-name="Составная фигура">
    <path d="M279.88,321.54a9.37,9.37,0,1,0,9.36,9.37A9.37,9.37,0,0,0,279.88,321.54Zm0,15.19a5.83,5.83,0,1,1,5.82-5.82A5.83,5.83,0,0,1,279.88,336.73Z" transform="translate(-69.98 -72.97)" fill="#00ffc4" fill-rule="evenodd"/>
  </g>
  <g id="Составная_фигура-13" data-name="Составная фигура">
    <circle cx="231.06" cy="378.09" r="4.69" transform="translate(-70.92 -72.4) rotate(-0.14)" fill="#00ffc4"/>
  </g>
  <g id="Составная_фигура-14" data-name="Составная фигура">
    <path d="M293.48,266.33,273,248a1.06,1.06,0,1,0-1.41,1.58l20.48,18.3a1.07,1.07,0,0,0,.71.27,1,1,0,0,0,.79-.36A1.06,1.06,0,0,0,293.48,266.33Z" transform="translate(-69.98 -72.97)" fill="#00ffc4" fill-rule="evenodd"/>
  </g>
  <g id="Ellipse_2_copy_3" data-name="Ellipse 2 copy 3">
    <path d="M279.69,206a4.72,4.72,0,1,0,4.72,4.72A4.72,4.72,0,0,0,279.69,206Zm0,240.62a4.72,4.72,0,1,0,4.72,4.72A4.72,4.72,0,0,0,279.69,446.62Zm47.15-9.43a4.72,4.72,0,1,0,4.72,4.72A4.72,4.72,0,0,0,326.84,437.19Zm37.72-25.94a4.72,4.72,0,1,0,4.72,4.72A4.72,4.72,0,0,0,364.56,411.25Zm-169.75,0a4.72,4.72,0,1,0,4.72,4.72A4.72,4.72,0,0,0,194.81,411.25Zm196.86-40.09a4.72,4.72,0,1,0,4.71,4.72A4.71,4.71,0,0,0,391.67,371.16Zm-224,0a4.72,4.72,0,1,0,4.72,4.72A4.72,4.72,0,0,0,167.69,371.16Zm232.25-44.85a4.72,4.72,0,1,0,4.72,4.72A4.72,4.72,0,0,0,399.94,326.31Zm-241.67,0A4.72,4.72,0,1,0,163,331,4.72,4.72,0,0,0,158.27,326.31ZM390.5,288.56a4.72,4.72,0,1,0-4.72-4.72A4.72,4.72,0,0,0,390.5,288.56Zm-222.81-9.44a4.72,4.72,0,1,0,4.72,4.72A4.72,4.72,0,0,0,167.69,279.12Zm198.06-37.74a4.72,4.72,0,1,0,4.72,4.71A4.71,4.71,0,0,0,365.75,241.38Zm-170.94,0a4.72,4.72,0,1,0,4.72,4.71A4.72,4.72,0,0,0,194.81,241.38ZM329.19,219a4.72,4.72,0,1,0-4.72,4.72A4.72,4.72,0,0,0,329.19,219Zm-91.94,0a4.72,4.72,0,1,0-4.72,4.72A4.72,4.72,0,0,0,237.25,219Zm-2.36,218.22a4.72,4.72,0,1,0,4.7,4.72A4.71,4.71,0,0,0,234.89,437.19Z" transform="translate(-69.98 -72.97)" fill="#fff" fill-rule="evenodd"/>
  </g>
  <g id="Составная_фигура-15" data-name="Составная фигура">
    <circle cx="209.9" cy="182.73" r="5.51" fill="#121214"/>
  </g>
  <g id="Составная_фигура-16" data-name="Составная фигура">
    <path d="M279.88,248.42a7.29,7.29,0,1,0,7.28,7.28A7.29,7.29,0,0,0,279.88,248.42Zm0,11a3.75,3.75,0,1,1,3.75-3.75A3.75,3.75,0,0,1,279.88,259.45Z" transform="translate(-69.98 -72.97)" fill="#00ffc4" fill-rule="evenodd"/>
  </g>
  <g id="Составная_фигура-17" data-name="Составная фигура">
    <path d="M279.88,230a25.72,25.72,0,1,0,25.7,25.71A25.73,25.73,0,0,0,279.88,230Zm0,47.89a22.18,22.18,0,1,1,22.17-22.18A22.19,22.19,0,0,1,279.88,277.88Z" transform="translate(-69.98 -72.97)" fill="#fff" fill-rule="evenodd"/>
  </g>
  <g id="Составная_фигура-18" data-name="Составная фигура">
    <path d="M140.81,233H106.26a30,30,0,0,0-30,30h0a30,30,0,0,0,30,30h34.55a30,30,0,0,0,30-30h0A30,30,0,0,0,140.81,233Z" transform="translate(-69.98 -72.97)" fill="#121214" fill-rule="evenodd"/>
  </g>
  <g id="Составная_фигура-19" data-name="Составная фигура">
    <path d="M140.81,231.21H106.26a31.8,31.8,0,0,0,0,63.6h34.55a31.8,31.8,0,0,0,0-63.6Zm0,60.06H106.26a28.26,28.26,0,0,1,0-56.52h34.55a28.26,28.26,0,0,1,0,56.52Z" transform="translate(-69.98 -72.97)" fill="#fff" fill-rule="evenodd"/>
  </g>
  <g id="Составная_фигура-20" data-name="Составная фигура">
    <rect x="433.68" y="179.02" width="53.03" height="210" fill="#00ffc4"/>
  </g>
  <g id="Составная_фигура-21" data-name="Составная фигура">
    <path d="M145,354.28H110.46a30,30,0,0,0-30,30h0a30,30,0,0,0,30,30H145a30,30,0,0,0,30-30h0A30,30,0,0,0,145,354.28Z" transform="translate(-69.98 -72.97)" fill="#121214" fill-rule="evenodd"/>
  </g>
  <g id="Составная_фигура-22" data-name="Составная фигура">
    <path d="M145,352.51H110.46a31.8,31.8,0,0,0,0,63.59H145a31.8,31.8,0,0,0,0-63.59Zm0,60.05H110.46a28.26,28.26,0,0,1,0-56.51H145a28.26,28.26,0,0,1,0,56.51Z" transform="translate(-69.98 -72.97)" fill="#fff" fill-rule="evenodd"/>
  </g>
  <g id="Составная_фигура-23" data-name="Составная фигура">
    <path d="M136.3,294.23H101.76a30,30,0,0,0,0,60H136.3a30,30,0,0,0,30-30h0A30,30,0,0,0,136.3,294.23Z" transform="translate(-69.98 -72.97)" fill="#121214" fill-rule="evenodd"/>
  </g>
  <g id="Составная_фигура-24" data-name="Составная фигура">
    <path d="M136.3,292.46H101.76a31.8,31.8,0,0,0,0,63.59H136.3a31.8,31.8,0,0,0,0-63.59Zm0,60.05H101.76a28.26,28.26,0,0,1,0-56.51H136.3a28.26,28.26,0,0,1,0,56.51Z" transform="translate(-69.98 -72.97)" fill="#fff" fill-rule="evenodd"/>
  </g>
  <g id="Составная_фигура-25" data-name="Составная фигура">
    <rect x="472.02" y="171.03" width="188.01" height="249.01" fill="#121214"/>
  </g>
  <g id="Составная_фигура-26" data-name="Составная фигура">
    <path d="M589.8,442.32a13.89,13.89,0,1,0,13.89,13.89A13.9,13.9,0,0,0,589.8,442.32Zm0,24.24a10.35,10.35,0,1,1,10.35-10.35A10.36,10.36,0,0,1,589.8,466.56Z" transform="translate(-69.98 -72.97)" fill="#fff" fill-rule="evenodd"/>
  </g>
  <g id="Составная_фигура-27" data-name="Составная фигура">
    <path d="M541.38,242.58V495H728.11c1,0,1.9-1.13,1.9-2.52V242.58Zm186,248.88H544.05V246.11H727.34Z" transform="translate(-69.98 -72.97)" fill="#fff" fill-rule="evenodd"/>
  </g>
  <g id="Составная_фигура-28" data-name="Составная фигура">
    <path d="M248,183.85a2.35,2.35,0,0,0-2.83-1.76,151.12,151.12,0,0,0-56.66,26.37,2.37,2.37,0,0,0-.47,3.31,2.36,2.36,0,0,0,3.3.47,146.5,146.5,0,0,1,54.9-25.56A2.35,2.35,0,0,0,248,183.85Z" transform="translate(-69.98 -72.97)" fill="#fff" fill-rule="evenodd"/>
  </g>
  <g id="Составная_фигура-29" data-name="Составная фигура">
    <path d="M181.14,217.47a2.36,2.36,0,0,0-3.33-.18c-3.76,3.38-7.39,7-10.8,10.73a2.36,2.36,0,0,0,3.49,3.18c3.3-3.62,6.82-7.12,10.46-10.4A2.36,2.36,0,0,0,181.14,217.47Z" transform="translate(-69.98 -72.97)" fill="#fff" fill-rule="evenodd"/>
  </g>
</svg>
