<?xml version="1.0" encoding="utf-8"?>
<!-- Generator: Adobe Illustrator 22.1.0, SVG Export Plug-In . SVG Version: 6.00 Build 0)  -->
<svg version="1.1" id="Layer_1" xmlns="http://www.w3.org/2000/svg" xmlns:xlink="http://www.w3.org/1999/xlink" x="0px" y="0px"
	 viewBox="0 0 512 512" style="enable-background:new 0 0 512 512;" xml:space="preserve">
<style type="text/css">
	.st0{fill:#00FFC4;}
	.st1{fill:#121214;}
</style>
<g>
	<g>
		<rect x="251.1" y="356.3" width="14.8" height="23.4"/>
	</g>
</g>
<g>
	<g>
		<polygon class="st0" points="434.2,386.9 434.2,325.9 377.9,325.9 377.9,386.9 316.9,386.9 316.9,443.2 377.9,443.2 377.9,504.1 
			434.2,504.1 434.2,443.2 495.1,443.2 495.1,386.9 		"/>
	</g>
</g>
<g>
	<g>
		<path class="st1" d="M440.6,380.9v-62.3h-28.8c-9.3-60.5-53.6-109.6-111.6-125.8c34.9-15.9,59.2-51.1,59.2-91.9
			C359.4,45.3,314.1,0,258.5,0S157.6,45.3,157.6,100.9c0,40.8,24.3,76,59.2,91.9c-65.3,18.3-113.4,78.3-113.4,149.4v107.2h206.2v0.2
			h62.3V512h68.7v-62.3h62.3v-68.7H440.6z M258.5,14.8c47.5,0,86.2,38.6,86.2,86.2c0,0.4,0,0.7,0,1.1
			c-57.4-1.5-91.5-20.8-104.8-30.1c6.4-7.7,9.2-13.3,9.5-13.9l-13.3-6.4c-0.2,0.3-15.4,30.8-63.7,47.8
			C173.2,52.6,211.5,14.8,258.5,14.8z M173.4,114.6c26.2-8.6,44.2-20.9,56.1-31.9c13.8,10.3,50.4,32.2,113.6,34.1
			c-7.5,40-42.6,70.3-84.7,70.3C215.6,187.1,180,155.6,173.4,114.6z M300,208.1l-41.5,47.6l-41.5-47.6c13.1-4.1,27.1-6.3,41.5-6.3
			C272.9,201.8,286.9,204,300,208.1z M309.5,380.9v53.7l-126,0v-87.8h-14.8v87.8h-50.7v-92.5c0-57.4,34.6-106.8,84.1-128.6
			l48.9,56.1v66.7h14.8v-66.7l48.9-56.1c42.5,18.7,74.1,57.9,82.1,105h-25v62.3h-23.7v-34h-14.8v34H309.5z M488.2,434.9h-62.3v62.3
			h-39.2v-62.3h-62.3v-39.2h62.3v-62.3h39.2v62.3h62.3V434.9z"/>
	</g>
</g>
<g>
	<g>
		<rect x="68.9" y="195.9" class="st1" width="14.8" height="16.3"/>
	</g>
</g>
<g>
	<g>
		<rect y="303.9" class="st1" width="14.8" height="16.3"/>
	</g>
</g>
<g>
	<g>
		<rect x="59.9" y="383.9" class="st1" width="14.8" height="16.3"/>
	</g>
</g>
<g>
	<g>
		<rect x="108.2" y="122.6" class="st1" width="14.8" height="16.3"/>
	</g>
</g>
<g>
	<g>
		<rect x="37.2" y="64" class="st1" width="14.8" height="16.3"/>
	</g>
</g>
<g>
	<g>
		<rect x="103.3" y="22.7" class="st1" width="14.8" height="16.3"/>
	</g>
</g>
<g>
	<g>
		<rect x="437.4" y="195.9" class="st1" width="14.8" height="16.3"/>
	</g>
</g>
<g>
	<g>
		<rect x="497.2" y="303.9" class="st1" width="14.8" height="16.3"/>
	</g>
</g>
<g>
	<g>
		<rect x="398" y="122.6" class="st1" width="14.8" height="16.3"/>
	</g>
</g>
<g>
	<g>
		<rect x="469.1" y="64" class="st1" width="14.8" height="16.3"/>
	</g>
</g>
<g>
	<g>
		<rect x="403" y="22.7" class="st1" width="14.8" height="16.3"/>
	</g>
</g>
</svg>
