<?xml version="1.0" encoding="utf-8"?>
<!-- Generator: Adobe Illustrator 22.1.0, SVG Export Plug-In . SVG Version: 6.00 Build 0)  -->
<svg version="1.1" id="Layer_1" xmlns="http://www.w3.org/2000/svg" xmlns:xlink="http://www.w3.org/1999/xlink" x="0px" y="0px"
	 viewBox="0 0 512 512" style="enable-background:new 0 0 512 512;" xml:space="preserve">
<style type="text/css">
	.st0{fill:#00FFC4;}
	.st1{fill:#121214;}
</style>
<g>
	<g>
		<path class="st0" d="M333.8,49.9c-16.3-25.8-45-43-77.8-43c-50.8,0-91.9,41.2-91.9,91.9c0,1.9,0.1,3.8,0.2,5.7
			c13.5-3.4,31.6-9.6,48.2-20.4c5.8-3.8,11.4-8.2,16.6-13.2c0,0,36,36.6,118.6,33.6c0.1-1.9,0.2-3.7,0.2-5.6
			C347.9,80.9,342.7,64.1,333.8,49.9z"/>
	</g>
</g>
<g>
	<g>
		<path class="st1" d="M378.5,202.7l-20,20c-17.6-16.4-38.9-28.4-61.9-34.9c33.7-15.6,57.1-49.7,57.1-89.2c0-54.1-44-98.2-98.2-98.2
			s-98.2,44-98.2,98.2c0,39.4,23.4,73.5,57,89.1c-22.8,6.4-43.8,18.2-61.5,34.7l-20.3-20.3L0,334.6l43.1,43.1l18.8-18.8L78,375.1
			l19.5-19.5l39.6,39.6L119.4,413l35.5,35.5l0,0l25.2,25.2l0,0l24.3,24.3l5.6-5.7l19.1,19.1l22.7-22.7l21.4,21.4l21.4-21.4l8.3,8.3
			l31.5-31.5l26.5-26.5l32-32l-15.4-15.4l35.9-35.9l19.8,19.8l16-16l18.8,18.8l43.1-43.1L378.5,202.7z M310.2,208.4
			c13.8,6.1,26.6,14.4,37.8,24.8l-21.3,21.3H270L310.2,208.4z M255.5,248.7l-40-45.9c12.8-3.9,26.3-6,40-6c13.6,0,27.1,2.1,39.9,6
			L255.5,248.7z M255.5,15.2c46,0,83.4,37.4,83.4,83.4c0,0.3,0,0.6,0,0.8c-55.3-1.5-88.3-20-101.2-29.1c6.2-7.4,8.8-12.8,9.1-13.4
			l-13.3-6.4c-0.2,0.3-14.9,29.7-61.5,46.2C173.1,51.7,210.1,15.2,255.5,15.2z M173.1,112.1c25.3-8.3,42.7-20.2,54.2-30.9
			c13.5,10.1,49,31.2,110.1,33c-7.3,38.6-41.3,67.9-82,67.9C214,182.1,179.6,151.7,173.1,112.1z M200.7,208.3l40.2,46.1h-56.2
			l-21.5-21.5C174.4,222.6,187.1,214.3,200.7,208.3z M92.6,339.7L92.6,339.7L78,354.2l-5.7-5.7l62.4-62.4l-10.4-10.4l-67.7,67.7
			l-13.6,13.6l-22.2-22.2L132.5,223l38.4,38.4L92.6,339.7z M154.9,427.7L140.2,413l31.4-31.4l14.7,14.7L154.9,427.7z M179.3,452.1
			l-13.9-13.9l31.4-31.4l13.9,13.9L179.3,452.1z M203.6,476.4l-13-13.1l31.4-31.4l13.1,13.1L203.6,476.4z M229.1,490.7l-8.7-8.7
			l20.1-20.1l8.7,8.7L229.1,490.7z M273.2,489.3l-10.9-10.9l7.8-7.8L251,451.5l3.2-3.2l7.1,7.1l-0.1,0.1l23,23L273.2,489.3z
			 M367,381.2l-82.4-82.4l-57.4,57.4l-31.3-31.3l36.6-36.6L222,277.9l-47,47l52.2,52.2l57.4-57.4l64.4,64.4l23,23l-15.8,15.8
			l-38.5-38.5l-10.4,10.4l38.5,38.5l-16.4,16.4l-38.5-38.5l-10.4,10.4l38.5,38.5l-16.1,16.1l-38.5-38.5l-8,8L196.8,386l-25.2-25.2
			l-24,24L108,345.2l76-76h142.8l76.2,76.2L367,381.2z M454.3,343.8l-67.7-67.7l-10.4,10.4l62.4,62.4l-5.6,5.6l-9.3-9.3l-83.5-83.5
			l38.3-38.3l111.6,111.6l-22.2,22.2L454.3,343.8z"/>
	</g>
</g>
<g>
	<g>
		
			<rect x="360.6" y="261.8" transform="matrix(0.7071 -0.7071 0.7071 0.7071 -81.6684 338.6933)" class="st1" width="14.7" height="12.2"/>
	</g>
</g>
<g>
	<g>
		
			<rect x="136.8" y="260" transform="matrix(0.7072 -0.707 0.707 0.7072 -147.1944 179.3591)" class="st1" width="12.2" height="14.7"/>
	</g>
</g>
<g>
	<g>
		<rect x="497.3" y="79.7" class="st1" width="14.7" height="16"/>
	</g>
</g>
<g>
	<g>
		<rect x="443.2" y="109.7" class="st1" width="14.7" height="16"/>
	</g>
</g>
<g>
	<g>
		<rect x="400.9" y="45.8" class="st1" width="14.7" height="16"/>
	</g>
</g>
<g>
	<g>
		<rect x="443.2" y="14.9" class="st1" width="14.7" height="16"/>
	</g>
</g>
<g>
	<g>
		<rect x="368.9" y="133.1" class="st1" width="14.7" height="16"/>
	</g>
</g>
<g>
	<g>
		<rect x="441.8" y="182.7" class="st1" width="14.7" height="16"/>
	</g>
</g>
<g>
	<g>
		<rect x="1" y="79.7" class="st1" width="14.7" height="16"/>
	</g>
</g>
<g>
	<g>
		<rect x="55.1" y="109.7" class="st1" width="14.7" height="16"/>
	</g>
</g>
<g>
	<g>
		<rect x="97.3" y="45.8" class="st1" width="14.7" height="16"/>
	</g>
</g>
<g>
	<g>
		<rect x="55.1" y="14.9" class="st1" width="14.7" height="16"/>
	</g>
</g>
<g>
	<g>
		<rect x="129.4" y="133.1" class="st1" width="14.7" height="16"/>
	</g>
</g>
<g>
	<g>
		<rect x="56.5" y="182.7" class="st1" width="14.7" height="16"/>
	</g>
</g>
<g>
	<g>
		<path class="st1" d="M378.5,202.7l-20,20c-17.6-16.4-38.9-28.4-61.9-34.9c33.7-15.6,57.1-49.7,57.1-89.2c0-54.1-44-98.2-98.2-98.2
			s-98.2,44-98.2,98.2c0,39.4,23.4,73.5,57,89.1c-22.8,6.4-43.8,18.2-61.5,34.7l-20.3-20.3L0,334.6l43.1,43.1l18.8-18.8L78,375.1
			l19.5-19.5l39.6,39.6L119.4,413l35.5,35.5l0,0l25.2,25.2l0,0l24.3,24.3l5.6-5.7l19.1,19.1l22.7-22.7l21.4,21.4l21.4-21.4l8.3,8.3
			l31.5-31.5l26.5-26.5l32-32l-15.4-15.4l35.9-35.9l19.8,19.8l16-16l18.8,18.8l43.1-43.1L378.5,202.7z M310.2,208.4
			c13.8,6.1,26.6,14.4,37.8,24.8l-21.3,21.3H270L310.2,208.4z M255.5,248.7l-40-45.9c12.8-3.9,26.3-6,40-6c13.6,0,27.1,2.1,39.9,6
			L255.5,248.7z M255.5,15.2c46,0,83.4,37.4,83.4,83.4c0,0.3,0,0.6,0,0.8c-55.3-1.5-88.3-20-101.2-29.1c6.2-7.4,8.8-12.8,9.1-13.4
			l-13.3-6.4c-0.2,0.3-14.9,29.7-61.5,46.2C173.1,51.7,210.1,15.2,255.5,15.2z M173.1,112.1c25.3-8.3,42.7-20.2,54.2-30.9
			c13.5,10.1,49,31.2,110.1,33c-7.3,38.6-41.3,67.9-82,67.9C214,182.1,179.6,151.7,173.1,112.1z M200.7,208.3l40.2,46.1h-56.2
			l-21.5-21.5C174.4,222.6,187.1,214.3,200.7,208.3z M92.6,339.7L92.6,339.7L78,354.2l-5.7-5.7l62.4-62.4l-10.4-10.4l-67.7,67.7
			l-13.6,13.6l-22.2-22.2L132.5,223l38.4,38.4L92.6,339.7z M154.9,427.7L140.2,413l31.4-31.4l14.7,14.7L154.9,427.7z M179.3,452.1
			l-13.9-13.9l31.4-31.4l13.9,13.9L179.3,452.1z M203.6,476.4l-13-13.1l31.4-31.4l13.1,13.1L203.6,476.4z M229.1,490.7l-8.7-8.7
			l20.1-20.1l8.7,8.7L229.1,490.7z M273.2,489.3l-10.9-10.9l7.8-7.8L251,451.5l3.2-3.2l7.1,7.1l-0.1,0.1l23,23L273.2,489.3z
			 M367,381.2l-82.4-82.4l-57.4,57.4l-31.3-31.3l36.6-36.6L222,277.9l-47,47l52.2,52.2l57.4-57.4l64.4,64.4l23,23l-15.8,15.8
			l-38.5-38.5l-10.4,10.4l38.5,38.5l-16.4,16.4l-38.5-38.5l-10.4,10.4l38.5,38.5l-16.1,16.1l-38.5-38.5l-8,8L196.8,386l-25.2-25.2
			l-24,24L108,345.2l76-76h142.8l76.2,76.2L367,381.2z M454.3,343.8l-67.7-67.7l-10.4,10.4l62.4,62.4l-5.6,5.6l-9.3-9.3l-83.5-83.5
			l38.3-38.3l111.6,111.6l-22.2,22.2L454.3,343.8z"/>
	</g>
</g>
<g>
	<g>
		
			<rect x="360.6" y="261.8" transform="matrix(0.7071 -0.7071 0.7071 0.7071 -81.6684 338.6933)" class="st1" width="14.7" height="12.2"/>
	</g>
</g>
<g>
	<g>
		
			<rect x="136.8" y="260" transform="matrix(0.7072 -0.707 0.707 0.7072 -147.1771 179.3428)" class="st1" width="12.2" height="14.7"/>
	</g>
</g>
<g>
	<g>
		<rect x="497.3" y="79.7" class="st1" width="14.7" height="16"/>
	</g>
</g>
<g>
	<g>
		<rect x="443.2" y="109.7" class="st1" width="14.7" height="16"/>
	</g>
</g>
<g>
	<g>
		<rect x="400.9" y="45.8" class="st1" width="14.7" height="16"/>
	</g>
</g>
<g>
	<g>
		<rect x="443.2" y="14.9" class="st1" width="14.7" height="16"/>
	</g>
</g>
<g>
	<g>
		<rect x="368.9" y="133.1" class="st1" width="14.7" height="16"/>
	</g>
</g>
<g>
	<g>
		<rect x="441.8" y="182.7" class="st1" width="14.7" height="16"/>
	</g>
</g>
<g>
	<g>
		<rect x="1" y="79.7" class="st1" width="14.7" height="16"/>
	</g>
</g>
<g>
	<g>
		<rect x="55.1" y="109.7" class="st1" width="14.7" height="16"/>
	</g>
</g>
<g>
	<g>
		<rect x="97.3" y="45.8" class="st1" width="14.7" height="16"/>
	</g>
</g>
<g>
	<g>
		<rect x="55.1" y="14.9" class="st1" width="14.7" height="16"/>
	</g>
</g>
<g>
	<g>
		<rect x="129.4" y="133.1" class="st1" width="14.7" height="16"/>
	</g>
</g>
<g>
	<g>
		<rect x="56.5" y="182.7" class="st1" width="14.7" height="16"/>
	</g>
</g>
</svg>
