<svg id="Hand" xmlns="http://www.w3.org/2000/svg" viewBox="0 0 160.01 326.37">
  <title>06_hand</title>
  <g id="Составная_фигура" data-name="Составная фигура">
    <path d="M216.5,104.46a38.25,38.25,0,0,0-22.18-34.18l-19.69-9.05a38.32,38.32,0,0,0-46.6,12L78.38,139C72,147.6,75,159.37,83.67,165.75a19.46,19.46,0,0,0,27.21-4.07l48.05-64.9,18.68,8.59.23,21.93a19.46,19.46,0,0,0,38.91-.42Z" transform="translate(-71.53 -56.63)" fill="#fff" fill-rule="evenodd"/>
  </g>
  <g id="Составная_фигура-2" data-name="Составная фигура">
    <path d="M217.65,104.45A39.41,39.41,0,0,0,194.8,69.24l-19.69-9a39.47,39.47,0,0,0-48,12.3l-49.65,65.8A18.55,18.55,0,0,0,74,152.17,22.41,22.41,0,0,0,83,166.67a20.45,20.45,0,0,0,12.23,4h.23a20.46,20.46,0,0,0,16.35-8.34l47.5-64.15,17.17,7.9.23,21.21a20.6,20.6,0,0,0,41.19-.45Zm-7.27,35.43A18.31,18.31,0,0,1,179,127.29l-.25-22.66-20.17-9.27L110,161a18.33,18.33,0,0,1-25.61,3.83,20.14,20.14,0,0,1-8-13,16.05,16.05,0,0,1,3-12.17L129,73.86a37.14,37.14,0,0,1,29.83-15,36.76,36.76,0,0,1,15.38,3.36l19.68,9a37.09,37.09,0,0,1,21.52,33.15l.24,22.42A18.12,18.12,0,0,1,210.38,139.88Z" transform="translate(-71.53 -56.63)" fill="#121214" fill-rule="evenodd"/>
  </g>
  <g id="Составная_фигура-3" data-name="Составная фигура">
    <path d="M210.35,225.44c-2.59-7-7.57-15.28-14.07-23.89-23.12-30.7-65.35-66.11-86.16-68.45-4.9-.55-36.64,23.66-36.64,23.66l29.69,133.93v30.65H205.85V286.55a43.89,43.89,0,0,0,2.5-4.64A73.07,73.07,0,0,0,210.35,225.44Z" transform="translate(-71.53 -56.63)" fill="#fff" fill-rule="evenodd"/>
  </g>
  <g id="Составная_фигура-4" data-name="Составная фигура">
    <path d="M211.42,225c-2.54-6.89-7.32-15-14.22-24.18C174.7,171,131.82,134.39,110.25,132c-5.08-.54-32.1,19.8-37.47,23.89l-.58.45L102,290.82v31.66H207V286.89a48.72,48.72,0,0,0,2.39-4.49h0A74.69,74.69,0,0,0,211.42,225Zm-4.11,56.38a44.6,44.6,0,0,1-2.42,4.51l-.19.28v34H104.32V290.57L74.75,157.23C90,145.61,107.22,134,110,134.24c21,2.36,63.16,38.49,85.38,68,6.67,8.84,11.48,17,13.9,23.59A72.45,72.45,0,0,1,207.31,281.42Z" transform="translate(-71.53 -56.63)" fill="#121214" fill-rule="evenodd"/>
  </g>
  <g id="new_vector_shape_done">
    <path d="M217,130c-12.16-18.46-18.71-34.36-50-34-2.15,1.66-5.6,1-8.5,2a86.34,86.34,0,0,0-9.5,4c-17,8.45-35,16.56-52,25-8.24,4.1-17.35,5.91-22,13.5-3.18,5.18-1.81,11.6-1,17.5l.5.5a147.54,147.54,0,0,0,22-3.5c7.06-1.71,14.11-1.44,20.5-3,6.8-1.66,13.86-1.5,20-3h4.5c5.35-1.7,11.06-5.54,16-8,4.5-2.25,9.66-3.07,13.5-6,6.33.64,7.31,6.72,10,11,5.95,9.47,15.2,28.75,32.5,20,3.32-1.68,6.46-3.14,8.5-6C230,148.84,222.16,137.83,217,130Z" transform="translate(-71.53 -56.63)" fill="#fff" fill-rule="evenodd"/>
  </g>
  <g id="Составная_фигура-5" data-name="Составная фигура">
    <path d="M223.37,138.67l-13.1-21.16a45.13,45.13,0,0,0-57.43-17.14L83.43,132.72a20.54,20.54,0,0,0-10,27.34,1.14,1.14,0,0,0,2.07-1,18.27,18.27,0,0,1,8.85-24.3l69.41-32.35a42.85,42.85,0,0,1,54.51,16.27l13.1,21.17a18.27,18.27,0,0,1-6,25.16,18.33,18.33,0,0,1-25.19-5.95l-13.1-21.16a6.18,6.18,0,0,0-7.88-2.35l-27.77,12.94a1.14,1.14,0,1,0,1,2.07l27.77-12.94a3.91,3.91,0,0,1,5,1.48l13.1,21.17a20.59,20.59,0,1,0,35.05-21.63Z" transform="translate(-71.53 -56.63)" fill="#121214" fill-rule="evenodd"/>
  </g>
  <g id="new_vector_shape_done-2" data-name="new_vector_shape_done">
    <path d="M227,167c-1-3.91-.7-7-2-10.5-6.28-17-20.18-26.72-44-26.5-3.26,2.84-14.53,3.48-19.5,5-12.64,3.88-27,6.8-39.5,11-6.56,2.21-13.2,2.59-19,5-8.4,3.49-11.65,7.31-14,17-.27,1.11-.72,2.8,0,4,.55,4.55,15.44,7.27,20,9,3.63,1.38,8.26,3.83,12,5,4.5,1.41,10-2,13-3,11.11-3.67,22.49-5.47,33-9,5.47-1.84,14.4-1.95,18.5-5,1.16.11,1.41.1,2,.5,3.15,4.21,2.58,14.34,4.5,20,4.45,13.13,24.92,19.75,34.5,6.5C232.36,187.9,229.5,176.63,227,167Z" transform="translate(-71.53 -56.63)" fill="#fff" fill-rule="evenodd"/>
  </g>
  <g id="Составная_фигура-6" data-name="Составная фигура">
    <path d="M231.09,179.55l-3.83-18.05a41.15,41.15,0,0,0-51.06-31.13L104.26,149.1A23.74,23.74,0,0,0,91,158.78a19.2,19.2,0,0,0-2.89,15.8,1.14,1.14,0,0,0,1.4.8,1.16,1.16,0,0,0,.81-1.41,16.89,16.89,0,0,1,2.59-13.92,21.36,21.36,0,0,1,12-8.74l71.94-18.73A38.85,38.85,0,0,1,225,162L228.85,180a18.28,18.28,0,0,1-14.12,21.67,18.82,18.82,0,0,1-3.81.4A18.37,18.37,0,0,1,193,187.6l-3.83-18a2.14,2.14,0,0,0-1-1.46,2.21,2.21,0,0,0-1.75-.25l-63.75,17.37a1.14,1.14,0,0,0,.6,2.2L187,170l3.83,18.06a20.59,20.59,0,0,0,24.42,15.86,20.59,20.59,0,0,0,15.88-24.39Z" transform="translate(-71.53 -56.63)" fill="#121214" fill-rule="evenodd"/>
  </g>
  <g id="new_vector_shape_done-3" data-name="new_vector_shape_done">
    <path d="M200.5,169c-4.35-1.5-10.4-1.08-16-1-3.85,2.76-10.69,2.45-15.5,4-10.23,3.3-21.89,5.61-32,9-3.55,1.19-6.6.7-10,2a23,23,0,0,0-10.5,9c-1,1.84-1.14,4.5-2.5,6a39.59,39.59,0,0,0,1,10.5c12.53,2.7,25.89,4.37,38,7.5,4.26,1.1,10.35.11,13-2h.5c-.48,3.25-2,6.94-1.5,10,2.05,11.59,5.33,14.62,15.5,18,1.24.41,3.93,1.74,6.5,1,6-1.73,10.6-5.37,15.5-8,7.64-4.1,14.4-8,18.5-15.5C233.17,197.28,217.8,175,200.5,169Z" transform="translate(-71.53 -56.63)" fill="#fff" fill-rule="evenodd"/>
  </g>
  <g id="Составная_фигура-7" data-name="Составная фигура">
    <path d="M192.74,206.84a1.14,1.14,0,0,0-1.41-.8l-24.52,6.72a1.15,1.15,0,0,0,.3,2.25,1.65,1.65,0,0,0,.31,0l24.52-6.72A1.15,1.15,0,0,0,192.74,206.84Z" transform="translate(-71.53 -56.63)" fill="#121214" fill-rule="evenodd"/>
  </g>
  <g id="Составная_фигура-8" data-name="Составная фигура">
    <path d="M158.22,84.37a1.15,1.15,0,0,0-2.27.34L157.8,97a1.16,1.16,0,0,0,1.13,1h.17a1.16,1.16,0,0,0,1-1.31Z" transform="translate(-71.53 -56.63)" fill="#121214" fill-rule="evenodd"/>
  </g>
  <g id="Составная_фигура-9" data-name="Составная фигура">
    <path d="M226,199.47a35.84,35.84,0,0,0-46-31.25L128.9,181.61a21.43,21.43,0,0,0-15,27.22,1.15,1.15,0,0,0,1.44.74,1.14,1.14,0,0,0,.74-1.44,19.14,19.14,0,0,1,13.41-24.31l51.2-13.39a33.5,33.5,0,0,1,25.73,61.49l-13.47,7.35a18.29,18.29,0,0,1-24.82-24.86l1.34-2.45-11.78,3.54a1.14,1.14,0,1,0,.66,2.19l6.65-2a20.58,20.58,0,0,0,19.18,28.11c.58,0,1.17,0,1.76-.07a20.43,20.43,0,0,0,8.1-2.45l13.48-7.35A35.79,35.79,0,0,0,226,199.47Z" transform="translate(-71.53 -56.63)" fill="#121214" fill-rule="evenodd"/>
  </g>
  <g id="Составная_фигура-10" data-name="Составная фигура">
    <rect x="22.22" y="259.52" width="123.43" height="33.62" fill="#00ffc4"/>
  </g>
  <g id="Составная_фигура-11" data-name="Составная фигура">
    <path d="M93,315v47H219V315ZM216.7,359H95.28V318H216.7Z" transform="translate(-71.53 -56.63)" fill="#121214" fill-rule="evenodd"/>
  </g>
  <g id="Составная_фигура-12" data-name="Составная фигура">
    <rect x="12.45" y="282.38" width="143.02" height="43.99" fill="#121214"/>
  </g>
  <g id="Составная_фигура-13" data-name="Составная фигура">
    <path d="M209.5,356a5.5,5.5,0,1,0,5.5,5.5A5.5,5.5,0,0,0,209.5,356Z" transform="translate(-71.53 -56.63)" fill="#fff" fill-rule="evenodd"/>
  </g>
  <g id="new_vector_shape_done-4" data-name="new_vector_shape_done">
    <path d="M208,266c-.72-2.54-.16-3.75-1-6-5.56-14.95-16.61-25.81-27.5-35.5-3.44-3.06-7.93-5.62-10.5-9.5-.5,0-7.5,2-8,2,1.92,4.58-6.84,8.35-5,13,7.24,18.32,31.09,35.92,38,54,2.45,6.42,2.72,14.05,5,20,1.48,3.87-2.25,6.91,0,10,0,.33,3,.67,3,1h5c0-12.21.73-20.16,3-29.5C211.63,278.79,209.27,270.5,208,266Z" transform="translate(-71.53 -56.63)" fill="#fff" fill-rule="evenodd"/>
  </g>
  <g id="Составная_фигура-14" data-name="Составная фигура">
    <path d="M192.47,235.84c-15.89-15.57-24.54-22.79-24.62-22.86a1.15,1.15,0,1,0-1.47,1.76c.09.07,8.67,7.24,24.49,22.73,28.45,27.89,14.06,63.33,13.92,63.68l-.09.21v14.79a1.15,1.15,0,0,0,2.29,0V301.81C208.2,298.67,220.85,263.65,192.47,235.84Z" transform="translate(-71.53 -56.63)" fill="#121214" fill-rule="evenodd"/>
  </g>
</svg>
