<svg id="Illustration" xmlns="http://www.w3.org/2000/svg" viewBox="0 0 759.83 713.45">
  <title>07_mountains</title>
  <g id="Mountain">
    <g id="Составная_фигура" data-name="Составная фигура">
      <polygon points="654.24 547.38 552.52 712.55 758.2 712.55 654.24 547.38" fill="#121214" fill-rule="evenodd"/>
    </g>
    <g id="Составная_фигура-2" data-name="Составная фигура">
      <path d="M716,583.34,612.72,751.12H821.63Zm0,3.41L818.38,749.32H615.94Z" transform="translate(-61.81 -37.67)" fill="#121214" fill-rule="evenodd"/>
    </g>
  </g>
  <g id="Cloud">
    <g id="Составная_фигура-3" data-name="Составная фигура">
      <path d="M670.16,358.18a33.73,33.73,0,0,0-27.26-13.82,33,33,0,0,0-6.41.62c0-.89.06-1.77.06-2.65A69,69,0,0,0,603,283.09h0a69.09,69.09,0,0,0-102.81,43.67h0l0,.13a44.31,44.31,0,0,0-5-.31,42.65,42.65,0,0,0-37.24,63.48h0a42.65,42.65,0,0,0,34.44,21.73v.11H642.9a33.77,33.77,0,0,0,27.26-53.72Z" transform="translate(-61.81 -37.67)" fill="#fff" fill-rule="evenodd"/>
    </g>
    <g id="Составная_фигура-4" data-name="Составная фигура">
      <path d="M671.16,357.44h0a35.19,35.19,0,0,0-28.26-14.33,33.52,33.52,0,0,0-5.11.38c0-.39,0-.78,0-1.16a70.32,70.32,0,0,0-114.4-54.78,70.64,70.64,0,0,0-24.21,38c-1.4-.13-2.77-.2-4.09-.2A43.9,43.9,0,0,0,491.05,413v.2H642.9a35.07,35.07,0,0,0,35-35A34.68,34.68,0,0,0,671.16,357.44ZM642.9,410.65H493.55l-1.17-.1a41.4,41.4,0,0,1,2.72-82.72,43.94,43.94,0,0,1,4.9.3l1.11,0,.27-1.06.05-.21a67.85,67.85,0,0,1,100.92-42.74,67.34,67.34,0,0,1,32.95,58.17c0,.87,0,1.73-.06,2.6l0,1.58,1.54-.31a32.54,32.54,0,0,1,32.42,12.72h0a32.2,32.2,0,0,1,6.28,19.21A32.56,32.56,0,0,1,642.9,410.65Z" transform="translate(-61.81 -37.67)" fill="#121214" fill-rule="evenodd"/>
    </g>
  </g>
  <g id="Cloud-2" data-name="Cloud">
    <g id="Составная_фигура-5" data-name="Составная фигура">
      <path d="M310,436.12a21.68,21.68,0,0,0-21.65-8.49c0-.57,0-1.14,0-1.7a44.36,44.36,0,0,0-21.58-38.09h0a44.41,44.41,0,0,0-66.1,28.08h0a.29.29,0,0,0,0,.08,29.08,29.08,0,0,0-3.25-.2,27.43,27.43,0,0,0-23.95,40.82h0a27.43,27.43,0,0,0,22.15,14v.07H292.5A21.72,21.72,0,0,0,310,436.12Z" transform="translate(-61.81 -37.67)" fill="#fff" fill-rule="evenodd"/>
    </g>
    <g id="Составная_фигура-6" data-name="Составная фигура">
      <path d="M311,435.38A23.07,23.07,0,0,0,292.5,426a22.4,22.4,0,0,0-2.83.18v-.23a45.66,45.66,0,0,0-89.91-11.28c-.78-.06-1.55-.1-2.29-.1a28.68,28.68,0,0,0-2.29,57.26,1.16,1.16,0,0,0,.49.1H292.5a23,23,0,0,0,23-23A22.71,22.71,0,0,0,311,435.38Zm-18.53,34H196.07a1.13,1.13,0,0,0-.32-.06,26.18,26.18,0,0,1,1.72-52.3,28,28,0,0,1,3.1.19,1.34,1.34,0,0,0,1.37-1l0-.05a43.16,43.16,0,0,1,85.21,9.73c0,.55,0,1.11,0,1.66a1.26,1.26,0,0,0,1.49,1.27,20.17,20.17,0,0,1,3.88-.38A20.55,20.55,0,0,1,309,436.86h0a20.46,20.46,0,0,1-16.52,32.55Z" transform="translate(-61.81 -37.67)" fill="#121214" fill-rule="evenodd"/>
    </g>
  </g>
  <g id="Mountain-2" data-name="Mountain">
    <g id="Составная_фигура-7" data-name="Составная фигура">
      <path d="M585.93,535c-11.76-17.67-23.77-35.62-35.67-53.35C484.14,383.25,421.06,291.5,419.75,291.5h0a7.8,7.8,0,0,0-7,4.41L336.38,404.69l-1.34,1.9-32-5a7.8,7.8,0,0,0-13.22,1.5L228,498.14,62.56,750.22H730.67S659.35,645.3,585.93,535Z" transform="translate(-61.81 -37.67)" fill="#121214" fill-rule="evenodd"/>
    </g>
    <g id="Составная_фигура-8" data-name="Составная фигура">
      <path d="M732.37,751.12l-1-1.41c-.72-1-72.16-106.17-144.74-215.18-11.17-16.78-23.17-34.73-35.67-53.35-30.92-46-63.57-94.15-89.57-132-40.22-58.57-41-58.57-41.7-58.57a8.72,8.72,0,0,0-7.8,4.86l-76.3,108.71-1,1.45-31.09-4.89a8.7,8.7,0,0,0-14.49,1.9l-61.8,95L61.81,749.73l.29.19v1.2ZM228.75,498.63l61.84-95.07.07-.11a6.9,6.9,0,0,1,11.69-1.33l.21.28,32.89,5.17,78-111.14.07-.13a6.72,6.72,0,0,1,2.47-2.79,6.83,6.83,0,0,1,3.43-1.1c4.5,4.93,64.35,91.92,130.08,189.77C562,500.81,574,518.75,585.18,535.53,653.21,637.7,720.24,736.45,729,749.32H64.23Z" transform="translate(-61.81 -37.67)" fill="#121214" fill-rule="evenodd"/>
    </g>
    <g id="Составная_фигура-9" data-name="Составная фигура">
      <path d="M419.21,292.92a6.39,6.39,0,0,0-2.94,1,6.26,6.26,0,0,0-2.29,2.58l-.05.11L335.68,408.11l-33.39-5.25-.34-.44a6.33,6.33,0,0,0-5-2.46,6.13,6.13,0,0,0-.74.05,6.38,6.38,0,0,0-5.07,3.65l0,.09L229.69,498.1l11.83,16.59,40-55.37,19.27,21.11,19-20,57.42,60.94,44.44-54.62L469,499.06l17.06-20.35,15.08,12.07L520.44,463l25.33,14.47C482.2,383,424.63,299.27,419.21,292.92Z" transform="translate(-61.81 -37.67)" fill="#fff" fill-rule="evenodd"/>
    </g>
  </g>
  <g id="Man">
    <g id="new_vector_shape_done">
      <path d="M367.5,86H362a58.05,58.05,0,0,1-6,5.5,4.29,4.29,0,0,1-.5,2.5v42.5C350,134.89,346.58,128,342,125l-.5-.5c-1.83,3.85-4.71,14-7.5,16.5.63,3.23,3.09,3.63,5,5.5,4.14,4.06,10.64,12.32,16,14.5,1.68.68,5.4,1.92,8,1,3.31-1.16,7.25-3.69,9-6.5.92-1.48.93-3.26,2-4.5V92.5C372.81,89.48,369.43,88.26,367.5,86Z" transform="translate(-61.81 -37.67)" fill="#fff" fill-rule="evenodd"/>
    </g>
    <g id="Составная_фигура-10" data-name="Составная фигура">
      <path d="M364.73,84.93a10.2,10.2,0,0,0-10.19,10.19V135l-12.32-11.51a1.13,1.13,0,1,0-1.54,1.66L356.8,140.2V95.12a7.93,7.93,0,0,1,15.85,0V148.2a12.37,12.37,0,0,1-20.82,9l-17.05-15.93a1.13,1.13,0,1,0-1.54,1.65l17,15.94a14.64,14.64,0,0,0,24.64-10.7V95.12A10.2,10.2,0,0,0,364.73,84.93Z" transform="translate(-61.81 -37.67)" fill="#121214" fill-rule="evenodd"/>
    </g>
    <g id="new_vector_shape_done-2" data-name="new_vector_shape_done">
      <path d="M413,210c-6.44-8.89-19.74-8.37-32-5-17.52,4.81-38.09,6.09-52.5,14-2.42,1.33-4.31,3.92-6.5,5.5.07,3.42.45,8-1,10a16.56,16.56,0,0,0,.5,5c10.55,1.93,21.83-1.16,30-3.5,9.08-2.61,17.44-2.38,26.5-5,4.13-1.2,8.84-2.95,14-3-.1,11.47.24,25.27-2,35.5V275c-.66,3-2.12,17.36-1,19.5.2,4.54,2.54,3.48,5,5.5h5l1.5-5.5v-1c2,1.37,6.08,1.85,8,3.5a12.34,12.34,0,0,0,4-.5q1.75-29.25,3.5-58.5C416,226.55,418.77,218,413,210Z" transform="translate(-61.81 -37.67)" fill="#fff" fill-rule="evenodd"/>
    </g>
    <g id="new_vector_shape_done-3" data-name="new_vector_shape_done">
      <path d="M417.15,213.63c-3.76-7.62-9.62-12.8-21.25-12.62-.32.23-.73.05-1.22.17-1.12.28-2.36.37-3.57.69-2.93.78-6.23,1.09-9.14,1.9-.85.24-1.52.13-2.35.35-5.24,1.39-11,1.84-16.21,3.29l-1.48.17c-1.18.31-2.64.54-3.83.86l-1.48.18c-1.79.47-3.86.74-5.66,1.21l-1.48.17c-2.55.73-5.19,1.18-7.67,2.08a105.62,105.62,0,0,0-14.45,6c-3,1.61-6.34,3.46-7.23,7.1a3.54,3.54,0,0,0,.17,1.64,12.5,12.5,0,0,1-.17,4c-.25,1-.45,2.23-.7,3.2-.16.61,0,1-.17,1.64a5.8,5.8,0,0,0-.18,2.51,3.37,3.37,0,0,0,1.83,2.25c1.22.51,3.3.17,5,.17,3.09,0,6.48.24,9.14-.34.87-.19,1.52,0,2.35-.18,6.28-1.49,12.75-2.24,18.82-4,.52-.15.86,0,1.39-.17,1.87-.53,4.06-.85,5.92-1.38.78-.23,1.4-.14,2.18-.35,3-.79,6.28-1.23,9.23-2.07.78-.23,1.41-.13,2.18-.35,3-.84,6.28-1.23,9.23-2.08,1.21-.34,4.05-.45,4.88-1a1.09,1.09,0,0,1,.43.08l-.69,11.33-.09,3.12c-.49,2.27,0,5.07-.52,7.35-.23,1,0,2.15-.18,3v2c-.27,1.25-.07,3-.34,4.24v1.9c-.28,1.26-.08,3-.35,4.24v2c-.2.88.05,2-.18,3-.47,2.19-.31,5.32-.52,7.62q-.3,6.09-.61,12.19c-.49,2.25-.21,5.46.7,6.92,1.12,1.8,3.09,2.38,5.48,2.94,1,.24,3-.1,3.75.35h2.26c.62-.35,1.31-3.9,1.4-4.93l.09-.09c3.55.06,5.76,1.35,8.44,2.25a3.52,3.52,0,0,0,3.75-.86c1.32-1.81.55-5.18,1.13-7.79v-1.21a22.79,22.79,0,0,0,.26-3.29v-1.73c.5-2.27,0-5.07.53-7.35.22-1,0-2.14.17-3,.23-1.05,0-2.2.17-3.11l.18-5c.2-.91-.06-2.06.17-3.11s-.05-2.06.18-3.12c.49-2.27,0-5.07.52-7.35.23-1,0-2.2.17-3.11s0-2.15.18-3c.06-1.67.11-3.34.17-5,.5-2.28,0-5.07.52-7.35v-1.9c.29-1.29.07-3,.35-4.33v-1.9C419.57,220.85,418.35,216.06,417.15,213.63Zm-.87,13.07v1.9c-.27,1.26-.07,3-.34,4.24v2c-.2.88,0,2-.18,3-.5,2.28,0,5.08-.52,7.36l-.18,5c-.2.92.06,2.06-.17,3.12-.5,2.28,0,5.08-.52,7.35-.23,1.05,0,2.21-.18,3.11-.13.6,0,1.42-.08,1.91-.31,1.4,0,3-.27,4.32,0,1.68-.11,3.35-.17,5-.5,2.27,0,5.07-.52,7.35-.23,1.06,0,2.2-.18,3.12s0,2.14-.17,3v2c-.42,2,.05,4.18-.87,5.63a7.48,7.48,0,0,1-2.35-.7,21,21,0,0,0-6.36-1.73,5.18,5.18,0,0,0-.61-2.85c-.59-.16-1.25-.4-1.74.09s-.54,1.43-.79,2.24a30.88,30.88,0,0,0-1.22,5.37l-.08.08c-2.68-.06-6.23-.18-7.58-1.64-.7-.75-1.25-3.52-.87-5.28.19-.88-.05-2,.17-3,.5-2.28,0-5.08.53-7.36v-2c.49-2.27,0-5.07.52-7.35.23-1,0-2.2.17-3.11s0-2.15.18-3c.23-1.05,0-2.21.17-3.11.06-1.68.12-3.35.17-5,.5-2.28,0-5.07.53-7.35.23-1.06,0-2.2.17-3.12v-1.9c.28-1.26.07-3,.35-4.24v-2c.27-1.25.07-3,.35-4.24V233c.2-.92-.06-2.06.17-3.11a20,20,0,0,0,.26-4.07,19.79,19.79,0,0,0-3.57.78c-1.65.47-3.33.6-4.88,1-1.31.37-2.5.32-3.83.69-3.2.9-6.81,1.33-10,2.25-2.12.6-4.15.61-6.27,1.21-5.61,1.58-11.74,2.21-17.34,3.81-1.57.44-3,.42-4.61.86a57.25,57.25,0,0,1-15.77,1.82c-1.49,0-5.28.31-6.18-.09a6.71,6.71,0,0,1,.08-3.63c.37-1.39.54-3,.88-4.5.11-.5,0-1.25.08-1.64.24-1.12-.53-2.44-.08-3.46a6.24,6.24,0,0,1,1.74-2.17c6.94-5.2,16.07-7.87,25.6-10.55,1.43-.4,2.75-.32,4.19-.69,5-1.28,10.37-1.79,15.32-3.12.84-.22,1.51-.12,2.36-.34,2.82-.73,5.89-1,8.79-1.73,2.37-.63,5.05-1,7.41-1.56.57-.15.9,0,1.48-.17,3.88-1,9.31-2.11,13.58-.69,5.32,1.76,9.7,5.15,11.85,10,.38.86.53,1.65.87,2.6A21.77,21.77,0,0,1,416.28,226.7Z" transform="translate(-61.81 -37.67)" fill="#121214" fill-rule="evenodd"/>
    </g>
    <g id="Составная_фигура-11" data-name="Составная фигура">
      <path d="M336.12,115.07H308.46A15.43,15.43,0,0,0,293,130.5V215l58.35-3.77v-81A15.24,15.24,0,0,0,336.12,115.07Z" transform="translate(-61.81 -37.67)" fill="#121214" fill-rule="evenodd"/>
    </g>
    <g id="Составная_фигура-12" data-name="Составная фигура">
      <path d="M336.12,113.93H308.46a16.59,16.59,0,0,0-16.58,16.57v85.75l60.63-3.91v-82A16.4,16.4,0,0,0,336.12,113.93Zm14.12,96.28-56.09,3.62V130.5a14.32,14.32,0,0,1,14.31-14.3h27.66a14.13,14.13,0,0,1,14.12,14.11Z" transform="translate(-61.81 -37.67)" fill="#121214" fill-rule="evenodd"/>
    </g>
    <g id="Составная_фигура-13" data-name="Составная фигура">
      <path d="M435.23,288a4.31,4.31,0,0,0-4.11-3.24l-20.25-.33-22,5.64,2.74,10.69a2.79,2.79,0,0,0,3.41,2l37.09-9.51A4.32,4.32,0,0,0,435.23,288Z" transform="translate(-61.81 -37.67)" fill="#121214" fill-rule="evenodd"/>
    </g>
    <g id="Составная_фигура-14" data-name="Составная фигура">
      <path d="M436.33,287.75a5.46,5.46,0,0,0-5.19-4.09l-20.4-.34-23.24,6,3,11.78a4,4,0,0,0,3.82,3,3.72,3.72,0,0,0,1-.13l37.09-9.52a5.45,5.45,0,0,0,3.92-6.63Zm-2.54,3a3.14,3.14,0,0,1-2,1.46l-37.09,9.52a1.67,1.67,0,0,1-2-1.2l-2.46-9.59L411,285.6l20.1.32a3.2,3.2,0,0,1,3,2.39A3.16,3.16,0,0,1,433.79,290.73Z" transform="translate(-61.81 -37.67)" fill="#121214" fill-rule="evenodd"/>
    </g>
    <g id="Составная_фигура-15" data-name="Составная фигура">
      <path d="M313.45,102.52v9.56a8.44,8.44,0,0,0,0,.87,10.64,10.64,0,0,0,10.6,9.77h7.77a4.83,4.83,0,0,0,4.83-4.83V106.05Z" transform="translate(-61.81 -37.67)" fill="#fceddb" fill-rule="evenodd"/>
    </g>
    <g id="Составная_фигура-16" data-name="Составная фигура">
      <path d="M336.69,107l-23.24-3.57v8.66a8.44,8.44,0,0,0,0,.87,24.51,24.51,0,0,0,11.67,2.93h4a20.6,20.6,0,0,0,7.52-1.41l.08,0V107Z" transform="translate(-61.81 -37.67)" fill="#fff" fill-rule="evenodd"/>
    </g>
    <g id="Составная_фигура-17" data-name="Составная фигура">
      <path d="M312.36,101.21v10.87c0,.33,0,.65,0,1a11.84,11.84,0,0,0,11.74,10.82h9.36a4.36,4.36,0,0,0,4.36-4.36V105.08ZM335.6,119.5a2.1,2.1,0,0,1-2.1,2.09h-9.36a9.56,9.56,0,0,1-9.48-8.74c0-.25,0-.51,0-.77v-8.24l21,3.18Z" transform="translate(-61.81 -37.67)" fill="#121214" fill-rule="evenodd"/>
    </g>
    <g id="Составная_фигура-18" data-name="Составная фигура">
      <path d="M347.48,212.53s.2-.11-45.48,4.47c-10.7,1.07-9,3-9,3l4,10,22.85,12.31,4.45-3.37,39.18-29Z" transform="translate(-61.81 -37.67)" fill="#fff" fill-rule="evenodd"/>
    </g>
    <g id="Составная_фигура-19" data-name="Составная фигура">
      <path d="M351.49,209.9l-59.61,6.47v2.45a20,20,0,0,0,4.37,12.42,1.18,1.18,0,0,0,.89.42,1.12,1.12,0,0,0,.71-.25,1.14,1.14,0,0,0,.17-1.6,17.36,17.36,0,0,1-3.87-11v-.42l57.59-6.24a1.13,1.13,0,0,0,1-1.25A1.15,1.15,0,0,0,351.49,209.9Z" transform="translate(-61.81 -37.67)" fill="#121214" fill-rule="evenodd"/>
    </g>
    <g id="Составная_фигура-20" data-name="Составная фигура">
      <path d="M312.94,216.25a1.14,1.14,0,0,0-1.14,1.13,12.07,12.07,0,0,1-3.54,8.57l-1.6,1.61a1.13,1.13,0,0,0,1.6,1.6l1.6-1.61a14.26,14.26,0,0,0,4.21-10.17A1.14,1.14,0,0,0,312.94,216.25Z" transform="translate(-61.81 -37.67)" fill="#121214" fill-rule="evenodd"/>
    </g>
    <g id="Составная_фигура-21" data-name="Составная фигура">
      <path d="M341.79,399l-19.53-5.36H299.55v11a2.81,2.81,0,0,0,2.81,2.8h38.29a4.32,4.32,0,0,0,1.14-8.48Z" transform="translate(-61.81 -37.67)" fill="#121214" fill-rule="evenodd"/>
    </g>
    <g id="Составная_фигура-22" data-name="Составная фигура">
      <path d="M342.09,397.88l-19.53-5.36-24.14,0v12.17a3.94,3.94,0,0,0,3.94,3.93h38.29a5.45,5.45,0,0,0,1.44-10.7Zm-1.44,8.44H302.36a1.67,1.67,0,0,1-1.67-1.67v-9.9h21.42l19.38,5.31a3.19,3.19,0,0,1-.84,6.26Z" transform="translate(-61.81 -37.67)" fill="#121214" fill-rule="evenodd"/>
    </g>
    <g id="new_vector_shape_done-4" data-name="new_vector_shape_done">
      <path d="M324.5,354V252c0-3.19.86-9.3-.5-11.5-1.13-2.19-3.55-1.59-6-2.5-6.19-2.3-14.11-6.2-21-7V379.5c0,4.76-.62,11.31,1,14.5h26C325.42,381.77,324.5,367.09,324.5,354Z" transform="translate(-61.81 -37.67)" fill="#fff" fill-rule="evenodd"/>
    </g>
    <g id="Составная_фигура-23" data-name="Составная фигура">
      <path d="M324.3,238.57a1.14,1.14,0,0,0-1.13,1.13V392.48h-24.7V231.12a1.14,1.14,0,0,0-2.27,0V394.75h29.24v-155A1.14,1.14,0,0,0,324.3,238.57Z" transform="translate(-61.81 -37.67)" fill="#121214" fill-rule="evenodd"/>
    </g>
    <g id="Составная_фигура-24" data-name="Составная фигура">
      <path d="M313.45,109.71a1.54,1.54,0,0,0-1.53,1.53v3.83l18.15,18.05a.34.34,0,0,0,.58-.23V119.67Z" transform="translate(-61.81 -37.67)" fill="#fff" fill-rule="evenodd"/>
    </g>
    <g id="Составная_фигура-25" data-name="Составная фигура">
      <path d="M313.76,108.58h-.31a2.66,2.66,0,0,0-2.66,2.66v4.3l18.48,18.39a1.48,1.48,0,0,0,1,.43,1.49,1.49,0,0,0,1.47-1.47V119ZM329.51,131l-16.45-16.38v-3.35a.39.39,0,0,1,.19-.34l16.26,9.43Z" transform="translate(-61.81 -37.67)" fill="#121214" fill-rule="evenodd"/>
    </g>
    <g id="Составная_фигура-26" data-name="Составная фигура">
      <rect x="268.84" y="82" width="6.65" height="8" rx="1.62" ry="1.62" fill="#f1a34e"/>
    </g>
    <g id="Составная_фигура-27" data-name="Составная фигура">
      <path d="M335.68,118.54h-3.42a2.75,2.75,0,0,0-2.75,2.75v4.77a2.75,2.75,0,0,0,2.75,2.75h3.42a2.75,2.75,0,0,0,2.75-2.75v-4.77A2.75,2.75,0,0,0,335.68,118.54Zm.48,7.52a.48.48,0,0,1-.48.48h-3.42a.48.48,0,0,1-.48-.48v-4.77a.48.48,0,0,1,.48-.48h3.42a.48.48,0,0,1,.48.48Z" transform="translate(-61.81 -37.67)" fill="#5b141a" fill-rule="evenodd"/>
    </g>
    <g id="Составная_фигура-28" data-name="Составная фигура">
      <path d="M339.32,110.89a.73.73,0,0,0-.71-.6h-1.92l0,4,1.4,18.31,2.56-12.93Z" transform="translate(-61.81 -37.67)" fill="#fff" fill-rule="evenodd"/>
    </g>
    <g id="Составная_фигура-29" data-name="Составная фигура">
      <path d="M340.44,110.72a1.84,1.84,0,0,0-1.83-1.57h-3.07l.06,5.15,2,26.64,4.23-21.24Zm-1.81,13.54-.77-10,0-2.82h.43l1.28,8.23Z" transform="translate(-61.81 -37.67)" fill="#5b141a" fill-rule="evenodd"/>
    </g>
    <g id="new_vector_shape_done-5" data-name="new_vector_shape_done">
      <path d="M355,57c-5.36-8.27-23.4-6.23-37-6-1,.87-1.54.31-3,1-3.83,1.82-6.68,6.19-8,10.5V77c0,19.48,5.21,26.87,19.5,32,3.94,1.42,12.92,1.71,17,0,13.14-5.51,13.5-15.91,13.5-34.5C357,67.94,357.56,61,355,57Z" transform="translate(-61.81 -37.67)" fill="#fff" fill-rule="evenodd"/>
    </g>
    <g id="Составная_фигура-30" data-name="Составная фигура">
      <rect x="285.64" y="33.22" width="9.33" height="7.36" fill="#f5d4ba"/>
    </g>
    <g id="Составная_фигура-31" data-name="Составная фигура">
      <path d="M344.12,50.11h-24A13.78,13.78,0,0,0,306.3,63.9v3.91s0,.07,0,.1V85.1a25.81,25.81,0,0,0,25.81,25.81h4a21.81,21.81,0,0,0,21.79-21.78V63.9A13.8,13.8,0,0,0,344.12,50.11Zm11.52,39a19.53,19.53,0,0,1-19.52,19.51h-4A23.54,23.54,0,0,1,308.57,85.1v-15a.28.28,0,0,0,0-.09V63.9a11.52,11.52,0,0,1,11.52-11.53h24A11.53,11.53,0,0,1,355.64,63.9Z" transform="translate(-61.81 -37.67)" fill="#121214" fill-rule="evenodd"/>
    </g>
    <g id="Составная_фигура-32" data-name="Составная фигура">
      <path d="M347.45,76.25a1.14,1.14,0,0,0-1.14,1.14v8.36a2.59,2.59,0,0,1-2.59,2.59,1.14,1.14,0,0,0,0,2.27,4.87,4.87,0,0,0,4.86-4.86V77.39A1.14,1.14,0,0,0,347.45,76.25Z" transform="translate(-61.81 -37.67)" fill="#5b141a" fill-rule="evenodd"/>
    </g>
    <g id="Составная_фигура-33" data-name="Составная фигура">
      <path d="M352.4,38.81H326.09a21.65,21.65,0,0,0-21.66,21.65v15l5.21,4.37a3.15,3.15,0,0,0,5.9-.75l1.88-8.68a8.25,8.25,0,0,1,8.07-6.5H352.4a12.55,12.55,0,1,0,0-25.1Z" transform="translate(-61.81 -37.67)" fill="#121214" fill-rule="evenodd"/>
    </g>
    <g id="Составная_фигура-34" data-name="Составная фигура">
      <path d="M352.4,37.67H326.09a22.82,22.82,0,0,0-22.8,22.79V76l5.45,4.57a4.25,4.25,0,0,0,3.69,2.14,5.44,5.44,0,0,0,.57,0,4.26,4.26,0,0,0,3.65-3.35l1.87-8.68a7.17,7.17,0,0,1,7-5.61H352.4a13.69,13.69,0,1,0,0-27.37Zm0,25.1H325.49a9.45,9.45,0,0,0-9.18,7.4l-1.88,8.68a2,2,0,0,1-3.78.48l-.1-.21-5-4.18V60.46a20.56,20.56,0,0,1,20.61-20.52H352.4a11.42,11.42,0,1,1,0,22.83Z" transform="translate(-61.81 -37.67)" fill="#121214" fill-rule="evenodd"/>
    </g>
    <g id="new_vector_shape_done-6" data-name="new_vector_shape_done">
      <path d="M310,76l-4.5-.5c-1.39,1.19-3.1,2.48-4.5,3.5-.1,5.79,1.2,6.12,3.5,9,6.63.11,5.27-2.73,8.5-5.5C312.92,78.46,311.55,78.26,310,76Z" transform="translate(-61.81 -37.67)" fill="#fff" fill-rule="evenodd"/>
    </g>
    <g id="Составная_фигура-35" data-name="Составная фигура">
      <path d="M306.94,74.46a7.3,7.3,0,1,0,3.61,13.64,1.13,1.13,0,0,0-1.12-2A5,5,0,1,1,312,81.76a1.14,1.14,0,0,0,2.27,0A7.32,7.32,0,0,0,306.94,74.46Z" transform="translate(-61.81 -37.67)" fill="#121214" fill-rule="evenodd"/>
    </g>
    <g id="Составная_фигура-36" data-name="Составная фигура">
      <path d="M349.46,95.56h-8.68a8,8,0,0,1-4.49-1.38A1.13,1.13,0,1,0,335,96.06a10.29,10.29,0,0,0,5.76,1.77h8.68a1.14,1.14,0,1,0,0-2.27Z" transform="translate(-61.81 -37.67)" fill="#121214" fill-rule="evenodd"/>
    </g>
    <g id="Составная_фигура-37" data-name="Составная фигура">
      <path d="M335.14,75.16a3.09,3.09,0,1,0,3.09,3.09A3.08,3.08,0,0,0,335.14,75.16Z" transform="translate(-61.81 -37.67)" fill="#fff" fill-rule="evenodd"/>
    </g>
    <g id="Составная_фигура-38" data-name="Составная фигура">
      <path d="M335.14,74a4.22,4.22,0,1,0,4.22,4.22A4.22,4.22,0,0,0,335.14,74Zm0,6.17a2,2,0,1,1,1.95-2A2,2,0,0,1,335.14,80.2Z" transform="translate(-61.81 -37.67)" fill="#5b141a" fill-rule="evenodd"/>
    </g>
    <g id="Составная_фигура-39" data-name="Составная фигура">
      <path d="M352.94,75.16A3.09,3.09,0,1,0,356,78.25,3.08,3.08,0,0,0,352.94,75.16Z" transform="translate(-61.81 -37.67)" fill="#fff" fill-rule="evenodd"/>
    </g>
    <g id="Составная_фигура-40" data-name="Составная фигура">
      <path d="M352.94,74a4.22,4.22,0,1,0,4.22,4.22A4.22,4.22,0,0,0,352.94,74Zm0,6.17a2,2,0,1,1,1.95-2A2,2,0,0,1,352.94,80.2Z" transform="translate(-61.81 -37.67)" fill="#5b141a" fill-rule="evenodd"/>
    </g>
    <g id="Составная_фигура-41" data-name="Составная фигура">
      <path d="M336.67,77.94a1.26,1.26,0,1,0,1.27,1.26A1.27,1.27,0,0,0,336.67,77.94Z" transform="translate(-61.81 -37.67)" fill="#5b141a" fill-rule="evenodd"/>
    </g>
    <g id="Составная_фигура-42" data-name="Составная фигура">
      <path d="M336.67,76.81a2.4,2.4,0,1,0,2.4,2.39A2.39,2.39,0,0,0,336.67,76.81Zm-.12,2.39a.12.12,0,0,1,.12-.12.12.12,0,0,1,.13.12C336.8,79.34,336.55,79.34,336.55,79.2Z" transform="translate(-61.81 -37.67)" fill="#5b141a" fill-rule="evenodd"/>
    </g>
    <g id="Составная_фигура-43" data-name="Составная фигура">
      <path d="M354.2,78.12a1.26,1.26,0,1,0,1.27,1.26A1.27,1.27,0,0,0,354.2,78.12Z" transform="translate(-61.81 -37.67)" fill="#5b141a" fill-rule="evenodd"/>
    </g>
    <g id="Составная_фигура-44" data-name="Составная фигура">
      <path d="M354.2,77a2.4,2.4,0,1,0,2.4,2.39A2.39,2.39,0,0,0,354.2,77Zm-.12,2.39a.12.12,0,0,1,.12-.12.12.12,0,0,1,.13.12C354.33,79.52,354.08,79.52,354.08,79.38Z" transform="translate(-61.81 -37.67)" fill="#5b141a" fill-rule="evenodd"/>
    </g>
    <g id="Составная_фигура-45" data-name="Составная фигура" opacity="0.52">
      <path d="M352.79,74.16a6.35,6.35,0,1,0,6.35,6.35A6.34,6.34,0,0,0,352.79,74.16Z" transform="translate(-61.81 -37.67)" fill="#fff" fill-rule="evenodd"/>
    </g>
    <g id="Составная_фигура-46" data-name="Составная фигура">
      <path d="M353.09,73a7.48,7.48,0,1,0,7.48,7.48A7.48,7.48,0,0,0,353.09,73Zm0,12.69a5.21,5.21,0,1,1,5.22-5.21A5.22,5.22,0,0,1,353.09,85.72Z" transform="translate(-61.81 -37.67)" fill="#d1625e" fill-rule="evenodd"/>
    </g>
    <g id="Составная_фигура-47" data-name="Составная фигура">
      <path d="M335.57,73A7.48,7.48,0,1,0,343,80.51,7.48,7.48,0,0,0,335.57,73Zm0,12.69a5.21,5.21,0,1,1,5.21-5.21A5.22,5.22,0,0,1,335.57,85.72Z" transform="translate(-61.81 -37.67)" fill="#d1625e" fill-rule="evenodd"/>
    </g>
    <g id="Составная_фигура-48" data-name="Составная фигура">
      <path d="M360.13,69.05l-18.26,3.83a7.85,7.85,0,0,0,.07,15.64l16.85,3.74a1.71,1.71,0,0,0,2.08-1.56l1.31-19.86A1.71,1.71,0,0,0,360.13,69.05Z" transform="translate(-61.81 -37.67)" fill="#121214" fill-rule="evenodd"/>
    </g>
    <g id="Составная_фигура-49" data-name="Составная фигура">
      <path d="M362.34,68.58a2.83,2.83,0,0,0-2.45-.64L341.7,71.76a9,9,0,0,0,.07,17.89l16.77,3.72a3.27,3.27,0,0,0,.62.07,2.88,2.88,0,0,0,1.71-.57A2.84,2.84,0,0,0,362,90.78l1.31-19.86A2.82,2.82,0,0,0,362.34,68.58Zm-2.6,22a.58.58,0,0,1-.23.42.59.59,0,0,1-.48.1l-16.84-3.73-.16,0A6.71,6.71,0,0,1,342,74l18.38-3.85h.13a.53.53,0,0,1,.37.14.57.57,0,0,1,.2.48Z" transform="translate(-61.81 -37.67)" fill="#121214" fill-rule="evenodd"/>
    </g>
    <g id="Составная_фигура-50" data-name="Составная фигура">
      <path d="M335.42,86.07a9,9,0,0,0-9.33,9.05v42.47l-11.62-11.08a9,9,0,0,0-12.42,13l19.42,18.54a13.49,13.49,0,0,0,16,1.8,13.92,13.92,0,0,0,6.71-12.13V95.5A9.31,9.31,0,0,0,335.42,86.07Z" transform="translate(-61.81 -37.67)" fill="#fff" fill-rule="evenodd"/>
    </g>
    <g id="Составная_фигура-51" data-name="Составная фигура">
      <path d="M335.46,84.93A10.21,10.21,0,0,0,325,95.12v39.82l-9.7-9.25a10.13,10.13,0,1,0-14,14.66L320.7,158.9a14.64,14.64,0,0,0,17.36,1.95,15.05,15.05,0,0,0,7.27-13.11V95.5A10.47,10.47,0,0,0,335.46,84.93Zm7.61,62.81a12.82,12.82,0,0,1-6.14,11.15,12.47,12.47,0,0,1-6.23,1.68,12.32,12.32,0,0,1-8.44-3.32l-19.43-18.54a7.86,7.86,0,0,1,4.34-13.47,8.26,8.26,0,0,1,1.1-.08,7.83,7.83,0,0,1,5.41,2.17l13.54,12.9V95.12a7.93,7.93,0,0,1,8.17-7.92,8.19,8.19,0,0,1,7.68,8.3Z" transform="translate(-61.81 -37.67)" fill="#121214" fill-rule="evenodd"/>
    </g>
    <g id="Составная_фигура-52" data-name="Составная фигура">
      <path d="M346.37,70.12l-8.26.89a13.89,13.89,0,0,0-11.82,13.73v9h18.12c0-3.3-.45-12.27.21-15.5a16,16,0,0,1,2.9-6.11A1.26,1.26,0,0,0,346.37,70.12Z" transform="translate(-61.81 -37.67)" fill="#fff" fill-rule="evenodd"/>
    </g>
    <g id="Составная_фигура-53" data-name="Составная фигура">
      <path d="M348.59,70.18A2.37,2.37,0,0,0,346.25,69l-8.31.9a14.93,14.93,0,0,0-12.78,14.85V94.88h20.38V93.75c0-.81,0-2-.06-3.3-.09-3.85-.22-9.66.25-12a15,15,0,0,1,2.7-5.65A2.38,2.38,0,0,0,348.59,70.18Zm-2,1.28h0a17.28,17.28,0,0,0-3.1,6.56c-.52,2.57-.39,8.3-.29,12.48,0,.78,0,1.49,0,2.12H327.43V84.74a12.66,12.66,0,0,1,10.8-12.6l8.27-.9a.11.11,0,0,1,.12.07A.11.11,0,0,1,346.61,71.46Z" transform="translate(-61.81 -37.67)" fill="#121214" fill-rule="evenodd"/>
    </g>
    <g id="Составная_фигура-54" data-name="Составная фигура">
      <path d="M368,67.76l-1.51.22c-6.8,1-11,11.26-11,18.13v9h18.12c0-3.3.13-9.06.13-9.06l.88-12.1A5.84,5.84,0,0,0,368,67.76Z" transform="translate(-61.81 -37.67)" fill="#fff" fill-rule="evenodd"/>
    </g>
    <g id="Составная_фигура-55" data-name="Составная фигура">
      <path d="M373.6,68.44a7,7,0,0,0-5.74-1.8l-1.52.22c-3.42.51-6.57,3.16-8.87,7.46a26.34,26.34,0,0,0-3.07,11.79V96.25h20.38V95.12c0-3.25.14-9,.13-9L375.79,74A6.92,6.92,0,0,0,373.6,68.44Zm-.07,5.44L372.65,86s-.11,4.63-.13,7.94H356.66V86.11c0-6.32,3.9-16.09,10-17l1.51-.22a4.7,4.7,0,0,1,5.35,5Z" transform="translate(-61.81 -37.67)" fill="#121214" fill-rule="evenodd"/>
    </g>
    <g id="Составная_фигура-56" data-name="Составная фигура">
      <path d="M387.77,69.05l-18.26,3.83a7.85,7.85,0,0,0,.07,15.64l16.85,3.74a1.71,1.71,0,0,0,2.08-1.56l1.31-19.86A1.71,1.71,0,0,0,387.77,69.05Z" transform="translate(-61.81 -37.67)" fill="#121214" fill-rule="evenodd"/>
    </g>
    <g id="Составная_фигура-57" data-name="Составная фигура">
      <path d="M390,68.58a2.83,2.83,0,0,0-2.45-.64l-18.19,3.82a9,9,0,0,0,.07,17.89l16.77,3.72a3.27,3.27,0,0,0,.62.07,2.88,2.88,0,0,0,1.71-.57,2.84,2.84,0,0,0,1.13-2.09L391,70.92A2.82,2.82,0,0,0,390,68.58Zm-2.6,22a.58.58,0,0,1-.23.42.59.59,0,0,1-.48.1l-16.84-3.73-.16,0A6.71,6.71,0,0,1,369.61,74L388,70.16h.13a.53.53,0,0,1,.37.14.57.57,0,0,1,.2.48Z" transform="translate(-61.81 -37.67)" fill="#121214" fill-rule="evenodd"/>
    </g>
    <g id="Составная_фигура-58" data-name="Составная фигура">
      <circle cx="362.33" cy="80.64" r="12.05" transform="translate(-62.19 -35.92) rotate(-0.28)" fill="#00ffc4"/>
    </g>
    <g id="Составная_фигура-59" data-name="Составная фигура">
      <circle cx="390.89" cy="80.64" r="12.05" transform="translate(-62.2 -35.75) rotate(-0.28)" fill="#00ffc4"/>
    </g>
    <g id="Составная_фигура-60" data-name="Составная фигура">
      <path d="M362.33,67.46a13.19,13.19,0,1,0,13.19,13.18A13.21,13.21,0,0,0,362.33,67.46Zm0,24.1a10.92,10.92,0,1,1,10.92-10.92A10.93,10.93,0,0,1,362.33,91.56Z" transform="translate(-61.81 -37.67)" fill="#121214" fill-rule="evenodd"/>
    </g>
    <g id="Составная_фигура-61" data-name="Составная фигура">
      <path d="M390.89,67.46a13.19,13.19,0,1,0,13.19,13.18A13.2,13.2,0,0,0,390.89,67.46Zm0,24.1a10.92,10.92,0,1,1,10.92-10.92A10.93,10.93,0,0,1,390.89,91.56Z" transform="translate(-61.81 -37.67)" fill="#121214" fill-rule="evenodd"/>
    </g>
  </g>
  <g id="Cloud-3" data-name="Cloud">
    <g id="Составная_фигура-62" data-name="Составная фигура">
      <path d="M807.71,558.68a53.62,53.62,0,0,0-71.3-33.25A63.32,63.32,0,0,0,687,501.72a64.9,64.9,0,0,0-10.87.94A84.49,84.49,0,0,0,536.66,491.2c-1,0-1.94-.07-2.91-.07a68.7,68.7,0,0,0-62.52,40.18c-.1.21-.2.43-.29.64a48.5,48.5,0,0,0,6,96.62h279.7a53.59,53.59,0,0,0,51-69.89Z" transform="translate(-61.81 -37.67)" fill="#fff" fill-rule="evenodd"/>
    </g>
    <g id="Составная_фигура-63" data-name="Составная фигура">
      <path d="M808.9,558.3a54.87,54.87,0,0,0-72.1-34.37A64.42,64.42,0,0,0,687,500.47a65.68,65.68,0,0,0-10.22.82,85.73,85.73,0,0,0-140.65-11.36c-.78,0-1.56-.05-2.34-.05a70.15,70.15,0,0,0-63.64,40.88l0,0a49.78,49.78,0,0,0-42.87,49.26A49.12,49.12,0,0,0,432,601.4a50,50,0,0,0,45,28.42h279.7A54.84,54.84,0,0,0,808.9,558.3Zm-52.22,69H477a47.51,47.51,0,0,1-42.71-27,46.75,46.75,0,0,1-4.55-20.26,47.27,47.27,0,0,1,41.37-46.87l.7-.09.35-.78.23-.49a67.67,67.67,0,0,1,61.38-39.45c1,0,1.91,0,2.86.07l.63,0,.4-.49A83.27,83.27,0,0,1,675,503.28l.43.76.87-.14a62.07,62.07,0,0,1,59.13,22.31l.59.73.86-.35a52.31,52.31,0,1,1,19.8,100.73Z" transform="translate(-61.81 -37.67)" fill="#121214" fill-rule="evenodd"/>
    </g>
  </g>
</svg>
