<?xml version="1.0" encoding="utf-8"?>
<!-- Generator: Adobe Illustrator 23.0.6, SVG Export Plug-In . SVG Version: 6.00 Build 0)  -->
<svg version="1.1" id="Laag_1" xmlns="http://www.w3.org/2000/svg" xmlns:xlink="http://www.w3.org/1999/xlink" x="0px" y="0px"
	 viewBox="0 0 187 34" style="enable-background:new 0 0 187 34;" xml:space="preserve">
<style type="text/css">
	.st0{enable-background:new    ;}
	.st1{fill-rule:evenodd;clip-rule:evenodd;fill:#00FFC4;}
	.st2{fill:#FFFFFF;}
</style>
<g id="Ovaal_1_1_" class="st0">
	<g id="Ovaal_1">
		<g>
			<circle class="st1" cx="17.1" cy="17" r="17"/>
		</g>
	</g>
</g>
<g id="JOBHULP">
	<g>
		<path class="st2" d="M59,19c0,5.4-3.5,9.4-9.2,9.4c-5.4,0-9.2-3.2-9.2-9.1h3.9c0,3.6,1.7,5.4,5.3,5.4s5.3-2.5,5.3-5.7v-8.3h-6.3V7
			c3.4,0,6.8,0,10.3,0L59,19L59,19z"/>
		<path class="st2" d="M83.3,17.6c-0.1,5.4-3.4,10.9-10.8,10.9s-10.8-5.3-10.8-10.8S65.3,6.6,72.5,6.6C79.8,6.6,83.4,12.1,83.3,17.6
			z M65.6,17.7c0.1,3.5,1.9,7.1,6.9,7.1s6.8-3.7,6.9-7.2s-1.9-7.5-6.9-7.5C67.6,10.2,65.6,14.1,65.6,17.7z"/>
		<path class="st2" d="M103.3,13.1c0,1.6-0.8,3.2-2.7,4c2.5,0.8,3.4,3.4,3.4,4.7c0,4.7-3.5,6.2-7.9,6.2c-3.3,0-6.6,0-10,0V7
			c3.3,0,6.6,0,10,0C100.2,7,103.3,8.8,103.3,13.1z M90,15.4h6.1c2.5,0,3.3-1.1,3.3-2.2c0-1-0.8-2.6-3.3-2.6H90V15.4z M90,24.3h6.1
			c1.6,0,3.9-0.5,3.9-2.5c0-1.9-2.3-2.9-3.9-2.9H90V24.3z"/>
		<path class="st2" d="M121,28v-8.5h-10.3V28h-4V7h4v8.8H121V7h3.9v21H121z"/>
		<path class="st2" d="M147.1,7v12c0,6.2-3.8,9.4-9.1,9.4c-5,0-9.3-3.1-9.3-9.4V7h3.9v12c0,3.8,2.2,5.8,5.4,5.8s5.1-2.2,5.1-5.8V7
			H147.1z"/>
		<path class="st2" d="M154.9,7v17.3h10.8V28H151V7H154.9z"/>
		<path class="st2" d="M178.4,21.8h-5.9V28h-4V7c3.3,0,6.6,0,9.9,0C188.7,6.9,188.7,21.8,178.4,21.8z M172.5,18.2h5.9
			c5.1,0,5-7.4,0-7.4h-5.9V18.2z"/>
	</g>
</g>
<g id="stripped-tie_xA0_Afbeelding_1_">
	<g>
		<g id="Layer_5_12_">
			<g>
				<path d="M21.3,6.4c-0.1,0.7-0.7,1.3-1.4,1.3h-5.5c-0.7,0-1.3-0.6-1.4-1.3l-0.2-2.9c-0.1-0.7,0.5-1.3,1.2-1.3h6.4
					c0.7,0,1.2,0.6,1.2,1.3L21.3,6.4z"/>
				<path d="M24.3,24.4l-2.9-13.9c-0.1-0.7-0.8-1.3-1.6-1.3h-5.5c-0.7,0-1.4,0.6-1.6,1.3L9.9,24.4c-0.1,0.7,0.2,1.7,0.7,2.1l5.6,5.1
					c0.5,0.5,1.4,0.5,1.9,0l5.6-5.1C24.2,26,24.5,25.1,24.3,24.4z M13.2,16.8c0.1-0.3,0.2-1,0.3-1.4c0-0.1,0.1-0.1,0.1-0.1l6.3-2.9
					c0.1-0.1,0.1,0,0.2,0.1c0,0.1,0,0.1,0,0.2c0,0,0.1,0.7,0.2,0.9c0,0.1-0.1,0.2-0.1,0.2l-6.9,3.3C13.2,16.9,13.2,17,13.2,16.8z
					 M11.8,23.3c0.1-0.3,0.2-1,0.3-1.3c0-0.2,0.2-0.2,0.2-0.2l8.6-4.1c0,0,0.2-0.1,0.3,0.1c0,0.2,0.2,0.8,0.2,1
					c0,0.1-0.1,0.2-0.1,0.2L12,23.5C11.9,23.4,11.8,23.4,11.8,23.3z M22.3,24.1l-7.9,3.8c0,0-0.1,0.1-0.2,0
					c-0.2-0.2-0.6-0.5-0.8-0.7c-0.1-0.2,0-0.2,0-0.2l8.6-4.1c0,0,0.2-0.1,0.2,0.1s0.2,0.8,0.2,1C22.4,24,22.3,24.1,22.3,24.1z"/>
			</g>
		</g>
	</g>
</g>
</svg>
