<svg id="Illstration" xmlns="http://www.w3.org/2000/svg" viewBox="0 0 760 475.02">
  <title>01_team</title>
  <g id="Man_3" data-name="Man #3">
    <g id="new_vector_shape_done">
      <path d="M459.71,177.87c-1.34-3.55-1.52-7.79-3.78-10.41-.51-.36-.44-.3-1.42-.47-3.79,5.73-11.09,11-16.56,15.14l-4.73,5.2C423.1,195,415,204.75,404.84,212.41l-4.73,5.2C394.28,222,389.74,228,384,232.28c-8.25,6.23-15,14-22.7,20.81-7.22,6.42-14.55,12.51-21.76,18.93-6.27,5.58-11.78,12.9-18.92,17.5,1.22,3.44,4.62,5.38,6.62,8.05,3.8,5.07,11.21,16.11,16.08,19.39l.47.48c2.86-4.22,10-9.14,14.19-12.3q3.56-3.56,7.1-7.1c8.64-6.52,16-14.29,24.6-20.82,5.23-4,9.44-9.77,14.66-13.72,15.49-11.7,28.5-26.14,44-37.85,7.62-5.76,13.61-14.16,21.76-19.39C468.66,197.59,462.78,186,459.71,177.87Z" transform="translate(-4.01 -8.99)" fill="#121214"/>
    </g>
    <g id="Составная_фигура" data-name="Составная фигура">
      <polygon points="465.31 196.07 339.56 306.71 318.25 281.08 452.64 158.25 450.96 156.4 314.81 280.84 339.29 310.29 466.96 197.95 465.31 196.07" fill="#fff"/>
    </g>
    <g id="Составная_фигура-2" data-name="Составная фигура">
      <rect x="448.44" y="362.54" width="54.87" height="101.76" fill="#121214"/>
    </g>
    <g id="Составная_фигура-3" data-name="Составная фигура">
      <path d="M451.2,370.28V474.54h57.37V370.28ZM506.06,472H453.7V372.78h52.36Z" transform="translate(-4.01 -8.99)" fill="#fff"/>
    </g>
    <g id="Составная_фигура-4" data-name="Составная фигура">
      <path d="M451.14,370.28v42.31a1.25,1.25,0,1,0,2.5,0V372.78H561.57l-.14,1.4v.12c0,9.52-2.39,17.32-7.11,23.19a1.25,1.25,0,0,0,1.95,1.57c5.07-6.31,7.65-14.62,7.66-24.7l.41-4.08Z" transform="translate(-4.01 -8.99)" fill="#fff"/>
    </g>
    <g id="Составная_фигура-5" data-name="Составная фигура">
      <path d="M572.29,196c0-26.88-24.71-38.06-43.29-37.4H475.16a29.68,29.68,0,0,0-29.68,29.69V388.82H565.11l7.36-187Z" transform="translate(-4.01 -8.99)" fill="#121214"/>
    </g>
    <g id="Составная_фигура-6" data-name="Составная фигура">
      <path d="M573.54,196c0-10.43-3.74-19.55-10.8-26.37C552.83,160,538.8,157,529,157.32H475.17a31,31,0,0,0-30.94,30.94V390.07H566.32l7.4-188.25Zm-9.63,191.62H446.73V188.26a28.47,28.47,0,0,1,28.44-28.44H529c9.32-.33,22.61,2.53,32,11.56,6.66,6.43,10,14.7,10,24.59l.18,5.84Z" transform="translate(-4.01 -8.99)" fill="#fff"/>
    </g>
    <g id="Составная_фигура-7" data-name="Составная фигура">
      <polygon points="475.37 151.18 475.37 237.29 518.82 154.22 475.37 151.18" fill="#121214"/>
    </g>
    <g id="Составная_фигура-8" data-name="Составная фигура">
      <path d="M480.45,141v29.85a2.61,2.61,0,0,0,2.61,2.61H505a20.7,20.7,0,0,0,20.64-19c0-.56.07-1.12.07-1.68V134.16Z" transform="translate(-4.01 -8.99)" fill="#121214"/>
    </g>
    <g id="Составная_фигура-9" data-name="Составная фигура">
      <path d="M479.2,140v30.92a3.86,3.86,0,0,0,3.86,3.86H505a22.06,22.06,0,0,0,21.89-20.18c0-.6.07-1.18.07-1.78V132.7Zm45.21,12.82c0,.53,0,1-.07,1.58A19.54,19.54,0,0,1,505,172.23H483.06a1.36,1.36,0,0,1-1.36-1.36V142.1l42.71-6.48Z" transform="translate(-4.01 -8.99)" fill="#5b141a" fill-rule="evenodd"/>
    </g>
    <g id="Составная_фигура-10" data-name="Составная фигура">
      <path d="M479.11,140v29.84a5,5,0,0,0,4.95,4.94h20.81a22.05,22.05,0,0,0,21.88-20.18c0-.6.08-1.18.08-1.78V132.7Zm45.22,12.82c0,.53,0,1-.07,1.58a19.54,19.54,0,0,1-19.39,17.88H484.06a2.45,2.45,0,0,1-2.45-2.44V142.1l42.72-6.48Z" transform="translate(-4.01 -8.99)" fill="#fff" fill-rule="evenodd"/>
    </g>
    <g id="Составная_фигура-11" data-name="Составная фигура">
      <path d="M516.32,55.68a10.75,10.75,0,0,1,.33,1.18l.49,2.25,6.39,29.55A6.14,6.14,0,0,0,535,90.12l10.13-8.5V55.68Z" transform="translate(-4.01 -8.99)" fill="#5b141a" fill-rule="evenodd"/>
    </g>
    <g id="Составная_фигура-12" data-name="Составная фигура">
      <path d="M514.59,54.43l.55,1.64c.11.34.21.71.29,1.06l6.88,31.79a7.3,7.3,0,0,0,6.28,5.77,6.46,6.46,0,0,0,1,.07A7.31,7.31,0,0,0,536,90.93L546.4,82.2V54.43ZM543.89,81,534,89.33l-.12.23a4.88,4.88,0,0,1-9.14-1.17L518,56.93h25.94Z" transform="translate(-4.01 -8.99)" fill="#5b141a" fill-rule="evenodd"/>
    </g>
    <g id="new_vector_shape_done-2" data-name="new_vector_shape_done">
      <path d="M536.81,81.83c-2,1.83-5.08,2.44-6.62,4.73-1.13,1.67-1.09,4.2-2.37,5.68.9,4.54,4.87,8.72,7.1,12.3C555.5,110.18,559.58,81,536.81,81.83Z" transform="translate(-4.01 -8.99)" fill="#121214" fill-rule="evenodd"/>
    </g>
    <g id="Составная_фигура-13" data-name="Составная фигура">
      <path d="M540.26,80.36A13.27,13.27,0,0,0,527,93.62a1.25,1.25,0,0,0,2.5,0,10.74,10.74,0,1,1,5.42,9.34,1.25,1.25,0,0,0-1.24,2.17,13.25,13.25,0,1,0,6.56-24.77Z" transform="translate(-4.01 -8.99)" fill="#fff" fill-rule="evenodd"/>
    </g>
    <g id="Составная_фигура-14" data-name="Составная фигура">
      <path d="M540.26,87.48a1.25,1.25,0,0,0,0,2.5,3.63,3.63,0,0,1,3.63,3.64,1.26,1.26,0,0,0,2.51,0A6.14,6.14,0,0,0,540.26,87.48Z" transform="translate(-4.01 -8.99)" fill="#fff" fill-rule="evenodd"/>
    </g>
    <g id="new_vector_shape_done-3" data-name="new_vector_shape_done">
      <path d="M535.39,44.93a28.39,28.39,0,0,0-11.82-9.47c-5.37-2-13.22-1.41-20.34-1.41h-36.9c-1.85,1.13-5,.64-7.09,1.41a27.83,27.83,0,0,0-13.72,12.31c-4.33,8.38-2.36,25.34-2.36,37.37,0,9-1.59,22.44.47,30.28,6.05,23,19.71,32.7,49.19,32.64,6,0,11.56-.85,16.08-2.83,16.28-7.15,25.63-19.38,30.28-38.33V77.57C539.18,65.47,540.3,52.08,535.39,44.93Z" transform="translate(-4.01 -8.99)" fill="#121214" fill-rule="evenodd"/>
    </g>
    <g id="Составная_фигура-15" data-name="Составная фигура">
      <path d="M540.55,66.5V58.83A25.88,25.88,0,0,0,514.66,33H467.91A25.92,25.92,0,0,0,442,58.84V108a41.49,41.49,0,0,0,41.44,41.45h7.81a49.27,49.27,0,0,0,49.27-49.28V66.65C540.56,66.6,540.55,66.55,540.55,66.5Zm-2.5,33.62a46.77,46.77,0,0,1-46.77,46.78h-7.81A39,39,0,0,1,444.53,108V58.84a23.41,23.41,0,0,1,23.38-23.39h46.75a23.39,23.39,0,0,1,23.39,23.38v41.29Z" transform="translate(-4.01 -8.99)" fill="#fff" fill-rule="evenodd"/>
    </g>
    <g id="Составная_фигура-16" data-name="Составная фигура">
      <path d="M469.73,111.46a6,6,0,0,1-6-6V89.18a1.26,1.26,0,1,0-2.51,0v16.28a8.51,8.51,0,0,0,8.51,8.5,1.25,1.25,0,0,0,0-2.5Z" transform="translate(-4.01 -8.99)" fill="#fff" fill-rule="evenodd"/>
    </g>
    <g id="Составная_фигура-17" data-name="Составная фигура">
      <path d="M503,10.24h0c-.1,0-.2,0,.29.06l-68.09-.06,0,18c0,17,9.67,30.83,26.71,30.83h9.55a54.85,54.85,0,0,0,29.42-8.55l.28-.18a10.2,10.2,0,0,1,15.45,6.49l.48,2.24,6.4,29.56A6.14,6.14,0,0,0,535,90.13l10.14-8.51V52.39A42.15,42.15,0,0,0,503,10.24Z" transform="translate(-4.01 -8.99)" fill="#121214" fill-rule="evenodd"/>
    </g>
    <g id="Составная_фигура-18" data-name="Составная фигура">
      <path d="M503,9h-1.28v.05L434,9l0,19.28c.05,19.19,11.28,32.08,28,32.08h9.55a56,56,0,0,0,30.09-8.75l.28-.17a9,9,0,0,1,13.56,5.69l6.87,31.81a7.31,7.31,0,0,0,6.29,5.76,6.42,6.42,0,0,0,1,.07A7.29,7.29,0,0,0,536,90.93l10.4-8.73V52.39A43.45,43.45,0,0,0,503,9Zm40.89,72L534,89.33l-.11.23a4.89,4.89,0,0,1-9.14-1.16l-6.4-29.56-.48-2.24a11.33,11.33,0,0,0-6.77-8.18,11.48,11.48,0,0,0-4.46-.91,11.31,11.31,0,0,0-6.11,1.81l-.28.17a53.53,53.53,0,0,1-28.75,8.36H462c-17.54,0-25.42-14.86-25.46-29.59l0-16.77,66.84.06v-.06a40.94,40.94,0,0,1,40.6,40.9Z" transform="translate(-4.01 -8.99)" fill="#fff" fill-rule="evenodd"/>
    </g>
    <g id="Составная_фигура-19" data-name="Составная фигура">
      <rect x="474.12" y="175.03" width="2.5" height="204.91" fill="#fff"/>
    </g>
    <g id="new_vector_shape_done-4" data-name="new_vector_shape_done">
      <path d="M535.86,159.89c-.31-.47-.63-.94-.94-1.42h-9.46c-.62.43-2.3,5.14-2.84,6.15-2.7,5.1-5.16,10.33-8,15.62-7.1,13-14.65,26.7-21.76,39.74-3.32,6.08-6.3,12.18-9.46,18-1.27,2.34-1.65,4.76-3.31,6.63v.94c5.24-1.76,9.9-6.86,14.19-9.93,5.45-3.91,11.05-7,16.55-10.88,4.05-2.84,7.93-6.45,12.3-9-.05-3.73-.94-15.75.48-18,2.25-1.72,8.22-3,11.35-3.31q.71-12.3,1.42-24.6C536.35,166.19,537.23,161.71,535.86,159.89Z" transform="translate(-4.01 -8.99)" fill="#121214" fill-rule="evenodd"/>
    </g>
    <g id="Составная_фигура-20" data-name="Составная фигура">
      <path d="M536.15,158.9a4,4,0,0,0-3-1.35l-8.31,0-47.13,92.71L524,216.55V198.69l11.61-3.36,1.66-33.22A4.37,4.37,0,0,0,536.15,158.9Zm-2.83,34.51-11.7,3.38v18.46l-37.16,27L526.27,160h6.85a1.75,1.75,0,0,1,1.29.58,1.87,1.87,0,0,1,.48,1.36Z" transform="translate(-4.01 -8.99)" fill="#fff" fill-rule="evenodd"/>
    </g>
    <g id="Составная_фигура-21" data-name="Составная фигура">
      <polygon points="468.64 150.94 460.34 178.57 465.13 185.93 461.67 201.87 475.37 236.12 475.37 147.24 468.64 150.94" fill="#121214" fill-rule="evenodd"/>
    </g>
    <g id="Составная_фигура-22" data-name="Составная фигура">
      <path d="M471.6,159.08,463,187.75l4.83,7.41L464.38,211l16.25,40.64V154.11Zm6.53,79.53L467,210.74l3.48-16.07-4.76-7.31,8-26.58,4.43-2.44Z" transform="translate(-4.01 -8.99)" fill="#fff" fill-rule="evenodd"/>
    </g>
    <g id="Составная_фигура-23" data-name="Составная фигура">
      <path d="M524.76,149l-33.47,19.39.09,28,36.35-37V152A3,3,0,0,0,524.76,149Z" transform="translate(-4.01 -8.99)" fill="#121214" fill-rule="evenodd"/>
    </g>
    <g id="Составная_фигура-24" data-name="Составная фигура">
      <path d="M524.78,148h-.34L490,167.65l.1,31.35L529,160v-7.85A4.21,4.21,0,0,0,524.78,148Zm1.72,11-33.9,34-.08-23.92,32.55-18.57a1.69,1.69,0,0,1,1.43,1.67Z" transform="translate(-4.01 -8.99)" fill="#fff" fill-rule="evenodd"/>
    </g>
    <g id="new_vector_shape_done-5" data-name="new_vector_shape_done">
      <path d="M480.52,150.9c-6.47.67-5.21,4.93-6.62,10.88-.47,2-1.77,5.84-.95,9,.87,3.31,2.73,7.16,3.79,10.41.88,2.71.83,5.95,2.36,8l.48.48C481.78,178.36,480.6,163.67,480.52,150.9Z" transform="translate(-4.01 -8.99)" fill="#121214" fill-rule="evenodd"/>
    </g>
    <g id="Составная_фигура-25" data-name="Составная фигура">
      <path d="M480.65,149.86a7.66,7.66,0,0,0-7.56,6.61l-1.72,12.58,9.34,29.62,1.19-29.29V149.86Zm-1.86,34.41-4.86-15.44,1.64-12a5.14,5.14,0,0,1,3.83-4.29v16.81Z" transform="translate(-4.01 -8.99)" fill="#fff" fill-rule="evenodd"/>
    </g>
    <g id="Составная_фигура-26" data-name="Составная фигура">
      <rect x="474.44" y="159.41" width="12.93" height="15.58" rx="2.55" ry="2.55" fill="#00ffc4"/>
    </g>
    <g id="Составная_фигура-27" data-name="Составная фигура">
      <path d="M489.32,167H481.7a3.85,3.85,0,0,0-3.69,4v11a3.85,3.85,0,0,0,3.69,4h7.62a3.86,3.86,0,0,0,3.69-4V171A3.86,3.86,0,0,0,489.32,167Zm1.26,15a1.32,1.32,0,0,1-1.26,1.37H481.7a1.31,1.31,0,0,1-1.26-1.37V171a1.31,1.31,0,0,1,1.26-1.36h7.62a1.32,1.32,0,0,1,1.26,1.36Z" transform="translate(-4.01 -8.99)" fill="#121214" fill-rule="evenodd"/>
    </g>
    <g id="Составная_фигура-28" data-name="Составная фигура">
      <polygon points="486.45 175.08 474.99 175.01 474.99 236.02 488 212.62 486.45 175.08" fill="#00ffc4" fill-rule="evenodd"/>
    </g>
    <g id="Составная_фигура-29" data-name="Составная фигура">
      <path d="M493.23,183.08,478,183v69l17-28.72Zm-12.49,59V185.57l9.86.06,1.62,37Z" transform="translate(-4.01 -8.99)" fill="#121214"/>
    </g>
    <g id="Составная_фигура-30" data-name="Составная фигура">
      <path d="M460.63,121.54v1.26a11.23,11.23,0,1,0,22.46,0v-1.26Zm11.23,10a8.75,8.75,0,0,1-8.64-7.48H480.5A8.75,8.75,0,0,1,471.86,131.53Z" transform="translate(-4.01 -8.99)" fill="#fff"/>
    </g>
    <g id="Составная_фигура-31" data-name="Составная фигура">
      <path d="M558.32,168.33A18,18,0,0,0,538.21,184c-5.81,46.88-27.13,84.6-63.38,112.1C447.34,317,421,324.05,420.27,324.24a18,18,0,1,0,8.82,35c1.33-.33,32.83-8.43,66.23-33.37,31-23.14,69.81-65.77,78.68-137.4A18,18,0,0,0,558.32,168.33Z" transform="translate(-4.01 -8.99)" fill="#121214"/>
    </g>
    <g id="Составная_фигура-32" data-name="Составная фигура">
      <path d="M558.47,167.09A19.28,19.28,0,0,0,537,183.87c-5.76,46.53-26.92,84-62.88,111.25C446.83,315.8,421,322.74,420,323a19.29,19.29,0,1,0,9.44,37.41c1.33-.33,33.08-8.5,66.67-33.58,31.19-23.29,70.25-66.18,79.17-138.24A19.31,19.31,0,0,0,558.47,167.09Zm14.29,21.21c-8.81,71.19-47.38,113.55-78.19,136.55-33.19,24.78-64.47,32.83-65.78,33.16a17.29,17.29,0,0,1-4.1.5,16.79,16.79,0,0,1-4.1-33.06c1.1-.29,27.36-7.36,55-28.33,36.52-27.72,58-65.72,63.86-113a16.78,16.78,0,1,1,33.31,4.13Z" transform="translate(-4.01 -8.99)" fill="#fff"/>
    </g>
    <g id="Составная_фигура-33" data-name="Составная фигура">
      <polygon points="433.73 308.85 389.71 324.31 413.3 354.77 448.44 341.8 433.73 308.85" fill="#121214"/>
    </g>
    <g id="Составная_фигура-34" data-name="Составная фигура">
      <path d="M438.41,316.27l-46.74,16.42,25.21,32.56,37.25-13.76ZM395.77,333.9l41.29-14.51,13.7,30.68-33,12.2Z" transform="translate(-4.01 -8.99)" fill="#fff"/>
    </g>
  </g>
  <g id="Woman">
    <g id="Составная_фигура-35" data-name="Составная фигура">
      <polygon points="502.54 385.77 502.54 407.97 512.94 413.29 552.48 398.72 562.87 383.07 502.54 385.77" fill="#bc8975"/>
    </g>
    <g id="Составная_фигура-36" data-name="Составная фигура">
      <path d="M542.68,393l-3.26-3.26a25.58,25.58,0,0,1-7.52-18.19,1.25,1.25,0,0,0-2.5,0,28.07,28.07,0,0,0,8.25,20l3.26,3.27a1.29,1.29,0,0,0,.89.37,1.26,1.26,0,0,0,.88-2.14Z" transform="translate(-4.01 -8.99)" fill="#5b141a"/>
    </g>
    <g id="Составная_фигура-37" data-name="Составная фигура">
      <path d="M562.39,398.24a1.25,1.25,0,0,0-1.25,1.25V472H508.77V406.19a1.25,1.25,0,1,0-2.5,0v68.35h57.37V399.49A1.25,1.25,0,0,0,562.39,398.24Z" transform="translate(-4.01 -8.99)" fill="#5b141a"/>
    </g>
    <g id="Составная_фигура-38" data-name="Составная фигура" opacity="0.27">
      <rect x="485.34" y="398.24" width="18.17" height="66.06" fill="#5b1a1d"/>
    </g>
    <g id="Составная_фигура-39" data-name="Составная фигура">
      <rect x="528.81" y="362.54" width="43.5" height="17.29" rx="4.48" ry="4.48" fill="#bc8975"/>
    </g>
    <g id="Составная_фигура-40" data-name="Составная фигура">
      <path d="M571.84,370.28H537.29a5.73,5.73,0,0,0-5.72,5.72v8.34a5.73,5.73,0,0,0,5.72,5.73h34.55a5.74,5.74,0,0,0,5.73-5.73V376A5.73,5.73,0,0,0,571.84,370.28Zm3.23,14.06a3.23,3.23,0,0,1-3.23,3.23H537.29a3.23,3.23,0,0,1-3.22-3.23V376a3.22,3.22,0,0,1,3.22-3.22h34.55a3.23,3.23,0,0,1,3.23,3.22Z" transform="translate(-4.01 -8.99)" fill="#5b141a"/>
    </g>
    <g id="Составная_фигура-41" data-name="Составная фигура">
      <path d="M678.79,318.89h-144a18.75,18.75,0,0,0-18.75,18.76V469.57c0,1.31,1.06,3.72,2.37,3.72H695.17c1.31,0,2.38-2.41,2.38-3.72V337.65A18.76,18.76,0,0,0,678.79,318.89Z" transform="translate(-4.01 -8.99)" fill="#121214"/>
    </g>
    <g id="Составная_фигура-42" data-name="Составная фигура">
      <path d="M678.79,317.64h-144a20,20,0,0,0-20,20V469.57c0,1.75,1.37,5,3.62,5H695.17c2.25,0,3.63-3.22,3.63-5V337.65A20,20,0,0,0,678.79,317.64ZM696.3,469.57a3.73,3.73,0,0,1-1.13,2.47H518.46a3.65,3.65,0,0,1-1.15-2.47V337.65a17.52,17.52,0,0,1,17.5-17.51h144a17.52,17.52,0,0,1,17.51,17.51Z" transform="translate(-4.01 -8.99)" fill="#fff"/>
    </g>
    <g id="Составная_фигура-43" data-name="Составная фигура">
      <path d="M661.52,318.89H534.78A18.76,18.76,0,0,0,516,337.65V473.29H680.27V337.65A18.75,18.75,0,0,0,661.52,318.89Z" transform="translate(-4.01 -8.99)" fill="#121214"/>
    </g>
    <g id="Составная_фигура-44" data-name="Составная фигура">
      <path d="M661.52,317.64H534.78a20,20,0,0,0-20,20V474.54H681.52V337.65A20,20,0,0,0,661.52,317.64ZM679,472H517.27V337.65a17.53,17.53,0,0,1,17.51-17.51H661.52A17.52,17.52,0,0,1,679,337.65Z" transform="translate(-4.01 -8.99)" fill="#fff"/>
    </g>
    <g id="Составная_фигура-45" data-name="Составная фигура">
      <rect x="512.05" y="450.5" width="164.25" height="13.8" fill="#e08c3c"/>
    </g>
    <g id="Составная_фигура-46" data-name="Составная фигура">
      <path d="M514.81,458.24v16.3H681.56v-16.3ZM679.06,472H517.31v-11.3H679.06Z" transform="translate(-4.01 -8.99)" fill="#5b141a"/>
    </g>
    <g id="Составная_фигура-47" data-name="Составная фигура">
      <path d="M514.81,382v26.8H681.56V382Zm164.25,24.3H517.31V384.5H679.06Z" transform="translate(-4.01 -8.99)" fill="#fff"/>
    </g>
    <g id="Составная_фигура-48" data-name="Составная фигура">
      <path d="M647.44,262.46l-7.63-40.22L618.48,201.6c-7.45-26.81-12.94-52-40.94-52h0a50.71,50.71,0,0,0-50.68,49,7.61,7.61,0,0,0,.66,3.32l39,85.56,18.3,43.75C622.83,331.19,656.23,299.48,647.44,262.46Z" transform="translate(-4.01 -8.99)" fill="#121214"/>
    </g>
    <g id="Составная_фигура-49" data-name="Составная фигура">
      <path d="M648.67,262.22l-7.7-40.6-21.38-20.68-1-3.61c-6.93-25.21-13.48-49-41.06-49a51.74,51.74,0,0,0-51.93,50.19,9,9,0,0,0,.77,3.89l39,85.54L584,332.44h.83c21.08,0,41.1-9.42,53.57-25.2C648.77,294.05,652.43,278.05,648.67,262.22Zm-12.28,43.46c-11.83,15-30.76,24-50.77,24.25l-18-43-39-85.57a6.57,6.57,0,0,1-.55-2.78,49.25,49.25,0,0,1,49.43-47.78c25.67,0,31.68,21.86,38.65,47.17l1.08,3.95.09.32,21.3,20.61,7.56,39.88C649.81,277.86,646.32,293.11,636.39,305.68Z" transform="translate(-4.01 -8.99)" fill="#fff"/>
    </g>
    <g id="Составная_фигура-50" data-name="Составная фигура">
      <path d="M550.68,303.65a15.3,15.3,0,0,0-15.53,15c-.09,4.42-3.64,108.23-121.36,108.23a15.27,15.27,0,0,0,0,30.53c77,0,114.38-37.74,132.17-69.4,19-33.79,19.69-67.44,19.71-68.86A15.24,15.24,0,0,0,550.68,303.65Z" transform="translate(-4.01 -8.99)" fill="#121214"/>
    </g>
    <g id="Составная_фигура-51" data-name="Составная фигура">
      <path d="M550.71,302.4a16.54,16.54,0,0,0-16.81,16.19c-.09,4.37-3.62,107-120.11,107a16.52,16.52,0,0,0,0,33c77.62,0,115.31-38.08,133.26-70,19.12-34,19.85-68,19.87-69.46A16.53,16.53,0,0,0,550.71,302.4Zm-5.84,85c-17.62,31.37-54.67,68.76-131.08,68.76a14,14,0,0,1,0-28c118.91,0,122.52-105,122.61-109.45a14,14,0,0,1,4.32-9.83,13.82,13.82,0,0,1,9.64-3.91h.3a14,14,0,0,1,13.76,14.19C564.4,320.5,563.69,353.86,544.87,387.36Z" transform="translate(-4.01 -8.99)" fill="#fff"/>
    </g>
    <g id="Составная_фигура-52" data-name="Составная фигура">
      <path d="M620.36,295H564.15a34.1,34.1,0,0,0-34.09,34.1v44.44l5.25,6.82v92.91H654.44V329.12A34.09,34.09,0,0,0,620.36,295Z" transform="translate(-4.01 -8.99)" fill="#121214" fill-rule="evenodd"/>
    </g>
    <g id="Составная_фигура-53" data-name="Составная фигура">
      <path d="M620.36,293.77H564.15a35.38,35.38,0,0,0-35.34,35.35V374l5.25,6.82v93.74H655.7V329.12A35.39,35.39,0,0,0,620.36,293.77ZM653.19,472H536.56V380l-5.25-6.82v-44a32.88,32.88,0,0,1,32.84-32.85h56.21a32.88,32.88,0,0,1,32.83,32.85Z" transform="translate(-4.01 -8.99)" fill="#fff" fill-rule="evenodd"/>
    </g>
    <g id="new_vector_shape_done-6" data-name="new_vector_shape_done">
      <path d="M631.88,356.23a47.13,47.13,0,0,0-4.73-10.41c-9.58-1.91-21.26-.75-30.74-2.84h-7.57c-5.06-1.1-12.44-.78-17.5-1.89h-7.57c-3.51-.76-8,0-12.3-.94a103.1,103.1,0,0,0-22.23-1.9c-1.12,2.28-3.77,3.27-5.2,5.21a37.57,37.57,0,0,0-5.68,11.82c-2.35,8.63,1.71,18.45,5.21,23.19,9.6,13,27.42,10.88,49.66,10.88h35.48c9.35-2.74,14.83-7.07,19.39-14.67C630.25,371.09,634,363.5,631.88,356.23Z" transform="translate(-4.01 -8.99)" fill="#121214" fill-rule="evenodd"/>
    </g>
    <g id="Составная_фигура-54" data-name="Составная фигура">
      <path d="M628.13,344.93a1.25,1.25,0,1,0-2.07,1.4A26.72,26.72,0,0,1,603.91,388H546a26.72,26.72,0,0,1-15.23-48.67,1.25,1.25,0,1,0-1.43-2.05A29.22,29.22,0,0,0,546,390.48h57.91a29.22,29.22,0,0,0,24.22-45.55Z" transform="translate(-4.01 -8.99)" fill="#fff" fill-rule="evenodd"/>
    </g>
    <g id="Составная_фигура-55" data-name="Составная фигура">
      <path d="M566.48,277.54V298.9c0,8,5.21,14.41,11.65,14.41h10.18c9.68,0,17.62-9.23,18.38-21q.06-.91.06-1.86V266.56Z" transform="translate(-4.01 -8.99)" fill="#121214" fill-rule="evenodd"/>
    </g>
    <g id="Составная_фигура-56" data-name="Составная фигура">
      <path d="M565.23,276.59V298.9c0,8.64,5.79,15.67,12.9,15.67H588.3c10.21,0,18.84-9.73,19.64-22.15,0-.65.06-1.28.06-1.94V264.92Zm40.27,13.89c0,.6,0,1.19-.06,1.78-.72,11.1-8.24,19.8-17.14,19.8H578.13c-5.73,0-10.4-5.9-10.4-13.16V278.5l37.77-10.31Z" transform="translate(-4.01 -8.99)" fill="#fff" fill-rule="evenodd"/>
    </g>
    <g id="new_vector_shape_done-7" data-name="new_vector_shape_done">
      <path d="M654.59,382.25V333.52c-10.58.33-20.21,3.67-30.27,4.73l-.48.48v43.52c0,6.75,1.16,15.37-.47,21.29a33.12,33.12,0,0,1-17,20.82c-5.7,2.82-14.23,2.36-22.7,2.36H525.46c-3.7,1-9.69,4.75-11.83,7.57-1.09,1.44-1.44,3.15-2.84,4.26-.34,7.27,1,12.7,5.68,16.09,5.6,4,17.4,2.84,27,2.84,22.77,0,55.22,3,71.9-3.79,19.9-8.08,32.31-23.32,38.31-45.42C655.61,401,654.59,390.9,654.59,382.25Z" transform="translate(-4.01 -8.99)" fill="#121214" fill-rule="evenodd"/>
    </g>
    <g id="Составная_фигура-57" data-name="Составная фигура">
      <path d="M654.45,332a1.25,1.25,0,0,0-1.26,1.25v63.19a59.69,59.69,0,0,1-59.62,59.64H525.71a14,14,0,0,1-14-14c0-7.45,12.06-13.44,14.16-14h67.71a31.64,31.64,0,0,0,31.6-31.61v-58.2a1.25,1.25,0,0,0-2.5,0v58.2a29.14,29.14,0,0,1-29.1,29.11H525.71l-.27,0a30.79,30.79,0,0,0-8.9,4.87c-4.81,3.65-7.35,7.67-7.35,11.62a16.54,16.54,0,0,0,16.52,16.51h67.86a62.2,62.2,0,0,0,62.13-62.14V333.29A1.25,1.25,0,0,0,654.45,332Z" transform="translate(-4.01 -8.99)" fill="#fff" fill-rule="evenodd"/>
    </g>
    <g id="new_vector_shape_done-8" data-name="new_vector_shape_done">
      <path d="M611.07,188.28c-3.32-4.73-9.45-8.07-15.61-9.94H543.91c-2,1.67-5.72,1.57-8,2.84-5.53,3-9.83,9.55-11.82,16.09v50.15c5.55,20.92,15.49,32.18,36.42,37.85,7,1.9,17.42,1.51,24.12-.95,16.33-6,25.95-18.71,30.28-36.9V220C614.86,208.14,615.94,195.2,611.07,188.28Z" transform="translate(-4.01 -8.99)" fill="#121214" fill-rule="evenodd"/>
    </g>
    <g id="Составная_фигура-58" data-name="Составная фигура">
      <path d="M616.26,208.9v-7.27a24.58,24.58,0,0,0-24.58-24.58H547.41a24.61,24.61,0,0,0-24.57,24.59v39.1a46.71,46.71,0,1,0,93.42,0V209A.57.57,0,0,0,616.26,208.9Zm-2.5,31.84a44.21,44.21,0,1,1-88.42,0v-39.1a22.1,22.1,0,0,1,22.07-22.08h44.27a22.09,22.09,0,0,1,22.08,22.08v11.24a.49.49,0,0,0,0,.12Z" transform="translate(-4.01 -8.99)" fill="#fff" fill-rule="evenodd"/>
    </g>
    <g id="Составная_фигура-59" data-name="Составная фигура">
      <path d="M553.91,259.72h-6.29c-2,0-2.39,2.79-5.41,2.53a20,20,0,0,1,1.39,2,6.73,6.73,0,0,0,2.68,2.48,11.42,11.42,0,0,0,9.63-.09,6.89,6.89,0,0,0,2.45-2.17l1.8-2.54C556.75,262,555.78,259.72,553.91,259.72Z" transform="translate(-4.01 -8.99)" fill="#00ffc4" fill-rule="evenodd"/>
    </g>
    <g id="Составная_фигура-60" data-name="Составная фигура">
      <path d="M560.16,260.71a5.7,5.7,0,0,1-3.42-1.17,5.06,5.06,0,0,0-2.83-1.07h-6.29a4.08,4.08,0,0,0-2.89,1.45,2.76,2.76,0,0,1-2.41,1.08l-3.74-.37,2.74,2.5a21.28,21.28,0,0,1,1.23,1.82,7.86,7.86,0,0,0,3.2,2.94,12.67,12.67,0,0,0,10.72-.1,8.12,8.12,0,0,0,2.91-2.56l3.21-4.52Zm-2.82,3.07a5.68,5.68,0,0,1-2,1.78,10.22,10.22,0,0,1-8.52.07,5.34,5.34,0,0,1-2.16-2l-.28-.42a6.47,6.47,0,0,0,2.06-1.44c.58-.55.85-.77,1.18-.77h6.29a3,3,0,0,1,1.48.67A9.61,9.61,0,0,0,558,262.9Z" transform="translate(-4.01 -8.99)" fill="#00ffc4" fill-rule="evenodd"/>
    </g>
    <g id="Составная_фигура-61" data-name="Составная фигура">
      <path d="M563.6,260.09a1.26,1.26,0,0,0-1.76,0s-2.89,2.64-10.45,2.64-11-2.66-11.09-2.71a1.25,1.25,0,0,0-1.75.16,1.26,1.26,0,0,0,.15,1.77c.16.13,4,3.29,12.69,3.29s12.06-3.23,12.2-3.36A1.25,1.25,0,0,0,563.6,260.09Z" transform="translate(-4.01 -8.99)" fill="#00ffc4" fill-rule="evenodd"/>
    </g>
    <g id="Составная_фигура-62" data-name="Составная фигура">
      <path d="M603.28,399H564.14a3.44,3.44,0,0,0-3.44,3.44v4.69a3.44,3.44,0,0,0,3.44,3.43h39.14a3.44,3.44,0,0,0,3.43-3.43v-4.69A3.44,3.44,0,0,0,603.28,399Zm.93,8.13a.93.93,0,0,1-.93.93H564.14a.92.92,0,0,1-.93-.93v-4.69a.92.92,0,0,1,.93-.93h39.14a.93.93,0,0,1,.93.93Z" transform="translate(-4.01 -8.99)" fill="#fff" fill-rule="evenodd"/>
    </g>
    <g id="Составная_фигура-63" data-name="Составная фигура">
      <path d="M565.12,409.28l3.51,45.88a2.79,2.79,0,0,0,2.78,2.57h24.47a2.79,2.79,0,0,0,2.78-2.55l3.63-45.9Z" transform="translate(-4.01 -8.99)" fill="#121214" fill-rule="evenodd"/>
    </g>
    <g id="Составная_фигура-64" data-name="Составная фигура">
      <path d="M596.16,392.94l-23.63-2.85a5.32,5.32,0,0,0-6,5.28v6.11h34.27v-3.26A5.32,5.32,0,0,0,596.16,392.94Zm2.18,6H569.07v-3.6a2.82,2.82,0,0,1,3.16-2.8l23.63,2.85a2.82,2.82,0,0,1,2.48,2.8Z" transform="translate(-4.01 -8.99)" fill="#fff" fill-rule="evenodd"/>
    </g>
    <g id="Составная_фигура-65" data-name="Составная фигура">
      <path d="M563.77,408l3.62,47.23a4,4,0,0,0,4,3.72h24.47a4,4,0,0,0,4-3.71L603.64,408Zm33.64,47a1.54,1.54,0,0,1-1.53,1.41H571.41a1.54,1.54,0,0,1-1.53-1.41l-3.41-44.54h34.47Z" transform="translate(-4.01 -8.99)" fill="#fff" fill-rule="evenodd"/>
    </g>
    <g id="new_vector_shape_done-9" data-name="new_vector_shape_done">
      <path d="M639.45,221.4c-1.79-7-2.15-14-3.78-20.35-2.25-8.78-2.11-17-5.68-24.13-10.73-21.55-29.91-32.06-62.91-31.69-1.67,1.06-3.82.31-6.15.94a98,98,0,0,0-14.19,4.73c-11.94,5.45-22.61,16.8-27.43,29.34-2.2,5.71-1.71,12.64-3.79,18.92,22.56,14.81,56.49,5.33,87,5.2a8.07,8.07,0,0,0,1.89,1.42v20.35c0,2.39-.51,6.47.47,8,1,.59,7.13-.35,9.46-.95,5.63-1.44,12.85-2.37,18.45-3.78,3.14-.79,5.8.05,8-1.42C641.35,226.81,639.9,223.16,639.45,221.4Z" transform="translate(-4.01 -8.99)" fill="#121214" fill-rule="evenodd"/>
    </g>
    <g id="Составная_фигура-66" data-name="Составная фигура">
      <path d="M635.29,190.91c-5.26-28.57-28.92-47-60.26-47-39.13,0-60.25,28.79-60.25,55.89v.61l.48.38c14.49,11.33,45.45,8.3,68.06,6.1,7.33-.72,13.66-1.34,18.26-1.36h0a1.74,1.74,0,0,1,1.22.5,1.79,1.79,0,0,1,.52,1.23l0,27.34h2.51l0-27.34a4.25,4.25,0,0,0-4.24-4.23h0c-4.71,0-11.1.64-18.5,1.37-21.93,2.14-51.87,5.06-65.78-5.22.35-34.28,29.91-52.77,57.74-52.77,30.08,0,52.77,17.66,57.8,45l7,37.17,2.46-.46Z" transform="translate(-4.01 -8.99)" fill="#fff" fill-rule="evenodd"/>
    </g>
    <g id="new_vector_shape_done-10" data-name="new_vector_shape_done">
      <path d="M614.86,224.23a5,5,0,0,1-2.84.48c-1.65,1.58-4.39,2.35-5.68,4.26-.92,1.35-.7,2.75-1.89,3.78.11,6,3.82,9.23,6.15,13.25,6.77,1.78,12.5,1.09,15.61-4.73C631.09,232.11,623,224.29,614.86,224.23Z" transform="translate(-4.01 -8.99)" fill="#121214" fill-rule="evenodd"/>
    </g>
    <g id="Составная_фигура-67" data-name="Составная фигура">
      <path d="M615.93,223.12a12.63,12.63,0,0,0-12.62,12.61,1.26,1.26,0,0,0,2.51,0,10.11,10.11,0,1,1,5.1,8.79,1.25,1.25,0,1,0-1.24,2.18,12.62,12.62,0,1,0,6.25-23.58Z" transform="translate(-4.01 -8.99)" fill="#fff" fill-rule="evenodd"/>
    </g>
    <g id="Составная_фигура-68" data-name="Составная фигура">
      <path d="M615.93,229.86a1.25,1.25,0,0,0,0,2.5,3.37,3.37,0,0,1,3.37,3.37,1.25,1.25,0,1,0,2.5,0A5.87,5.87,0,0,0,615.93,229.86Z" transform="translate(-4.01 -8.99)" fill="#fff" fill-rule="evenodd"/>
    </g>
    <g id="Составная_фигура-69" data-name="Составная фигура">
      <path d="M609.62,243a3,3,0,1,0,3,3A3,3,0,0,0,609.62,243Z" transform="translate(-4.01 -8.99)" fill="#00ffc4" fill-rule="evenodd"/>
    </g>
    <g id="Составная_фигура-70" data-name="Составная фигура">
      <path d="M523.62,427.29l-37.25,8a22.57,22.57,0,0,0-17.83,22.07h57.17V429A1.73,1.73,0,0,0,523.62,427.29Z" transform="translate(-4.01 -8.99)" fill="#121214" fill-rule="evenodd"/>
    </g>
    <g id="Составная_фигура-71" data-name="Составная фигура">
      <path d="M525.85,426.66a3,3,0,0,0-2.49-.59l-37.25,8a24,24,0,0,0-18.82,23.3v1.25H527V429A3,3,0,0,0,525.85,426.66Zm-1.4,29.46H469.83a21.45,21.45,0,0,1,16.81-19.6l37.25-8a.43.43,0,0,1,.39.09.44.44,0,0,1,.17.36Z" transform="translate(-4.01 -8.99)" fill="#fff" fill-rule="evenodd"/>
    </g>
    <g id="Составная_фигура-72" data-name="Составная фигура">
      <path d="M595.12,310c-16.41,6.87-26.1,1.14-28.32-8.22l-.25-1.33,5.24,28.39c1,5.43,6.45,7.33,9.6,3.36l19.47-24.58Z" transform="translate(-4.01 -8.99)" fill="#121214" fill-rule="evenodd"/>
    </g>
    <g id="Составная_фигура-73" data-name="Составная фигура">
      <path d="M594.64,308.87c-8.12,3.4-15,3.86-20,1.32a12.55,12.55,0,0,1-6.57-8.61l-.25-1.33-2.46.46,5.24,28.39a7.63,7.63,0,0,0,5.36,6.32,5.92,5.92,0,0,0,1.44.18,6.43,6.43,0,0,0,5-2.59l22.46-28.36Zm-14.23,22.58a3.75,3.75,0,0,1-3.89,1.54,5.17,5.17,0,0,1-3.5-4.34l-3.54-19.2a14.68,14.68,0,0,0,4,3c3.95,2,11,3.43,22.13-1.24l1.29-.53Z" transform="translate(-4.01 -8.99)" fill="#fff" fill-rule="evenodd"/>
    </g>
    <g id="Составная_фигура-74" data-name="Составная фигура">
      <path d="M605.85,291.15s-9.81,19.71-30.14,21.36l12.73,15.15a1.39,1.39,0,0,0,2.38-.3l18-32.47C610.14,292.45,607.83,289.57,605.85,291.15Z" transform="translate(-4.01 -8.99)" fill="#121214" fill-rule="evenodd"/>
    </g>
    <g id="Составная_фигура-75" data-name="Составная фигура">
      <path d="M609,290.19a3,3,0,0,0-3.95,0l-.21.17-.13.24c-.09.2-9.76,19.1-29.12,20.67l-2.41.2,14.28,17a2.66,2.66,0,0,0,2,1h.24a2.79,2.79,0,0,0,2.15-1.47L610,295.47A4.33,4.33,0,0,0,609,290.19Zm-1.25,4.09-18,32.47c-.09.16-.17.2-.2.2a.28.28,0,0,1-.13-.1l-11.24-13.37c18.1-2.72,27.33-19,28.66-21.47a.52.52,0,0,1,.61.11A1.79,1.79,0,0,1,607.77,294.28Z" transform="translate(-4.01 -8.99)" fill="#fff" fill-rule="evenodd"/>
    </g>
    <g id="Составная_фигура-76" data-name="Составная фигура">
      <path d="M573.56,311.34c-4-2.15-6.62-6.89-6.84-12.24l-.24-6,.07,33.69c0,.26.27.37.39.16l8.77-14.42Z" transform="translate(-4.01 -8.99)" fill="#121214" fill-rule="evenodd"/>
    </g>
    <g id="Составная_фигура-77" data-name="Составная фигура">
      <path d="M574.15,310.24c-3.55-1.93-6-6.32-6.18-11.2l-.24-6-2.5.05.07,33.69a1.53,1.53,0,0,0,1.08,1.47,1.74,1.74,0,0,0,.39.05,1.45,1.45,0,0,0,1.24-.71L577.46,312Zm-6.36,12.88,0-15.87a13.5,13.5,0,0,0,5.2,5.19l1,.54Z" transform="translate(-4.01 -8.99)" fill="#fff" fill-rule="evenodd"/>
    </g>
    <g id="Составная_фигура-78" data-name="Составная фигура">
      <path d="M550.76,246a5.62,5.62,0,0,1-5.61-5.61v-9.9a1.25,1.25,0,0,0-2.5,0v9.9a8.13,8.13,0,0,0,8.11,8.12,1.26,1.26,0,0,0,0-2.51Z" transform="translate(-4.01 -8.99)" fill="#fff" fill-rule="evenodd"/>
    </g>
  </g>
  <g id="Man_2" data-name="Man #2">
    <g id="Составная_фигура-79" data-name="Составная фигура">
      <path d="M362.92,318.3H230.43a20,20,0,0,0-20,20V484H382.92V338.31A20,20,0,0,0,362.92,318.3Zm17.5,163.2H212.93V338.31a17.52,17.52,0,0,1,17.5-17.5H362.92a17.52,17.52,0,0,1,17.5,17.5Z" transform="translate(-4.01 -8.99)" fill="#fff" fill-rule="evenodd"/>
    </g>
    <g id="Составная_фигура-80" data-name="Составная фигура">
      <path d="M333.86,285.39H278.23c-18.63,0-33.74,15.8-33.74,35.29V473.29H367.6V320.68C367.6,301.19,352.49,285.39,333.86,285.39Z" transform="translate(-4.01 -8.99)" fill="#121214" fill-rule="evenodd"/>
    </g>
    <g id="Составная_фигура-81" data-name="Составная фигура">
      <path d="M334.81,284.14H279.18c-19.3,0-35,16.39-35,36.54V474.54H369.8V320.68C369.8,300.53,354.1,284.14,334.81,284.14ZM367.29,472H246.69V320.68c0-18.77,14.57-34,32.49-34h55.63c17.91,0,32.48,15.26,32.48,34Z" transform="translate(-4.01 -8.99)" fill="#fff" fill-rule="evenodd"/>
    </g>
    <g id="new_vector_shape_done-11" data-name="new_vector_shape_done">
      <path d="M379.77,422H320.65l-18.45-.47c-26.63-7.43-25.54-26.21-25.54-59.61,0-9.83-1.25-21.8.47-30.75-.31-.32-.63-.63-.95-1-2.44-1.61-6.21-.63-9.46-1.42-6.46-1.56-14.66-3.63-21.75-3.78v36.9c0,12.73-1.84,28.62.94,39.74,7,27.75,23.39,44.11,51.09,51.09,11.34,2.87,29.85.95,43,.95h29.33c5.07,0,10.91.5,14.66-.95a18.79,18.79,0,0,0,8-6.62c1-1.65,1-3.93,2.37-5.2C394.56,430.63,387.12,424.53,379.77,422Z" transform="translate(-4.01 -8.99)" fill="#121214" fill-rule="evenodd"/>
    </g>
    <g id="Составная_фигура-82" data-name="Составная фигура">
      <path d="M387.91,425.63a31.5,31.5,0,0,0-9.2-5l-.13,0H308.21a30.2,30.2,0,0,1-30.16-30.17V330.17a1.26,1.26,0,0,0-2.51,0V390.4a32.71,32.71,0,0,0,32.67,32.67H378.3c2.15.6,14.69,6.81,14.69,14.55a14.57,14.57,0,0,1-14.54,14.55H308.21a61.83,61.83,0,0,1-61.75-61.77V325a1.25,1.25,0,0,0-2.5,0v65.4a64.33,64.33,0,0,0,64.25,64.27h70.24a17.07,17.07,0,0,0,17-17.05C395.49,433.55,392.87,429.4,387.91,425.63Z" transform="translate(-4.01 -8.99)" fill="#fff" fill-rule="evenodd"/>
    </g>
    <g id="Составная_фигура-83" data-name="Составная фигура">
      <path d="M290,265.23v18c0,.55,0,1.09.07,1.63a20.08,20.08,0,0,0,20,18.46h9.55a14.41,14.41,0,0,0,13-7.74,11,11,0,0,0,1.26-4.94V271.88Z" transform="translate(-4.01 -8.99)" fill="#121214" fill-rule="evenodd"/>
    </g>
    <g id="Составная_фигура-84" data-name="Составная фигура">
      <path d="M288.7,263.77v19.5c0,.59,0,1.16.07,1.73A21.43,21.43,0,0,0,310,304.61h9.55a15.72,15.72,0,0,0,14.07-8.43,12.21,12.21,0,0,0,1.39-5.5V270.81Zm43.85,26.9a9.8,9.8,0,0,1-1.13,4.38,13.19,13.19,0,0,1-11.83,7.05H310a18.91,18.91,0,0,1-18.77-17.31c0-.51-.07-1-.07-1.53V266.68L332.55,273Z" transform="translate(-4.01 -8.99)" fill="#5b141a" fill-rule="evenodd"/>
    </g>
    <g id="Составная_фигура-85" data-name="Составная фигура">
      <path d="M288.78,263.77v19.5c0,.59,0,1.16.07,1.73a21.44,21.44,0,0,0,21.27,19.61H321a14,14,0,0,0,14.11-13.72V270.81Zm43.85,26.9v.2A11.53,11.53,0,0,1,321,302.11h-10.9a18.91,18.91,0,0,1-18.77-17.31c-.05-.51-.07-1-.07-1.53V266.68L332.63,273Z" transform="translate(-4.01 -8.99)" fill="#fff" fill-rule="evenodd"/>
    </g>
    <g id="new_vector_shape_done-12" data-name="new_vector_shape_done">
      <path d="M363.22,216.66V187.8c-5.64-23.49-19.27-40.9-47.78-41.16-1.45.9-4.07,0-6.15.48a80.26,80.26,0,0,0-10.4,2.84c-11.95,4.65-22,15.75-26.49,27.91C269,187,270,200.66,270,212.88c0,8.84-1.55,19.93.47,27.91,4.84,19.13,15,29.47,32.64,36,3.87,1.43,14.8,3.73,20.33,2.84,21.22-3.43,32.8-10.93,38.79-29.33C364.89,242.2,363.22,226.59,363.22,216.66Z" transform="translate(-4.01 -8.99)" fill="#121214" fill-rule="evenodd"/>
    </g>
    <g id="Составная_фигура-86" data-name="Составная фигура">
      <path d="M316.39,146.18h0a47.71,47.71,0,0,0-47.77,47.68v6.45s0,.09,0,.14v32.37a47.73,47.73,0,0,0,47.78,47.7H324a40.2,40.2,0,0,0,40.19-40.12V193.86A47.78,47.78,0,0,0,316.39,146.18Zm45.27,94.22A37.7,37.7,0,0,1,324,278H316.4a45.26,45.26,0,0,1-45.28-45.21V204.5a.57.57,0,0,0,0-.13V193.86a45.24,45.24,0,0,1,45.27-45.19h0a45.29,45.29,0,0,1,45.27,45.19Z" transform="translate(-4.01 -8.99)" fill="#fff" fill-rule="evenodd"/>
    </g>
    <g id="Составная_фигура-87" data-name="Составная фигура">
      <path d="M260.54,224.9a1.07,1.07,0,0,0-.32-.38c-.3-3.59-.09-23.89.15-37.42a39.65,39.65,0,0,1,28.64-38,29.9,29.9,0,0,1,10.82-1.93h71.85l0,20.88a20.51,20.51,0,0,1-20.48,20.48h-46a15.22,15.22,0,0,0-12.92,7.27l-.15.24v11a17.89,17.89,0,0,1-17.87,17.87Z" transform="translate(-4.01 -8.99)" fill="#121214" fill-rule="evenodd"/>
      <path d="M370.67,148.17l0,19.88a19.5,19.5,0,0,1-19.48,19.48h-46a16.23,16.23,0,0,0-13.78,7.75l-.29.48V207a16.89,16.89,0,0,1-16.87,16.87h-13c-.24-4.67,0-24.39.19-36.82a38.66,38.66,0,0,1,27.91-37l.09,0,.08,0a28.92,28.92,0,0,1,10.38-1.83h70.84m2-2H299.83a30.83,30.83,0,0,0-11.1,2,40.53,40.53,0,0,0-29.36,39s-.66,38.24,0,38.24h0l.16,0c.38,0-.16.6-.16.6h14.82A18.87,18.87,0,0,0,293.06,207V196.32a14.14,14.14,0,0,1,12.07-6.79h46a21.48,21.48,0,0,0,21.48-21.48l0-21.88Z" transform="translate(-4.01 -8.99)" fill="#fff"/>
    </g>
    <g id="new_vector_shape_done-13" data-name="new_vector_shape_done">
      <path d="M266.25,214.3c-4.11,3.53-7,3.07-9,9.46-2.74,8.73,10.91,18.06,17,12.3,3.28-1.6,3.85-7.19,6.62-9.46C281.06,217.85,275.33,214,266.25,214.3Z" transform="translate(-4.01 -8.99)" fill="#121214" fill-rule="evenodd"/>
    </g>
    <g id="Составная_фигура-88" data-name="Составная фигура">
      <path d="M269.17,213a12.89,12.89,0,1,0,6.38,24.1,1.25,1.25,0,0,0-1.24-2.18,10.38,10.38,0,1,1,5.25-9,1.25,1.25,0,1,0,2.5,0A12.91,12.91,0,0,0,269.17,213Z" transform="translate(-4.01 -8.99)" fill="#fff" fill-rule="evenodd"/>
    </g>
    <g id="Составная_фигура-89" data-name="Составная фигура">
      <path d="M269.17,219.92a6,6,0,0,0-6,6,1.25,1.25,0,1,0,2.5,0,3.48,3.48,0,0,1,3.48-3.48,1.25,1.25,0,0,0,0-2.5Z" transform="translate(-4.01 -8.99)" fill="#fff" fill-rule="evenodd"/>
    </g>
    <g id="Составная_фигура-90" data-name="Составная фигура">
      <path d="M357.55,209.39a15,15,0,1,0,15,15A15,15,0,0,0,357.55,209.39Zm0,27.45A12.48,12.48,0,1,1,370,224.37,12.48,12.48,0,0,1,357.55,236.84Z" transform="translate(-4.01 -8.99)" fill="#00ffc4" fill-rule="evenodd"/>
    </g>
    <g id="Составная_фигура-91" data-name="Составная фигура">
      <path d="M319.63,209.39a15,15,0,1,0,15,15A15,15,0,0,0,319.63,209.39Zm0,27.45a12.48,12.48,0,1,1,12.48-12.47A12.49,12.49,0,0,1,319.63,236.84Z" transform="translate(-4.01 -8.99)" fill="#00ffc4" fill-rule="evenodd"/>
    </g>
    <g id="Составная_фигура-92" data-name="Составная фигура">
      <path d="M345.8,216.37H332a1.25,1.25,0,0,0,0,2.5H345.8a1.25,1.25,0,1,0,0-2.5Z" transform="translate(-4.01 -8.99)" fill="#00ffc4" fill-rule="evenodd"/>
    </g>
    <g id="Составная_фигура-93" data-name="Составная фигура">
      <path d="M304.65,223h0l-23,.1a1.25,1.25,0,0,0,0,2.5h0l23-.1a1.25,1.25,0,0,0,0-2.5Z" transform="translate(-4.01 -8.99)" fill="#00ffc4" fill-rule="evenodd"/>
    </g>
    <g id="Составная_фигура-94" data-name="Составная фигура">
      <path d="M322.57,251.91v1.25a11.24,11.24,0,0,0,22.47,0v-1.25Zm11.23,10a8.75,8.75,0,0,1-8.64-7.48h17.29A8.76,8.76,0,0,1,333.8,261.89Z" transform="translate(-4.01 -8.99)" fill="#fff" fill-rule="evenodd"/>
    </g>
  </g>
  <g id="Man_1" data-name="Man #1">
    <g id="Составная_фигура-95" data-name="Составная фигура">
      <path d="M240.19,313.6h-151a18.75,18.75,0,0,0-18.75,18.76V473.29H259V332.36A18.76,18.76,0,0,0,240.19,313.6Z" transform="translate(-4.01 -8.99)" fill="#121214" fill-rule="evenodd"/>
    </g>
    <g id="Составная_фигура-96" data-name="Составная фигура">
      <path d="M240.19,312.35h-151a20,20,0,0,0-20,20V474.54h191V332.36A20,20,0,0,0,240.19,312.35ZM257.69,472h-186V332.36a17.53,17.53,0,0,1,17.5-17.51h151a17.53,17.53,0,0,1,17.5,17.51Z" transform="translate(-4.01 -8.99)" fill="#fff" fill-rule="evenodd"/>
    </g>
    <g id="Составная_фигура-97" data-name="Составная фигура">
      <path d="M102.33,312.35c-8.08,0-14.66,6.16-14.66,13.72V474.54H117V312.35ZM114.49,472H90.17v-146c0-6.18,5.46-11.22,12.16-11.22h12.16Z" transform="translate(-4.01 -8.99)" fill="#fff" fill-rule="evenodd"/>
    </g>
    <g id="Составная_фигура-98" data-name="Составная фигура">
      <path d="M88.19,378.77v27.58h172V378.77Zm169.5,25.08h-167V381.27h167Z" transform="translate(-4.01 -8.99)" fill="#fff" fill-rule="evenodd"/>
    </g>
    <g id="Составная_фигура-99" data-name="Составная фигура">
      <path d="M364.48,425C243,425,239.34,317.88,239.24,313.32a15.75,15.75,0,0,0-31.49.51c0,1.46.75,36.19,20.34,71.07,18.35,32.67,56.91,71.61,136.39,71.61a15.75,15.75,0,0,0,0-31.5Z" transform="translate(-4.01 -8.99)" fill="#121214" fill-rule="evenodd"/>
    </g>
    <g id="Составная_фигура-100" data-name="Составная фигура">
      <path d="M364.48,423.76c-120.26,0-123.89-106-124-110.47a17,17,0,0,0-34,.56c0,1.48.76,36.52,20.5,71.66,18.51,33,57.4,72.26,137.48,72.26a17,17,0,0,0,0-34Zm0,31.5c-78.87,0-117.11-38.59-135.3-71-19.43-34.59-20.16-69-20.18-70.47a14.51,14.51,0,0,1,14.24-14.68h.31A14.54,14.54,0,0,1,238,313.35c.1,4.61,3.81,112.91,126.49,112.91a14.5,14.5,0,0,1,0,29Z" transform="translate(-4.01 -8.99)" fill="#fff" fill-rule="evenodd"/>
    </g>
    <g id="Составная_фигура-101" data-name="Составная фигура">
      <path d="M209.31,289h-58a35.18,35.18,0,0,0-35.18,35.18V473.29H244.49V324.16A35.18,35.18,0,0,0,209.31,289Z" transform="translate(-4.01 -8.99)" fill="#121214" fill-rule="evenodd"/>
    </g>
    <g id="Составная_фигура-102" data-name="Составная фигура">
      <path d="M209.31,287.72h-58a36.48,36.48,0,0,0-36.43,36.44V474.54H245.74V324.16A36.48,36.48,0,0,0,209.31,287.72ZM243.24,472H117.38V324.16a34,34,0,0,1,33.93-33.93h58a34,34,0,0,1,33.93,33.93Z" transform="translate(-4.01 -8.99)" fill="#fff" fill-rule="evenodd"/>
    </g>
    <g id="Составная_фигура-103" data-name="Составная фигура">
      <path d="M167.07,268.86v18c0,.55,0,1.09.07,1.63a20,20,0,0,0,20,18.4l10.23,15.28a2.86,2.86,0,0,0,5-.56c3-7.8,8.43-15.88,8.43-20.9V275.5Z" transform="translate(-4.01 -8.99)" fill="#121214" fill-rule="evenodd"/>
    </g>
    <g id="Составная_фигура-104" data-name="Составная фигура">
      <path d="M165.9,264v22.82c0,.58,0,1.15.07,1.73a21.38,21.38,0,0,0,20.53,19.54l10.3,15.48a3.65,3.65,0,0,0,3,1.62,2.55,2.55,0,0,0,.39,0,3.61,3.61,0,0,0,3-2.28c3.33-8.43,8.92-23.37,8.92-28.69V274.5Zm43.72,30.2c0,3.58-3.18,13.71-8.74,27.78a1.13,1.13,0,0,1-2,.2l-11-16.58h-.67a18.87,18.87,0,0,1-18.72-17.26c0-.51-.06-1-.06-1.52V267.17l41.22,9.33Z" transform="translate(-4.01 -8.99)" fill="#fff" fill-rule="evenodd"/>
    </g>
    <g id="new_vector_shape_done-14" data-name="new_vector_shape_done">
      <path d="M196.25,150.9c-2.94,1.93-9.82,2.31-13.25,3.79-11.61,5-20.64,15.67-25.07,27.91-3.23,8.93-1.89,23.31-1.89,35v25.55c5.11,21.18,16.06,32.75,36.9,38.32,4.19,1.12,18.1,2.29,23.65.95,18-4.37,27-15.28,32.16-32.65V190.64C242.29,165.72,228.11,150.57,196.25,150.9Z" transform="translate(-4.01 -8.99)" fill="#121214" fill-rule="evenodd"/>
    </g>
    <g id="Составная_фигура-105" data-name="Составная фигура">
      <path d="M202.3,149.3h0A47.68,47.68,0,0,0,154.62,197v6.44a.76.76,0,0,0,0,.15v32.36a47.7,47.7,0,0,0,47.69,47.71h7.55A40.16,40.16,0,0,0,250,243.52V197A47.73,47.73,0,0,0,202.3,149.3Zm45.17,94.22a37.65,37.65,0,0,1-37.61,37.62h-7.55a45.19,45.19,0,0,1-45.19-45.2V207.63a.66.66,0,0,0,0-.14V197A45.19,45.19,0,0,1,202.3,151.8h0A45.23,45.23,0,0,1,247.47,197Z" transform="translate(-4.01 -8.99)" fill="#fff" fill-rule="evenodd"/>
    </g>
    <g id="Составная_фигура-106" data-name="Составная фигура">
      <path d="M234.93,150.55h-35.2c-30.14,0-52.47,18.1-52.47,48.25v30.86h12.68c12.31,0,18.81-2,18.81-18.82a17,17,0,0,1,16.92-17l39.3-.08a21.63,21.63,0,0,0,0-43.25Z" transform="translate(-4.01 -8.99)" fill="#121214" fill-rule="evenodd"/>
    </g>
    <g id="Составная_фигура-107" data-name="Составная фигура">
      <path d="M235.08,149H199.82C167.63,149,146,169,146,198.74V231h14c13.62,0,20.1-3,20.1-20.17a15.77,15.77,0,0,1,15.7-15.78l39.36-.08a23,23,0,0,0,0-46Zm0,43.46-39.35.08a18.29,18.29,0,0,0-18.2,18.3c0,15.91-5.64,17.66-17.6,17.66H148.51V198.74c0-28.26,20.62-47.24,51.31-47.24h35.26a20.48,20.48,0,0,1,0,40.95Z" transform="translate(-4.01 -8.99)" fill="#fff" fill-rule="evenodd"/>
    </g>
    <g id="new_vector_shape_done-15" data-name="new_vector_shape_done">
      <path d="M152.26,218.08c-6.63,5-9.19,4.26-8.52,15.62,2.33,2.56,8,11.06,13.25,7.09,6.34-.32,5.87-7.34,9.46-10.41C166.61,221.77,161.14,217.82,152.26,218.08Z" transform="translate(-4.01 -8.99)" fill="#121214" fill-rule="evenodd"/>
    </g>
    <g id="Составная_фигура-108" data-name="Составная фигура">
      <path d="M154.93,216.8a12.86,12.86,0,1,0,6.37,24,1.25,1.25,0,0,0-1.24-2.18,10.35,10.35,0,1,1,5.23-9,1.25,1.25,0,0,0,2.5,0A12.88,12.88,0,0,0,154.93,216.8Z" transform="translate(-4.01 -8.99)" fill="#fff" fill-rule="evenodd"/>
    </g>
    <g id="Составная_фигура-109" data-name="Составная фигура">
      <path d="M154.93,223.68a6,6,0,0,0-6,6,1.25,1.25,0,0,0,2.5,0,3.47,3.47,0,0,1,3.47-3.47,1.26,1.26,0,0,0,0-2.51Z" transform="translate(-4.01 -8.99)" fill="#fff" fill-rule="evenodd"/>
    </g>
    <g id="Составная_фигура-110" data-name="Составная фигура">
      <polygon points="211.21 307.44 195.1 307.44 185.19 432.86 203.16 444.98 222.05 432.86 211.21 307.44" fill="#00ffc4" fill-rule="evenodd"/>
    </g>
    <g id="Составная_фигура-111" data-name="Составная фигура">
      <path d="M216.37,315.17H198L187.9,442.48l19.25,13,20.22-13ZM190.51,441.22l9.76-123.55h13.8L224.75,441.2l-17.57,11.27Z" transform="translate(-4.01 -8.99)" fill="#fff" fill-rule="evenodd"/>
    </g>
    <g id="new_vector_shape_done-16" data-name="new_vector_shape_done">
      <path d="M222.26,299.46c-.64-2.27-2.16-5.74-2.84-8s-.21-3.72-1.41-5.21v-.94h-5.68q-.48,8-1,16.08c1.68,7.8,4.1,16.62,4.26,25.08,2.46-1.52,1.91-6.84,2.84-9.94S223.3,303.16,222.26,299.46Z" transform="translate(-4.01 -8.99)" fill="#121214" fill-rule="evenodd"/>
    </g>
    <g id="Составная_фигура-112" data-name="Составная фигура">
      <path d="M222.89,298.75l-3.15-12.35a2.7,2.7,0,0,0-2.67-2.22h-4.68a1.25,1.25,0,0,0,0,2.5h4.68a.21.21,0,0,1,.21.18l3.17,12.45a10.79,10.79,0,0,1-.07,4.63l-4.1,17.45-3.65-21.47a1.24,1.24,0,0,0-1.44-1,1.26,1.26,0,0,0-1,1.45L215.89,334l6.93-29.49A13.31,13.31,0,0,0,222.89,298.75Z" transform="translate(-4.01 -8.99)" fill="#fff" fill-rule="evenodd"/>
    </g>
    <g id="Составная_фигура-113" data-name="Составная фигура">
      <path d="M165.88,279.85a3.11,3.11,0,0,0-3.11,3.11v7.79l36.93,36.76a.69.69,0,0,0,1.17-.49V300.13Z" transform="translate(-4.01 -8.99)" fill="#121214" fill-rule="evenodd"/>
    </g>
    <g id="Составная_фигура-114" data-name="Составная фигура">
      <path d="M167,279.18l-.3-.17h-.34a4.42,4.42,0,0,0-4.4,4.41v8.41l37.67,37.59A2,2,0,0,0,203,328v-28Zm33.44,47.48-35.95-35.88v-7.36a1.87,1.87,0,0,1,1.57-1.85l34.38,20Z" transform="translate(-4.01 -8.99)" fill="#fff" fill-rule="evenodd"/>
    </g>
    <g id="Составная_фигура-115" data-name="Составная фигура">
      <rect x="196.86" y="291.14" width="13.52" height="16.29" rx="2.99" ry="2.99" fill="#00ffc4"/>
    </g>
    <g id="Составная_фигура-116" data-name="Составная фигура">
      <path d="M211.75,299h-7.52a4.27,4.27,0,0,0-4.24,4.3v10.42a4.27,4.27,0,0,0,4.24,4.29h7.52a4.27,4.27,0,0,0,4.24-4.29V303.3A4.27,4.27,0,0,0,211.75,299Zm1.74,14.72a1.75,1.75,0,0,1-1.74,1.76h-7.52a1.75,1.75,0,0,1-1.74-1.76V303.3a1.75,1.75,0,0,1,1.74-1.77h7.52a1.75,1.75,0,0,1,1.74,1.77Z" transform="translate(-4.01 -8.99)" fill="#121214" fill-rule="evenodd"/>
    </g>
    <g id="new_vector_shape_done-17" data-name="new_vector_shape_done">
      <path d="M251.22,425.78H191.15c-7.31,0-15.34.6-20.81-1.42-9.32-3.44-16.75-11.63-19.87-21.29-2.19-6.8-.94-17.28-.94-25.55V326.9H118.31v37.37c0,12.63-1.92,33.55,1,44,7.81,28.56,25,41.6,53.92,49.21H255c3.37-1.25,7.58-4.23,9.46-7.1,1.07-1.64,1.12-3.8,2.36-5.2C266.9,434.66,259,428,251.22,425.78Z" transform="translate(-4.01 -8.99)" fill="#121214" fill-rule="evenodd"/>
    </g>
    <g id="Составная_фигура-117" data-name="Составная фигура">
      <path d="M258.43,430.67a31.38,31.38,0,0,0-9.18-5l-.13,0H179a30.11,30.11,0,0,1-30.07-30.08V327.79h-2.5v67.76A32.61,32.61,0,0,0,179,428.13h69.89c2.15.6,14.65,6.79,14.65,14.5A14.53,14.53,0,0,1,249,457.14H179a61.65,61.65,0,0,1-61.57-61.59V327.79h-2.5v67.76A64.15,64.15,0,0,0,179,459.64h70a17,17,0,0,0,17-17C266,438.58,263.37,434.44,258.43,430.67Z" transform="translate(-4.01 -8.99)" fill="#fff" fill-rule="evenodd"/>
    </g>
    <g id="Составная_фигура-118" data-name="Составная фигура">
      <rect x="149.2" y="389.83" width="43.5" height="9.06" rx="2.18" ry="2.18" fill="#121214"/>
    </g>
    <g id="Составная_фигура-119" data-name="Составная фигура">
      <path d="M194.53,397.56H155.39A3.44,3.44,0,0,0,152,401v4.7a3.44,3.44,0,0,0,3.43,3.43h39.14a3.44,3.44,0,0,0,3.44-3.43V401A3.44,3.44,0,0,0,194.53,397.56Zm.93,8.13a.93.93,0,0,1-.93.93H155.39a.93.93,0,0,1-.93-.93V401a.93.93,0,0,1,.93-.93h39.14a.93.93,0,0,1,.93.93Z" transform="translate(-4.01 -8.99)" fill="#fff" fill-rule="evenodd"/>
    </g>
    <g id="Составная_фигура-120" data-name="Составная фигура">
      <path d="M156.38,407.87,160,453.76a2.79,2.79,0,0,0,2.77,2.56h24.48a2.78,2.78,0,0,0,2.77-2.57l3.52-45.88Z" transform="translate(-4.01 -8.99)" fill="#121214" fill-rule="evenodd"/>
    </g>
    <g id="Составная_фигура-121" data-name="Составная фигура">
      <path d="M155,406.62l3.74,47.24a4.05,4.05,0,0,0,4,3.71h24.48a4,4,0,0,0,4-3.72l3.62-47.23Zm33.76,47a1.54,1.54,0,0,1-1.53,1.42H162.78a1.53,1.53,0,0,1-1.52-1.41l-3.53-44.54H192.2Z" transform="translate(-4.01 -8.99)" fill="#fff" fill-rule="evenodd"/>
    </g>
    <g id="Составная_фигура-122" data-name="Составная фигура">
      <path d="M186.29,389.92l-23.63,2.84a4.08,4.08,0,0,0-3.58,4.05v2h31.77V394A4.07,4.07,0,0,0,186.29,389.92Z" transform="translate(-4.01 -8.99)" fill="#121214" fill-rule="evenodd"/>
    </g>
    <g id="Составная_фигура-123" data-name="Составная фигура">
      <path d="M190.31,390a5.34,5.34,0,0,0-4.17-1.31l-23.63,2.85a5.32,5.32,0,0,0-4.68,5.29v3.25H192.1V394A5.35,5.35,0,0,0,190.31,390Zm-.71,7.58H160.33v-.75a2.82,2.82,0,0,1,2.48-2.8l23.63-2.85a2.82,2.82,0,0,1,3.16,2.8Z" transform="translate(-4.01 -8.99)" fill="#fff" fill-rule="evenodd"/>
    </g>
    <g id="Составная_фигура-124" data-name="Составная фигура">
      <path d="M211.34,254v1.25a11.23,11.23,0,1,0,22.46,0V254Zm11.23,10a8.75,8.75,0,0,1-8.64-7.49h17.28A8.74,8.74,0,0,1,222.57,264Z" transform="translate(-4.01 -8.99)" fill="#fff" fill-rule="evenodd"/>
    </g>
    <g id="Составная_фигура-125" data-name="Составная фигура">
      <path d="M231.16,218.84a1.25,1.25,0,0,0-1.25,1.25v15.75a5.76,5.76,0,0,1-5.76,5.76,1.26,1.26,0,0,0,0,2.51,8.28,8.28,0,0,0,8.27-8.27V220.09A1.26,1.26,0,0,0,231.16,218.84Z" transform="translate(-4.01 -8.99)" fill="#fff" fill-rule="evenodd"/>
    </g>
  </g>
  <g id="Cup">
    <g id="Составная_фигура-126" data-name="Составная фигура">
      <path d="M289.9,397.56H250.76a3.44,3.44,0,0,0-3.44,3.43v4.7a3.44,3.44,0,0,0,3.44,3.43H289.9a3.44,3.44,0,0,0,3.43-3.43V401A3.44,3.44,0,0,0,289.9,397.56Zm.93,8.13a.93.93,0,0,1-.93.93H250.76a.93.93,0,0,1-.93-.93V401a.93.93,0,0,1,.93-.93H289.9a.93.93,0,0,1,.93.93Z" transform="translate(-4.01 -8.99)" fill="#fff" fill-rule="evenodd"/>
    </g>
    <g id="Составная_фигура-127" data-name="Составная фигура">
      <path d="M251.74,407.87l3.51,45.88a2.8,2.8,0,0,0,2.78,2.57H282.5a2.8,2.8,0,0,0,2.78-2.56l3.63-45.89Z" transform="translate(-4.01 -8.99)" fill="#121214" fill-rule="evenodd"/>
    </g>
    <g id="Составная_фигура-128" data-name="Составная фигура">
      <path d="M282.78,391.52l-23.63-2.85a5.33,5.33,0,0,0-6,5.29v6.1h34.27v-3.25A5.32,5.32,0,0,0,282.78,391.52Zm2.18,6H255.69V394a2.82,2.82,0,0,1,3.16-2.8L282.48,394a2.82,2.82,0,0,1,2.48,2.8Z" transform="translate(-4.01 -8.99)" fill="#fff" fill-rule="evenodd"/>
    </g>
    <g id="Составная_фигура-129" data-name="Составная фигура">
      <path d="M250.39,406.62,254,453.85a4,4,0,0,0,4,3.72H282.5a4.05,4.05,0,0,0,4-3.71l3.74-47.24Zm33.64,47a1.55,1.55,0,0,1-1.53,1.41H258a1.54,1.54,0,0,1-1.53-1.41l-3.41-44.54h34.47Z" transform="translate(-4.01 -8.99)" fill="#fff" fill-rule="evenodd"/>
    </g>
  </g>
  <g id="Laptop">
    <g id="Составная_фигура-130" data-name="Составная фигура">
      <path d="M549.94,448.84H471.56v9.71h88.09A9.71,9.71,0,0,0,549.94,448.84Z" transform="translate(-4.01 -8.99)" fill="#121214" fill-rule="evenodd"/>
    </g>
    <g id="Составная_фигура-131" data-name="Составная фигура">
      <path d="M549.94,447.59H470.31v12.22h90.6v-1.26A11,11,0,0,0,549.94,447.59Zm-77.13,9.71v-7.21h77.13a8.47,8.47,0,0,1,8.37,7.21Z" transform="translate(-4.01 -8.99)" fill="#fff" fill-rule="evenodd"/>
    </g>
    <g id="Составная_фигура-132" data-name="Составная фигура">
      <path d="M457.45,341.49a15.28,15.28,0,0,0-15-12.38H282.39a15.28,15.28,0,0,0-15,18.19l21.35,110.43H479.93Z" transform="translate(-4.01 -8.99)" fill="#121214" fill-rule="evenodd"/>
    </g>
    <g id="Составная_фигура-133" data-name="Составная фигура">
      <path d="M458.68,341.25a16.57,16.57,0,0,0-16.23-13.4H282.39a16.55,16.55,0,0,0-16.23,19.68L287.71,459H481.44Zm-190.07,5.81a14,14,0,0,1,13.78-16.7H442.45a14.06,14.06,0,0,1,13.78,11.37l22.18,114.75H289.77Z" transform="translate(-4.01 -8.99)" fill="#fff" fill-rule="evenodd"/>
    </g>
    <g id="Составная_фигура-134" data-name="Составная фигура">
      <path d="M478,447.42a5.16,5.16,0,1,0,5.16,5.16A5.16,5.16,0,0,0,478,447.42Z" transform="translate(-4.01 -8.99)" fill="#121214" fill-rule="evenodd"/>
    </g>
    <g id="Составная_фигура-135" data-name="Составная фигура">
      <path d="M450.38,341.49a15.29,15.29,0,0,0-15-12.38h-160a15.29,15.29,0,0,0-15,18.19l21.35,110.43H472.85Z" transform="translate(-4.01 -8.99)" fill="#121214" fill-rule="evenodd"/>
    </g>
    <g id="Составная_фигура-136" data-name="Составная фигура">
      <path d="M362.37,382.17a15,15,0,1,0,15,15A15,15,0,0,0,362.37,382.17Z" transform="translate(-4.01 -8.99)" fill="#00ffc4" fill-rule="evenodd"/>
    </g>
    <g id="Составная_фигура-137" data-name="Составная фигура">
      <path d="M451.61,341.25a16.57,16.57,0,0,0-16.24-13.4h-160a16.55,16.55,0,0,0-16.24,19.68L280.63,459H474.37Zm-190.07,5.81a14,14,0,0,1,13.78-16.7H435.37a14.05,14.05,0,0,1,13.78,11.37l22.18,114.75H282.69Z" transform="translate(-4.01 -8.99)" fill="#fff" fill-rule="evenodd"/>
    </g>
    <g id="Составная_фигура-138" data-name="Составная фигура">
      <path d="M478,446.16a6.42,6.42,0,1,0,6.41,6.42A6.43,6.43,0,0,0,478,446.16Zm0,10.32a3.91,3.91,0,1,1,3.91-3.9A3.91,3.91,0,0,1,478,456.48Z" transform="translate(-4.01 -8.99)" fill="#fff" fill-rule="evenodd"/>
    </g>
  </g>
  <g id="Table">
    <g id="Составная_фигура-139" data-name="Составная фигура">
      <path d="M736.71,456.68H31.31a26.05,26.05,0,0,0-26,26.06H762.75A26.05,26.05,0,0,0,736.71,456.68Z" transform="translate(-4.01 -8.99)" fill="#121214" fill-rule="evenodd"/>
    </g>
    <g id="Составная_фигура-140" data-name="Составная фигура">
      <path d="M736.71,455.43H31.31A27.33,27.33,0,0,0,4,482.74V484H764v-1.25A27.34,27.34,0,0,0,736.71,455.43ZM6.54,481.48a24.84,24.84,0,0,1,24.77-23.55h705.4a24.83,24.83,0,0,1,24.76,23.55Z" transform="translate(-4.01 -8.99)" fill="#fff" fill-rule="evenodd"/>
    </g>
  </g>
</svg>
