<svg id="Illustration" xmlns="http://www.w3.org/2000/svg" viewBox="0 0 660 368.05">
  <title>03_freelancer</title>
  <g id="Man_2" data-name="Man #2">
    <g id="Составная_фигура" data-name="Составная фигура">
      <path d="M618.29,255H474.49a21.76,21.76,0,0,0-21.72,21.74V435H640V276.7A21.76,21.76,0,0,0,618.29,255Zm19,177.32H455.49V276.7a19,19,0,0,1,19-19h143.8a19,19,0,0,1,19,19Z" transform="translate(-80.01 -67.93)" fill="#fff"/>
    </g>
    <g id="Составная_фигура-2" data-name="Составная фигура">
      <path d="M486.68,234.65a15.3,15.3,0,0,0-15.53,15c-.09,4.42-3.64,108.23-121.36,108.23a15.27,15.27,0,0,0,0,30.53c77,0,114.38-37.74,132.17-69.4,19-33.79,19.69-67.44,19.71-68.86A15.24,15.24,0,0,0,486.68,234.65Z" transform="translate(-80.01 -67.93)" fill="#121214"/>
    </g>
    <g id="Составная_фигура-3" data-name="Составная фигура">
      <path d="M486.71,233.4a16.54,16.54,0,0,0-16.81,16.19c-.09,4.37-3.62,107-120.11,107a16.52,16.52,0,0,0,0,33c77.62,0,115.31-38.08,133.26-70,19.12-34,19.85-68,19.87-69.46A16.53,16.53,0,0,0,486.71,233.4Zm-5.84,85c-17.62,31.37-54.67,68.76-131.08,68.76a14,14,0,0,1,0-28c118.91,0,122.52-105,122.61-109.45a14,14,0,0,1,4.32-9.83,13.82,13.82,0,0,1,9.64-3.91h.3a14,14,0,0,1,13.76,14.19C500.4,251.5,499.69,284.86,480.87,318.36Z" transform="translate(-80.01 -67.93)" fill="#fff"/>
    </g>
    <g id="Составная_фигура-4" data-name="Составная фигура">
      <path d="M566.41,219.21H506c-20.23,0-36.62,17.16-36.62,38.34V423.36H603V257.55C603,236.37,586.64,219.21,566.41,219.21Z" transform="translate(-80.01 -67.93)" fill="#121214"/>
    </g>
    <g id="Составная_фигура-5" data-name="Составная фигура">
      <path d="M565.39,217.85H505c-20.94,0-38,17.81-38,39.7V424.72H603.37V257.55C603.37,235.66,586.33,217.85,565.39,217.85ZM600.65,422H469.74V257.55c0-20.39,15.82-37,35.26-37h60.39c19.44,0,35.26,16.59,35.26,37Z" transform="translate(-80.01 -67.93)" fill="#fff"/>
    </g>
    <g id="new_vector_shape_done">
      <path d="M602.52,302.34V262.25c-7.7.16-16.6,2.41-23.62,4.11-3.52.85-7.62-.21-10.27,1.54l-1,1c1.86,9.72.51,22.73.51,33.41,0,36.3,1.18,56.7-27.72,64.77l-20,.52H456.19c-8,2.75-16.05,9.38-15.91,20.56,1.49,1.38,1.45,3.86,2.56,5.65a20.49,20.49,0,0,0,8.73,7.2c4.08,1.57,10.41,1,15.92,1h31.83c14.32,0,34.41,2.08,46.72-1,30.07-7.6,47.92-25.37,55.45-55.52C604.51,333.44,602.52,316.17,602.52,302.34Z" transform="translate(-80.01 -67.93)" fill="#121214"/>
    </g>
    <g id="Составная_фигура-6" data-name="Составная фигура">
      <path d="M602.26,260.88a1.36,1.36,0,0,0-1.36,1.36V333.3a67.14,67.14,0,0,1-67,67.11H457.63a15.81,15.81,0,0,1-15.78-15.8c0-8.42,13.6-15.16,15.95-15.81h76.07a35.52,35.52,0,0,0,35.46-35.5V267.85a1.36,1.36,0,0,0-2.72,0V333.3a32.79,32.79,0,0,1-32.74,32.78H457.49l-.14,0a34.24,34.24,0,0,0-10,5.47c-5.38,4.1-8.23,8.6-8.23,13a18.53,18.53,0,0,0,18.5,18.52h76.24a69.87,69.87,0,0,0,69.75-69.83V262.24A1.36,1.36,0,0,0,602.26,260.88Z" transform="translate(-80.01 -67.93)" fill="#fff"/>
    </g>
    <g id="Составная_фигура-7" data-name="Составная фигура">
      <path d="M506.09,204.52v20.42a12.08,12.08,0,0,0,1.37,5.37,15.65,15.65,0,0,0,14.06,8.41h10.37a21.81,21.81,0,0,0,21.73-20.06c0-.58.07-1.17.07-1.77V197.29Z" transform="translate(-80.01 -67.93)" fill="#121214"/>
    </g>
    <g id="Составная_фигура-8" data-name="Составная фигура">
      <path d="M504.73,203.35v21.59a13.4,13.4,0,0,0,1.51,6,17.09,17.09,0,0,0,15.28,9.17h10.36A23.29,23.29,0,0,0,555,218.78c0-.62.08-1.24.08-1.88V195.71Zm47.6,13.55c0,.56,0,1.1-.07,1.66a20.54,20.54,0,0,1-20.37,18.81H521.52a14.36,14.36,0,0,1-12.85-7.66,10.71,10.71,0,0,1-1.22-4.76V205.69l44.88-6.82Z" transform="translate(-80.01 -67.93)" fill="#5b141a"/>
    </g>
    <g id="Составная_фигура-9" data-name="Составная фигура">
      <path d="M504.65,203.35v21.83A15.25,15.25,0,0,0,520,240.09H531.8a23.27,23.27,0,0,0,23.08-21.31c0-.62.08-1.24.08-1.88V195.71Zm47.6,13.55c0,.56,0,1.1-.08,1.66a20.54,20.54,0,0,1-20.37,18.81H520a12.53,12.53,0,0,1-12.61-12.21V205.69l44.89-6.82Z" transform="translate(-80.01 -67.93)" fill="#fff" fill-rule="evenodd"/>
    </g>
    <g id="new_vector_shape_done-2" data-name="new_vector_shape_done">
      <path d="M575.31,140.42c0-13.28,1.09-28.13-2.57-38C567.87,89.16,557,77.11,544,72.05A87.33,87.33,0,0,0,532.69,69c-2.25-.54-5.09.46-6.67-.51-30.95.27-45.74,19.2-51.86,44.72v31.36c0,10.78-1.82,27.75,1,36.5,6.5,20,19.07,28.14,42.1,31.87,6,1,17.87-1.54,22.08-3.09,19.13-7.05,30.16-18.28,35.42-39.07C577,162.07,575.31,150,575.31,140.42Z" transform="translate(-80.01 -67.93)" fill="#121214" fill-rule="evenodd"/>
    </g>
    <g id="Составная_фигура-10" data-name="Составная фигура">
      <path d="M576.84,126.75v-7A51.83,51.83,0,0,0,525,67.94h0a51.89,51.89,0,0,0-51.85,51.81v50.56a43.66,43.66,0,0,0,43.63,43.6H525a51.83,51.83,0,0,0,51.86-51.83V126.91A.92.92,0,0,0,576.84,126.75Zm-2.71,35.33A49.13,49.13,0,0,1,525,211.2h-8.21a41,41,0,0,1-40.92-40.89V119.75A49.18,49.18,0,0,1,525,70.65h0a49.11,49.11,0,0,1,49.14,49.1v11.41a.76.76,0,0,0,0,.15Z" transform="translate(-80.01 -67.93)" fill="#fff" fill-rule="evenodd"/>
    </g>
    <g id="Составная_фигура-11" data-name="Составная фигура">
      <path d="M570.8,153.57a19.52,19.52,0,0,1-19.48-19.51V122.14l-.15-.24a16.44,16.44,0,0,0-13.95-7.85h-50a22.35,22.35,0,0,1-22.31-22.34l0-22.78H543A32.51,32.51,0,0,1,554.66,71a43.22,43.22,0,0,1,31.23,41.39c.25,14.78.49,36.91.16,40.72a1,1,0,0,0-.38.45H570.8Z" transform="translate(-80.01 -67.93)" fill="#121214" fill-rule="evenodd"/>
      <path d="M543,69.93a31.6,31.6,0,0,1,11.34,2l.08,0,.08,0a42.18,42.18,0,0,1,30.43,40.43c.23,13.63.47,35.35.19,40.15H570.8a18.52,18.52,0,0,1-18.48-18.51v-12.2l-.3-.48a17.42,17.42,0,0,0-14.8-8.33h-50A21.36,21.36,0,0,1,465.93,91.7l0-21.77H543m0-2H463.89l0,23.78a23.32,23.32,0,0,0,23.31,23.34h50a15.36,15.36,0,0,1,13.1,7.37v11.64a20.5,20.5,0,0,0,20.48,20.51h16.09s-.59-.66-.17-.66l.17,0h0c.71,0,0-41.55,0-41.55A44,44,0,0,0,555,70.07a33.16,33.16,0,0,0-12-2.14Z" transform="translate(-80.01 -67.93)" fill="#fff"/>
    </g>
    <g id="new_vector_shape_done-3" data-name="new_vector_shape_done">
      <path d="M589.17,152.24c-2.18-7-5.29-6.45-9.75-10.28-9.86-.3-16.07,3.85-15.92,13.36,3,2.47,3.63,8.54,7.19,10.28C577.33,171.86,592.15,161.72,589.17,152.24Z" transform="translate(-80.01 -67.93)" fill="#121214" fill-rule="evenodd"/>
    </g>
    <g id="Составная_фигура-12" data-name="Составная фигура">
      <path d="M576.25,140.56a14,14,0,0,0-14,14,1.36,1.36,0,1,0,2.71,0,11.26,11.26,0,1,1,5.7,9.81,1.36,1.36,0,0,0-1.86.5,1.37,1.37,0,0,0,.51,1.86,14,14,0,1,0,6.93-26.18Z" transform="translate(-80.01 -67.93)" fill="#fff" fill-rule="evenodd"/>
    </g>
    <g id="Составная_фигура-13" data-name="Составная фигура">
      <path d="M576.25,148.06a1.36,1.36,0,0,0,0,2.72,3.79,3.79,0,0,1,3.78,3.79,1.36,1.36,0,1,0,2.71,0A6.51,6.51,0,0,0,576.25,148.06Z" transform="translate(-80.01 -67.93)" fill="#fff" fill-rule="evenodd"/>
    </g>
    <g id="Составная_фигура-14" data-name="Составная фигура">
      <path d="M480.32,136.63a16.27,16.27,0,1,0,16.25,16.27A16.29,16.29,0,0,0,480.32,136.63Zm0,29.82a13.56,13.56,0,1,1,13.54-13.55A13.56,13.56,0,0,1,480.32,166.45Z" transform="translate(-80.01 -67.93)" fill="#00ffc4" fill-rule="evenodd"/>
    </g>
    <g id="Составная_фигура-15" data-name="Составная фигура">
      <path d="M521.47,136.63a16.27,16.27,0,1,0,16.25,16.27A16.28,16.28,0,0,0,521.47,136.63Zm0,29.82A13.56,13.56,0,1,1,535,152.9,13.57,13.57,0,0,1,521.47,166.45Z" transform="translate(-80.01 -67.93)" fill="#00ffc4" fill-rule="evenodd"/>
    </g>
    <g id="Составная_фигура-16" data-name="Составная фигура">
      <path d="M508,144.21H493.07a1.36,1.36,0,0,0,0,2.72H508a1.36,1.36,0,1,0,0-2.72Z" transform="translate(-80.01 -67.93)" fill="#00ffc4" fill-rule="evenodd"/>
    </g>
    <g id="Составная_фигура-17" data-name="Составная фигура">
      <path d="M562.71,151.54l-25-.11h0a1.36,1.36,0,0,0,0,2.72l25,.11h0a1.36,1.36,0,0,0,0-2.72Z" transform="translate(-80.01 -67.93)" fill="#00ffc4" fill-rule="evenodd"/>
    </g>
    <g id="Составная_фигура-18" data-name="Составная фигура">
      <path d="M493.9,182.82v1.36a12.19,12.19,0,1,0,24.38,0v-1.36Zm12.19,10.85a9.5,9.5,0,0,1-9.38-8.13h18.76A9.5,9.5,0,0,1,506.09,193.67Z" transform="translate(-80.01 -67.93)" fill="#fff" fill-rule="evenodd"/>
    </g>
  </g>
  <g id="Table">
    <g id="Составная_фигура-19" data-name="Составная фигура">
      <path d="M717.41,409H105.6C93.12,409,83,420.63,83,435H740C740,420.63,729.89,409,717.41,409Z" transform="translate(-80.01 -67.93)" fill="#121214" fill-rule="evenodd"/>
    </g>
    <g id="Составная_фигура-20" data-name="Составная фигура">
      <path d="M716.3,407H103.71C90.64,407,80,419.43,80,434.72V436H740v-1.27C740,419.43,729.37,407,716.3,407ZM82.21,433.45c.57-13.3,10-23.91,21.5-23.91H716.3c11.51,0,20.94,10.61,21.5,23.91Z" transform="translate(-80.01 -67.93)" fill="#fff" fill-rule="evenodd"/>
    </g>
  </g>
  <g id="Laptop">
    <g id="Составная_фигура-21" data-name="Составная фигура">
      <path d="M496.05,396.45H411V407h95.63A10.55,10.55,0,0,0,496.05,396.45Z" transform="translate(-80.01 -67.93)" fill="#121214" fill-rule="evenodd"/>
    </g>
    <g id="Составная_фигура-22" data-name="Составная фигура">
      <path d="M496.05,395.09H409.6v13.28H508V407A11.93,11.93,0,0,0,496.05,395.09Zm-83.73,10.56v-7.84h83.73a9.2,9.2,0,0,1,9.08,7.84Z" transform="translate(-80.01 -67.93)" fill="#fff" fill-rule="evenodd"/>
    </g>
    <g id="Составная_фигура-23" data-name="Составная фигура">
      <path d="M395.65,279.81a16.6,16.6,0,0,0-16.29-13.46H205.63a16.61,16.61,0,0,0-16.29,19.77l23.18,120H420.05Z" transform="translate(-80.01 -67.93)" fill="#121214" fill-rule="evenodd"/>
    </g>
    <g id="Составная_фигура-24" data-name="Составная фигура">
      <path d="M397,279.55A18,18,0,0,0,379.36,265H205.63A18,18,0,0,0,188,286.38L211.4,407.47H421.69Zm-206.32,6.31a15.26,15.26,0,0,1,15-18.15H379.36a15.26,15.26,0,0,1,15,12.36L418.4,404.75H213.64Z" transform="translate(-80.01 -67.93)" fill="#fff" fill-rule="evenodd"/>
    </g>
    <g id="Составная_фигура-25" data-name="Составная фигура">
      <path d="M418,394.9a5.61,5.61,0,1,0,5.6,5.61A5.6,5.6,0,0,0,418,394.9Z" transform="translate(-80.01 -67.93)" fill="#121214" fill-rule="evenodd"/>
    </g>
    <g id="Составная_фигура-26" data-name="Составная фигура">
      <path d="M388,279.81a16.6,16.6,0,0,0-16.29-13.46H198a16.61,16.61,0,0,0-16.29,19.77l23.18,120H412.37Z" transform="translate(-80.01 -67.93)" fill="#121214" fill-rule="evenodd"/>
    </g>
    <g id="Составная_фигура-27" data-name="Составная фигура">
      <path d="M292.44,324a16.26,16.26,0,1,0,16.24,16.25A16.25,16.25,0,0,0,292.44,324Z" transform="translate(-80.01 -67.93)" fill="#00ffc4" fill-rule="evenodd"/>
    </g>
    <g id="Составная_фигура-28" data-name="Составная фигура">
      <path d="M389.31,279.55A18,18,0,0,0,371.68,265H198a18,18,0,0,0-17.62,21.39l23.38,121.09H414ZM183,285.86a15.26,15.26,0,0,1,15-18.15H371.68a15.26,15.26,0,0,1,15,12.36l24.08,124.68H206Z" transform="translate(-80.01 -67.93)" fill="#fff" fill-rule="evenodd"/>
    </g>
    <g id="Составная_фигура-29" data-name="Составная фигура">
      <path d="M418,393.54a7,7,0,1,0,6.95,7A7,7,0,0,0,418,393.54Zm0,11.22a4.25,4.25,0,1,1,4.24-4.25A4.26,4.26,0,0,1,418,404.76Z" transform="translate(-80.01 -67.93)" fill="#fff" fill-rule="evenodd"/>
    </g>
  </g>
  <g id="Cup">
    <g id="Составная_фигура-30" data-name="Составная фигура">
      <path d="M538.33,344.08H495.84a3.73,3.73,0,0,0-3.72,3.73v5.1a3.73,3.73,0,0,0,3.72,3.73h42.49a3.73,3.73,0,0,0,3.72-3.73v-5.1A3.73,3.73,0,0,0,538.33,344.08Zm1,8.83a1,1,0,0,1-1,1H495.84a1,1,0,0,1-1-1v-5.1a1,1,0,0,1,1-1h42.49a1,1,0,0,1,1,1Z" transform="translate(-80.01 -67.93)" fill="#fff" fill-rule="evenodd"/>
    </g>
    <g id="Составная_фигура-31" data-name="Составная фигура">
      <path d="M496.91,355.28l3.82,49.85a3,3,0,0,0,3,2.79h26.58a3,3,0,0,0,3-2.78l4-49.86Z" transform="translate(-80.01 -67.93)" fill="#121214" fill-rule="evenodd"/>
    </g>
    <g id="Составная_фигура-32" data-name="Составная фигура">
      <path d="M530.6,337.52,505,334.42a5.78,5.78,0,0,0-6.46,5.74v6.64h37.19v-3.54A5.77,5.77,0,0,0,530.6,337.52Zm2.37,6.56H501.2v-3.92a3.06,3.06,0,0,1,3.43-3l25.65,3.1a3.06,3.06,0,0,1,2.69,3Z" transform="translate(-80.01 -67.93)" fill="#fff" fill-rule="evenodd"/>
    </g>
    <g id="Составная_фигура-33" data-name="Составная фигура">
      <path d="M495.45,353.92l3.92,51.32a4.4,4.4,0,0,0,4.36,4h26.58a4.41,4.41,0,0,0,4.36-4l4.06-51.33ZM532,405a1.67,1.67,0,0,1-1.65,1.53H503.73a1.66,1.66,0,0,1-1.65-1.53l-3.7-48.39h37.41Z" transform="translate(-80.01 -67.93)" fill="#fff" fill-rule="evenodd"/>
    </g>
  </g>
  <g id="Money">
    <g id="Составная_фигура-34" data-name="Составная фигура">
      <path d="M353.8,155H262.21a2.21,2.21,0,0,0-2.2,2.21v39.59a2.21,2.21,0,0,0,2.2,2.22H353.8a2.21,2.21,0,0,0,2.2-2.22V157.2A2.21,2.21,0,0,0,353.8,155Zm.52,41.8a.52.52,0,0,1-.52.53H262.21a.52.52,0,0,1-.52-.53V157.2a.52.52,0,0,1,.52-.52H353.8a.52.52,0,0,1,.52.52Z" transform="translate(-80.01 -67.93)" fill="#fff" fill-rule="evenodd"/>
    </g>
    <g id="Составная_фигура-35" data-name="Составная фигура">
      <path d="M307.56,165.35A11.68,11.68,0,1,0,319.24,177,11.68,11.68,0,0,0,307.56,165.35Z" transform="translate(-80.01 -67.93)" fill="#fff" fill-rule="evenodd"/>
    </g>
    <g id="Составная_фигура-36" data-name="Составная фигура">
      <path d="M307.56,164.52A12.52,12.52,0,1,0,320.08,177,12.52,12.52,0,0,0,307.56,164.52Zm0,23.36A10.85,10.85,0,1,1,318.41,177,10.86,10.86,0,0,1,307.56,187.88Z" transform="translate(-80.01 -67.93)" fill="#5b141a" fill-rule="evenodd"/>
    </g>
    <g id="Составная_фигура-37" data-name="Составная фигура">
      <circle cx="227.56" cy="109.28" r="11.68" fill="#fff"/>
    </g>
    <g id="Составная_фигура-38" data-name="Составная фигура">
      <path d="M307.56,164.7a12.52,12.52,0,1,0,12.52,12.52A12.53,12.53,0,0,0,307.56,164.7Zm0,23.36a10.85,10.85,0,1,1,10.85-10.84A10.85,10.85,0,0,1,307.56,188.06Z" transform="translate(-80.01 -67.93)" fill="#5b141a" fill-rule="evenodd"/>
    </g>
    <g id="Составная_фигура-39" data-name="Составная фигура">
      <path d="M287.81,160.69H266.25a.84.84,0,1,0,0,1.67h21.56a.84.84,0,0,0,0-1.67Z" transform="translate(-80.01 -67.93)" fill="#5b141a" fill-rule="evenodd"/>
    </g>
    <g id="Составная_фигура-40" data-name="Составная фигура">
      <path d="M287.81,191.46H266.25a.85.85,0,0,0-.84.84.84.84,0,0,0,.84.83h21.56a.83.83,0,0,0,.83-.83A.84.84,0,0,0,287.81,191.46Z" transform="translate(-80.01 -67.93)" fill="#5b141a" fill-rule="evenodd"/>
    </g>
    <g id="Составная_фигура-41" data-name="Составная фигура">
      <path d="M348.54,160.69H327a.84.84,0,1,0,0,1.67h21.56a.84.84,0,1,0,0-1.67Z" transform="translate(-80.01 -67.93)" fill="#5b141a" fill-rule="evenodd"/>
    </g>
    <g id="Составная_фигура-42" data-name="Составная фигура">
      <path d="M348.54,191.46H327a.85.85,0,0,0-.84.84.84.84,0,0,0,.84.83h21.56a.84.84,0,0,0,.84-.83A.85.85,0,0,0,348.54,191.46Z" transform="translate(-80.01 -67.93)" fill="#5b141a" fill-rule="evenodd"/>
    </g>
    <g id="Составная_фигура-43" data-name="Составная фигура">
      <path d="M311.23,177.46a2.77,2.77,0,0,0-1.27-1,10.51,10.51,0,0,0-2.25-.59,6.63,6.63,0,0,1-2.19-.67,1.52,1.52,0,0,1-.68-1.35,2.05,2.05,0,0,1,.77-1.57,2.83,2.83,0,0,1,2-.7,3.59,3.59,0,0,1,2,.57,1.32,1.32,0,0,1,.66.9.67.67,0,0,0,.16.38.41.41,0,0,0,.28.11.42.42,0,0,0,.33-.14.62.62,0,0,0,.13-.45v-1.33a.62.62,0,0,0-.13-.45.42.42,0,0,0-.33-.14.38.38,0,0,0-.3.13.54.54,0,0,0-.14.39,5.27,5.27,0,0,0-1.1-.59,4.78,4.78,0,0,0-1.18-.22v-1.13a.7.7,0,0,0-.12-.46.44.44,0,0,0-.33-.14.42.42,0,0,0-.32.14.7.7,0,0,0-.12.46v1.13a3.67,3.67,0,0,0-2.31,1.06,2.89,2.89,0,0,0-.86,2,2.24,2.24,0,0,0,.8,1.87,7,7,0,0,0,2.84,1,12.34,12.34,0,0,1,1.87.45,2.28,2.28,0,0,1,1,.72,1.83,1.83,0,0,1,.32,1.07,2.1,2.1,0,0,1-.86,1.65,3.53,3.53,0,0,1-2.35.71,3.85,3.85,0,0,1-2.28-.59,1.8,1.8,0,0,1-.9-1.14.67.67,0,0,0-.12-.43.44.44,0,0,0-.32-.13.39.39,0,0,0-.33.14.7.7,0,0,0-.12.46v1.73a.65.65,0,0,0,.13.46.42.42,0,0,0,.32.14.46.46,0,0,0,.25-.08.4.4,0,0,0,.15-.18,2.11,2.11,0,0,0,0-.57,4.49,4.49,0,0,0,2.74,1.06v1.73a.72.72,0,0,0,.12.47.42.42,0,0,0,.32.14.44.44,0,0,0,.33-.14.72.72,0,0,0,.12-.47v-1.73a4.38,4.38,0,0,0,2.7-1.1,2.85,2.85,0,0,0,.94-2.12A2.69,2.69,0,0,0,311.23,177.46Z" transform="translate(-80.01 -67.93)" fill="#fff" fill-rule="evenodd"/>
    </g>
    <g id="Составная_фигура-44" data-name="Составная фигура">
      <path d="M311.93,177a3.61,3.61,0,0,0-1.61-1.3,11,11,0,0,0-2.46-.65,5.41,5.41,0,0,1-1.87-.55.68.68,0,0,1-.32-.65,1.22,1.22,0,0,1,.5-.95,2,2,0,0,1,1.41-.48,2.84,2.84,0,0,1,1.58.42.69.69,0,0,1,.3.34,1.42,1.42,0,0,0,.4.85,1.31,1.31,0,0,0,1.81-.06,1.49,1.49,0,0,0,.35-1v-1.33a1.47,1.47,0,0,0-.35-1,1.31,1.31,0,0,0-1.66-.18c-.19-.1-.38-.18-.55-.25a4.82,4.82,0,0,0-.63-.16v-.4a1.51,1.51,0,0,0-.33-1,1.31,1.31,0,0,0-1.9,0,1.46,1.46,0,0,0-.33,1V170a4.37,4.37,0,0,0-2.07,1.18,3.69,3.69,0,0,0-1.1,2.62,3,3,0,0,0,1.12,2.52,7.64,7.64,0,0,0,3.21,1.2,9.56,9.56,0,0,1,1.69.4,1.41,1.41,0,0,1,.64.44,1,1,0,0,1,.16.58,1.26,1.26,0,0,1-.55,1,2.84,2.84,0,0,1-1.82.52,3.15,3.15,0,0,1-1.8-.44,2,2,0,0,1-.55-.52,1.41,1.41,0,0,0-.36-1,1.31,1.31,0,0,0-1.87.06,1.47,1.47,0,0,0-.32,1v1.73a1.43,1.43,0,0,0,.34,1,1.29,1.29,0,0,0,1.66.19l.17-.14a5.39,5.39,0,0,0,1.45.49v1a1.47,1.47,0,0,0,.33,1,1.26,1.26,0,0,0,.95.42,1.24,1.24,0,0,0,.95-.42,1.47,1.47,0,0,0,.33-1v-1a4.86,4.86,0,0,0,2.46-1.22,3.69,3.69,0,0,0,1.19-2.72A3.62,3.62,0,0,0,311.93,177Z" transform="translate(-80.01 -67.93)" fill="#5b141a" fill-rule="evenodd"/>
    </g>
    <g id="Составная_фигура-45" data-name="Составная фигура">
      <path d="M326.64,138.94a11.68,11.68,0,1,0,1.51,16.45A11.68,11.68,0,0,0,326.64,138.94Z" transform="translate(-80.01 -67.93)" fill="#00ffc4" fill-rule="evenodd"/>
    </g>
    <g id="Составная_фигура-46" data-name="Составная фигура">
      <path d="M325.87,152.27a1.47,1.47,0,0,0-.57-.91l-.79-.65a4.77,4.77,0,0,0,.64-2.66,3.7,3.7,0,0,0-1.33-2.66,3.56,3.56,0,0,0-1.88-.85,3.68,3.68,0,0,0-2,.41,11.9,11.9,0,0,0-2.07,1.47,5.42,5.42,0,0,1-1.61,1.09.68.68,0,0,1-.7-.17,1.23,1.23,0,0,1-.42-1,2.05,2.05,0,0,1,.54-1.4A2.78,2.78,0,0,1,317,144a.67.67,0,0,1,.45,0,1.44,1.44,0,0,0,.91.23,1.26,1.26,0,0,0,.82-.44,1.31,1.31,0,0,0,.29-1,1.49,1.49,0,0,0-.56-.92l-1-.84a1.41,1.41,0,0,0-1-.39,1.25,1.25,0,0,0-.91.46,1.21,1.21,0,0,0-.29.7,4.54,4.54,0,0,0-.54.26,5.31,5.31,0,0,0-.53.38l-.3-.25a1.43,1.43,0,0,0-1-.4,1.27,1.27,0,0,0-.94.46,1.3,1.3,0,0,0-.28,1,1.5,1.5,0,0,0,.57.91l.33.27a4.41,4.41,0,0,0-.42,2.35,3.7,3.7,0,0,0,1.32,2.52,3.05,3.05,0,0,0,2.64.75,7.59,7.59,0,0,0,3-1.7,9.78,9.78,0,0,1,1.39-1.05,1.53,1.53,0,0,1,.75-.21,1.08,1.08,0,0,1,.55.25,1.26,1.26,0,0,1,.42,1.07,2.78,2.78,0,0,1-.77,1.73,3,3,0,0,1-1.48,1.1,2.43,2.43,0,0,1-.61.1h-.14a1.45,1.45,0,0,0-1-.33,1.28,1.28,0,0,0-1.16,1.48,1.5,1.5,0,0,0,.57.88l1.33,1.11a1.48,1.48,0,0,0,.95.39h.06a1.25,1.25,0,0,0,.91-.46,1.36,1.36,0,0,0,.29-.7.81.81,0,0,0,0-.22,5.12,5.12,0,0,0,1.31-.8l.77.64a1.46,1.46,0,0,0,1,.4,1.23,1.23,0,0,0,.92-.46A1.27,1.27,0,0,0,325.87,152.27Z" transform="translate(-80.01 -67.93)" fill="#121214" fill-rule="evenodd"/>
    </g>
    <g id="Составная_фигура-47" data-name="Составная фигура">
      <path d="M300.06,110.61a11.68,11.68,0,1,0-.71,16.5A11.68,11.68,0,0,0,300.06,110.61Z" transform="translate(-80.01 -67.93)" fill="#00ffc4" fill-rule="evenodd"/>
    </g>
    <g id="Составная_фигура-48" data-name="Составная фигура">
      <path d="M298.76,116.09a1.24,1.24,0,0,0-.64-.38,3.79,3.79,0,0,0-.2-.57,3.16,3.16,0,0,0-.3-.57l.29-.27a1.45,1.45,0,0,0,.53-.93,1.29,1.29,0,0,0-1.28-1.4,1.47,1.47,0,0,0-1,.45l-.31.28a4.32,4.32,0,0,0-2.27-.72,3.65,3.65,0,0,0-2.68,1,3.07,3.07,0,0,0-1.1,2.52,7.64,7.64,0,0,0,1.29,3.18,12.25,12.25,0,0,1,.85,1.51,1.42,1.42,0,0,1,.1.78,1,1,0,0,1-.32.51,1.22,1.22,0,0,1-1.11.27,2.82,2.82,0,0,1-1.61-1,3,3,0,0,1-.89-1.62,1.8,1.8,0,0,1,0-.76,1.47,1.47,0,0,0,.46-.91,1.23,1.23,0,0,0-.34-.93,1.25,1.25,0,0,0-1-.42,1.48,1.48,0,0,0-1,.45l-1.28,1.17a1.45,1.45,0,0,0-.52.94,1.27,1.27,0,0,0,1,1.35l.21,0a5.47,5.47,0,0,0,.62,1.41l-.74.67a1.52,1.52,0,0,0-.53.93,1.27,1.27,0,0,0,.34,1,1.22,1.22,0,0,0,.92.41h0a1.43,1.43,0,0,0,1-.44l.75-.69a4.83,4.83,0,0,0,2.55,1,3.72,3.72,0,0,0,2.82-1,3.53,3.53,0,0,0,1.09-1.76,3.58,3.58,0,0,0-.13-2.06,10.75,10.75,0,0,0-1.18-2.25,5.39,5.39,0,0,1-.86-1.75.68.68,0,0,1,.26-.67,1.21,1.21,0,0,1,1-.28,2,2,0,0,1,1.31.72,2.76,2.76,0,0,1,.75,1.44c0,.25,0,.39-.05.45a1.54,1.54,0,0,0-.35.88,1.25,1.25,0,0,0,.33.86,1.27,1.27,0,0,0,.94.42h0a1.44,1.44,0,0,0,1-.43l1-.89a1.45,1.45,0,0,0,.52-1A1.25,1.25,0,0,0,298.76,116.09Z" transform="translate(-80.01 -67.93)" fill="#121214" fill-rule="evenodd"/>
    </g>
    <g id="Составная_фигура-49" data-name="Составная фигура">
      <path d="M178.17,84.46h91.26a1.36,1.36,0,0,1,1.36,1.36V125a1.35,1.35,0,0,1-1.35,1.35H178.17a1.35,1.35,0,0,1-1.35-1.35V85.82A1.35,1.35,0,0,1,178.17,84.46Z" fill="#121214"/>
    </g>
    <g id="Составная_фигура-50" data-name="Составная фигура">
      <path d="M349.81,152H258.19a2.19,2.19,0,0,0-2.2,2.16v38.66a2.19,2.19,0,0,0,2.2,2.17h91.62a2.19,2.19,0,0,0,2.2-2.17V154.16A2.19,2.19,0,0,0,349.81,152Zm.52,40.82a.52.52,0,0,1-.52.52H258.19a.52.52,0,0,1-.52-.52V154.16a.51.51,0,0,1,.52-.51h91.62a.51.51,0,0,1,.52.51Z" transform="translate(-80.01 -67.93)" fill="#fff" fill-rule="evenodd"/>
    </g>
    <g id="Составная_фигура-51" data-name="Составная фигура">
      <path d="M303.2,160.83a12.52,12.52,0,1,0,12.51,12.52A12.54,12.54,0,0,0,303.2,160.83Zm0,23.37A10.85,10.85,0,1,1,314,173.35,10.86,10.86,0,0,1,303.2,184.2Z" transform="translate(-80.01 -67.93)" fill="#fff" fill-rule="evenodd"/>
    </g>
    <g id="Составная_фигура-52" data-name="Составная фигура">
      <path d="M283.17,157H261.84a1,1,0,0,0,0,2h21.33a1,1,0,0,0,0-2Z" transform="translate(-80.01 -67.93)" fill="#fff" fill-rule="evenodd"/>
    </g>
    <g id="Составная_фигура-53" data-name="Составная фигура">
      <path d="M283.17,188H261.84a1,1,0,0,0,0,2h21.33a1,1,0,0,0,0-2Z" transform="translate(-80.01 -67.93)" fill="#fff" fill-rule="evenodd"/>
    </g>
    <g id="Составная_фигура-54" data-name="Составная фигура">
      <path d="M344.18,157H322.83a1,1,0,0,0,0,2h21.35a1,1,0,0,0,0-2Z" transform="translate(-80.01 -67.93)" fill="#fff" fill-rule="evenodd"/>
    </g>
    <g id="Составная_фигура-55" data-name="Составная фигура">
      <path d="M344.18,188H322.83a1,1,0,0,0,0,2h21.35a1,1,0,0,0,0-2Z" transform="translate(-80.01 -67.93)" fill="#fff" fill-rule="evenodd"/>
    </g>
    <g id="Составная_фигура-56" data-name="Составная фигура">
      <path d="M307.56,173.14a3.64,3.64,0,0,0-1.61-1.31,11.57,11.57,0,0,0-2.45-.65,5.65,5.65,0,0,1-1.87-.54.68.68,0,0,1-.32-.65,1.24,1.24,0,0,1,.5-1,2,2,0,0,1,1.41-.48,2.73,2.73,0,0,1,1.57.43c.21.14.29.25.3.34a1.45,1.45,0,0,0,.41.84,1.29,1.29,0,0,0,1.8-.06,1.45,1.45,0,0,0,.35-1v-1.32a1.45,1.45,0,0,0-.35-1,1.31,1.31,0,0,0-1.66-.19,3.68,3.68,0,0,0-.55-.24,4.61,4.61,0,0,0-.62-.17v-.39a1.47,1.47,0,0,0-.33-1,1.32,1.32,0,0,0-1.9,0,1.47,1.47,0,0,0-.33,1v.42a4.34,4.34,0,0,0-2.07,1.19,3.67,3.67,0,0,0-1.1,2.62,3.05,3.05,0,0,0,1.11,2.51,7.63,7.63,0,0,0,3.22,1.21,10.59,10.59,0,0,1,1.69.39,1.47,1.47,0,0,1,.63.44,1,1,0,0,1,.17.59,1.24,1.24,0,0,1-.56,1,2.73,2.73,0,0,1-1.81.52,3.13,3.13,0,0,1-1.8-.44,1.63,1.63,0,0,1-.55-.52,1.47,1.47,0,0,0-.36-1,1.31,1.31,0,0,0-1.88.05,1.52,1.52,0,0,0-.32,1v1.74a1.45,1.45,0,0,0,.35,1,1.3,1.3,0,0,0,1.66.18l.16-.13a5.84,5.84,0,0,0,1.46.49v1a1.49,1.49,0,0,0,.33,1,1.28,1.28,0,0,0,1.9,0,1.49,1.49,0,0,0,.33-1v-1a4.85,4.85,0,0,0,2.45-1.21,3.71,3.71,0,0,0,1.2-2.72A3.5,3.5,0,0,0,307.56,173.14Z" transform="translate(-80.01 -67.93)" fill="#fff" fill-rule="evenodd"/>
    </g>
  </g>
</svg>
