<svg id="Illustration" xmlns="http://www.w3.org/2000/svg" viewBox="0 0 660 369">
  <title>04_employer</title>
  <g id="Man_3" data-name="Man #3">
    <g id="Составная_фигура" data-name="Составная фигура">
      <path d="M588.29,228H444.49a21.76,21.76,0,0,0-21.72,21.74V408H610V249.7A21.76,21.76,0,0,0,588.29,228Zm19,177.32H425.49V249.7a19,19,0,0,1,19-19h143.8a19,19,0,0,1,19,19Z" transform="translate(-50.01 -39.99)" fill="#fff" fill-rule="evenodd"/>
    </g>
    <g id="Составная_фигура-2" data-name="Составная фигура">
      <path d="M460.68,208.65a15.3,15.3,0,0,0-15.53,15c-.09,4.42-3.64,108.23-121.36,108.23a15.27,15.27,0,0,0,0,30.53c77,0,114.38-37.74,132.17-69.4,19-33.79,19.69-67.44,19.71-68.86A15.24,15.24,0,0,0,460.68,208.65Z" transform="translate(-50.01 -39.99)" fill="#121214" fill-rule="evenodd"/>
    </g>
    <g id="Составная_фигура-3" data-name="Составная фигура">
      <path d="M460.71,207.4a16.54,16.54,0,0,0-16.81,16.19c-.09,4.37-3.62,107-120.11,107a16.52,16.52,0,0,0,0,33c77.62,0,115.31-38.08,133.26-70,19.12-34,19.85-68,19.87-69.46A16.53,16.53,0,0,0,460.71,207.4Zm-5.84,85c-17.62,31.37-54.67,68.76-131.08,68.76a14,14,0,0,1,0-28c118.91,0,122.52-105,122.61-109.45a14,14,0,0,1,4.32-9.83,13.82,13.82,0,0,1,9.64-3.91h.3a14,14,0,0,1,13.76,14.19C474.4,225.5,473.69,258.86,454.87,292.36Z" transform="translate(-50.01 -39.99)" fill="#fff" fill-rule="evenodd"/>
    </g>
    <g id="Составная_фигура-4" data-name="Составная фигура">
      <path d="M572.29,227c0-26.88-24.71-38.06-43.29-37.4H475.16a29.68,29.68,0,0,0-29.68,29.69L445,382l120.11,17.82,7.36-167Z" transform="translate(-50.01 -39.99)" fill="#121214" fill-rule="evenodd"/>
    </g>
    <g id="Составная_фигура-5" data-name="Составная фигура">
      <path d="M573.54,227c0-10.43-3.74-19.55-10.8-26.37C552.83,191,538.8,188,529,188.32H475.17a31,31,0,0,0-30.94,30.94L444,343s-.05,39,0,39H566l7.72-149.18ZM564,380H447l-.27-160.74a28.47,28.47,0,0,1,28.44-28.44H529c9.32-.33,22.61,2.53,32,11.56,6.66,6.43,10,14.7,10,24.59l.18,5.84Z" transform="translate(-50.01 -39.99)" fill="#fff" fill-rule="evenodd"/>
    </g>
    <g id="Составная_фигура-6" data-name="Составная фигура">
      <polygon points="429.37 151.18 429.37 237.29 472.82 154.22 429.37 151.18" fill="#121214" fill-rule="evenodd"/>
    </g>
    <g id="Составная_фигура-7" data-name="Составная фигура">
      <path d="M480.45,172v29.85a2.61,2.61,0,0,0,2.61,2.61H505a20.7,20.7,0,0,0,20.64-19c0-.56.07-1.12.07-1.68V165.16Z" transform="translate(-50.01 -39.99)" fill="#121214" fill-rule="evenodd"/>
    </g>
    <g id="Составная_фигура-8" data-name="Составная фигура">
      <path d="M479.2,171v30.92a3.86,3.86,0,0,0,3.86,3.86H505a22.06,22.06,0,0,0,21.89-20.18c0-.6.07-1.18.07-1.78V163.7Zm45.21,12.82c0,.53,0,1-.07,1.58A19.54,19.54,0,0,1,505,203.23H483.06a1.36,1.36,0,0,1-1.36-1.36V173.1l42.71-6.48Z" transform="translate(-50.01 -39.99)" fill="#5b141a" fill-rule="evenodd"/>
    </g>
    <g id="Составная_фигура-9" data-name="Составная фигура">
      <path d="M479.11,171v29.84a5,5,0,0,0,4.95,4.94h20.81a22.05,22.05,0,0,0,21.88-20.18c0-.6.08-1.18.08-1.78V163.7Zm45.22,12.82c0,.53,0,1-.07,1.58a19.54,19.54,0,0,1-19.39,17.88H484.06a2.45,2.45,0,0,1-2.45-2.44V173.1l42.72-6.48Z" transform="translate(-50.01 -39.99)" fill="#fff" fill-rule="evenodd"/>
    </g>
    <g id="Составная_фигура-10" data-name="Составная фигура">
      <path d="M516.32,86.68a10.75,10.75,0,0,1,.33,1.18l.49,2.25,6.39,29.55A6.14,6.14,0,0,0,535,121.12l10.13-8.5V86.68Z" transform="translate(-50.01 -39.99)" fill="#5b141a" fill-rule="evenodd"/>
    </g>
    <g id="Составная_фигура-11" data-name="Составная фигура">
      <path d="M514.59,85.43l.55,1.64c.11.34.21.71.29,1.06l6.88,31.79a7.3,7.3,0,0,0,6.28,5.77,6.46,6.46,0,0,0,1,.07,7.31,7.31,0,0,0,6.44-3.83l10.39-8.73V85.43ZM543.89,112,534,120.33l-.12.23a4.88,4.88,0,0,1-9.14-1.17L518,87.93h25.94Z" transform="translate(-50.01 -39.99)" fill="#5b141a" fill-rule="evenodd"/>
    </g>
    <g id="new_vector_shape_done">
      <path d="M536.81,112.83c-2,1.83-5.08,2.44-6.62,4.73-1.13,1.67-1.09,4.2-2.37,5.68.9,4.54,4.87,8.72,7.1,12.3C555.5,141.18,559.58,112,536.81,112.83Z" transform="translate(-50.01 -39.99)" fill="#121214" fill-rule="evenodd"/>
    </g>
    <g id="Составная_фигура-12" data-name="Составная фигура">
      <path d="M540.26,111.36A13.27,13.27,0,0,0,527,124.62a1.25,1.25,0,0,0,2.5,0,10.74,10.74,0,1,1,5.42,9.34,1.25,1.25,0,0,0-1.24,2.17,13.25,13.25,0,1,0,6.56-24.77Z" transform="translate(-50.01 -39.99)" fill="#fff" fill-rule="evenodd"/>
    </g>
    <g id="Составная_фигура-13" data-name="Составная фигура">
      <path d="M540.26,118.48a1.25,1.25,0,0,0,0,2.5,3.63,3.63,0,0,1,3.63,3.64,1.26,1.26,0,0,0,2.51,0A6.14,6.14,0,0,0,540.26,118.48Z" transform="translate(-50.01 -39.99)" fill="#fff" fill-rule="evenodd"/>
    </g>
    <g id="new_vector_shape_done-2" data-name="new_vector_shape_done">
      <path d="M535.39,75.93a28.39,28.39,0,0,0-11.82-9.47c-5.37-2-13.22-1.41-20.34-1.41h-36.9c-1.85,1.13-5,.64-7.09,1.41a27.83,27.83,0,0,0-13.72,12.31c-4.33,8.38-2.36,25.34-2.36,37.37,0,9-1.59,22.44.47,30.28,6.05,23,19.71,32.7,49.19,32.64,6,0,11.56-.85,16.08-2.83,16.28-7.15,25.63-19.38,30.28-38.33V108.57C539.18,96.47,540.3,83.08,535.39,75.93Z" transform="translate(-50.01 -39.99)" fill="#121214" fill-rule="evenodd"/>
    </g>
    <g id="Составная_фигура-14" data-name="Составная фигура">
      <path d="M540.55,97.5V89.83A25.88,25.88,0,0,0,514.66,64H467.91A25.91,25.91,0,0,0,442,89.84V139a41.49,41.49,0,0,0,41.44,41.45h7.81a49.27,49.27,0,0,0,49.27-49.28V97.65C540.56,97.6,540.55,97.55,540.55,97.5Zm-2.5,33.62a46.77,46.77,0,0,1-46.77,46.78h-7.81a39,39,0,0,1-38.94-39V89.84a23.41,23.41,0,0,1,23.38-23.39h46.75a23.39,23.39,0,0,1,23.39,23.38v41.29Z" transform="translate(-50.01 -39.99)" fill="#fff" fill-rule="evenodd"/>
    </g>
    <g id="Составная_фигура-15" data-name="Составная фигура">
      <path d="M469.73,142.46a6,6,0,0,1-6-6V120.18a1.26,1.26,0,1,0-2.51,0v16.28a8.51,8.51,0,0,0,8.51,8.5,1.25,1.25,0,0,0,0-2.5Z" transform="translate(-50.01 -39.99)" fill="#fff" fill-rule="evenodd"/>
    </g>
    <g id="Составная_фигура-16" data-name="Составная фигура">
      <path d="M503,41.24h0c-.1,0-.2,0,.29.06l-68.09-.06,0,18c0,17,9.67,30.83,26.71,30.83h9.55a54.85,54.85,0,0,0,29.42-8.55l.28-.18a10.2,10.2,0,0,1,15.45,6.49l.48,2.24,6.4,29.56A6.14,6.14,0,0,0,535,121.13l10.14-8.51V83.39A42.15,42.15,0,0,0,503,41.24Z" transform="translate(-50.01 -39.99)" fill="#121214" fill-rule="evenodd"/>
    </g>
    <g id="Составная_фигура-17" data-name="Составная фигура">
      <path d="M503,40h-1.28v0L434,40l0,19.28c.05,19.19,11.28,32.08,28,32.08h9.55a56,56,0,0,0,30.09-8.75l.28-.17a9,9,0,0,1,13.56,5.69l6.87,31.81a7.31,7.31,0,0,0,6.29,5.76,6.42,6.42,0,0,0,1,.07,7.29,7.29,0,0,0,6.44-3.83l10.4-8.73V83.39A43.45,43.45,0,0,0,503,40Zm40.89,72-9.89,8.3-.11.23a4.89,4.89,0,0,1-9.14-1.16l-6.4-29.56-.48-2.24a11.33,11.33,0,0,0-6.77-8.18,11.48,11.48,0,0,0-4.46-.91,11.31,11.31,0,0,0-6.11,1.81l-.28.17a53.53,53.53,0,0,1-28.75,8.36H462c-17.54,0-25.42-14.86-25.46-29.59l0-16.77,66.84.06v-.06a40.94,40.94,0,0,1,40.6,40.9Z" transform="translate(-50.01 -39.99)" fill="#fff" fill-rule="evenodd"/>
    </g>
    <g id="Составная_фигура-18" data-name="Составная фигура">
      <rect x="427.99" y="175" width="3" height="167.01" fill="#fff"/>
    </g>
    <g id="new_vector_shape_done-3" data-name="new_vector_shape_done">
      <path d="M535.86,190.89c-.31-.47-.63-.94-.94-1.42h-9.46c-.62.43-2.3,5.14-2.84,6.15-2.7,5.1-5.16,10.33-8,15.62-7.1,13-14.65,26.7-21.76,39.74-3.32,6.08-6.3,12.18-9.46,18-1.27,2.34-1.65,4.76-3.31,6.63v.94c5.24-1.76,9.9-6.86,14.19-9.93,5.45-3.91,11.05-7,16.55-10.88,4.05-2.84,7.93-6.45,12.3-9-.05-3.73-.94-15.75.48-18,2.25-1.72,8.22-3,11.35-3.31q.71-12.3,1.42-24.6C536.35,197.19,537.23,192.71,535.86,190.89Z" transform="translate(-50.01 -39.99)" fill="#121214" fill-rule="evenodd"/>
    </g>
    <g id="Составная_фигура-19" data-name="Составная фигура">
      <path d="M536.15,189.9a4,4,0,0,0-3-1.35l-8.31,0-47.13,92.71L524,247.55V229.69l11.61-3.36,1.66-33.22A4.37,4.37,0,0,0,536.15,189.9Zm-2.83,34.51-11.7,3.38v18.46l-37.16,27L526.27,191h6.85a1.75,1.75,0,0,1,1.29.58,1.87,1.87,0,0,1,.48,1.36Z" transform="translate(-50.01 -39.99)" fill="#fff" fill-rule="evenodd"/>
    </g>
    <g id="Составная_фигура-20" data-name="Составная фигура">
      <polygon points="422.64 150.94 414.34 178.57 419.13 185.93 415.68 201.87 429.37 236.12 429.37 147.24 422.64 150.94" fill="#121214" fill-rule="evenodd"/>
    </g>
    <g id="Составная_фигура-21" data-name="Составная фигура">
      <path d="M471.6,190.08,463,218.75l4.82,7.41L464.38,242l16.25,40.64V185.11Zm6.53,79.52L467,241.74l3.48-16.07-4.76-7.31,8-26.58,4.43-2.44Z" transform="translate(-50.01 -39.99)" fill="#fff" fill-rule="evenodd"/>
    </g>
    <g id="Составная_фигура-22" data-name="Составная фигура">
      <path d="M524.76,180l-33.47,19.39.09,28,36.35-37V183A3,3,0,0,0,524.76,180Z" transform="translate(-50.01 -39.99)" fill="#121214" fill-rule="evenodd"/>
    </g>
    <g id="Составная_фигура-23" data-name="Составная фигура">
      <path d="M524.78,179h-.34L490,198.65l.1,31.35L529,191v-7.85A4.21,4.21,0,0,0,524.78,179Zm1.72,11-33.9,34-.08-23.92,32.55-18.57a1.69,1.69,0,0,1,1.43,1.67Z" transform="translate(-50.01 -39.99)" fill="#fff" fill-rule="evenodd"/>
    </g>
    <g id="new_vector_shape_done-4" data-name="new_vector_shape_done">
      <path d="M572.52,275.34V235.25c-7.7.16-16.6,2.41-23.62,4.11-3.52.85-7.62-.21-10.27,1.54l-1,1c1.86,9.72.51,22.73.51,33.41,0,36.3,1.18,56.7-27.72,64.77l-20,.52H426.19c-8,2.75-16.05,9.38-15.91,20.56,1.49,1.38,1.45,3.86,2.56,5.65a20.49,20.49,0,0,0,8.73,7.2c4.08,1.57,10.41,1,15.92,1h31.83c14.32,0,34.41,2.08,46.72-1,30.07-7.6,47.92-25.37,55.45-55.52C574.51,306.44,572.52,289.17,572.52,275.34Z" transform="translate(-50.01 -39.99)" fill="#121214" fill-rule="evenodd"/>
    </g>
    <g id="Составная_фигура-24" data-name="Составная фигура">
      <path d="M572.26,233.88a1.36,1.36,0,0,0-1.36,1.36V306.3a67.14,67.14,0,0,1-67,67.11H427.63a15.81,15.81,0,0,1-15.78-15.8c0-8.42,13.6-15.16,15.95-15.81h76.07a35.52,35.52,0,0,0,35.46-35.5V240.85a1.36,1.36,0,0,0-2.72,0V306.3a32.79,32.79,0,0,1-32.74,32.78H427.49l-.14,0a34.24,34.24,0,0,0-10,5.47c-5.38,4.1-8.23,8.6-8.23,13a18.53,18.53,0,0,0,18.5,18.52h76.24a69.87,69.87,0,0,0,69.75-69.83V235.24A1.36,1.36,0,0,0,572.26,233.88Z" transform="translate(-50.01 -39.99)" fill="#fff" fill-rule="evenodd"/>
    </g>
    <g id="new_vector_shape_done-5" data-name="new_vector_shape_done">
      <path d="M480.52,181.9c-6.47.67-5.21,4.93-6.62,10.88-.47,2-1.77,5.84-.95,9,.87,3.31,2.73,7.16,3.79,10.41.88,2.71.83,5.95,2.36,8l.48.48C481.78,209.36,480.6,194.67,480.52,181.9Z" transform="translate(-50.01 -39.99)" fill="#121214" fill-rule="evenodd"/>
    </g>
    <g id="Составная_фигура-25" data-name="Составная фигура">
      <path d="M480.65,180.86a7.66,7.66,0,0,0-7.56,6.61l-1.72,12.58,9.34,29.62,1.19-29.29V180.86Zm-1.86,34.41-4.86-15.44,1.64-12a5.14,5.14,0,0,1,3.83-4.29v16.81Z" transform="translate(-50.01 -39.99)" fill="#fff" fill-rule="evenodd"/>
    </g>
    <g id="Составная_фигура-26" data-name="Составная фигура">
      <rect x="428.44" y="159.41" width="12.93" height="15.58" rx="2.55" ry="2.55" fill="#00ffc4"/>
    </g>
    <g id="Составная_фигура-27" data-name="Составная фигура">
      <path d="M489.32,198H481.7a3.85,3.85,0,0,0-3.69,4v11a3.85,3.85,0,0,0,3.69,4h7.62a3.86,3.86,0,0,0,3.69-4V202A3.86,3.86,0,0,0,489.32,198Zm1.26,15a1.32,1.32,0,0,1-1.26,1.37H481.7a1.31,1.31,0,0,1-1.26-1.37V202a1.31,1.31,0,0,1,1.26-1.36h7.62a1.32,1.32,0,0,1,1.26,1.36Z" transform="translate(-50.01 -39.99)" fill="#121214" fill-rule="evenodd"/>
    </g>
    <g id="Составная_фигура-28" data-name="Составная фигура">
      <polygon points="440.45 175.08 429 175.01 429 236.02 442 212.62 440.45 175.08" fill="#00ffc4" fill-rule="evenodd"/>
    </g>
    <g id="Составная_фигура-29" data-name="Составная фигура">
      <path d="M493.23,214.08,478,214v69l17-28.72Zm-12.49,59V216.57l9.86.06,1.62,37Z" transform="translate(-50.01 -39.99)" fill="#121214" fill-rule="evenodd"/>
    </g>
    <g id="Составная_фигура-30" data-name="Составная фигура">
      <path d="M460.63,152.54v1.26a11.23,11.23,0,1,0,22.46,0v-1.26Zm11.23,10a8.75,8.75,0,0,1-8.64-7.48H480.5A8.75,8.75,0,0,1,471.86,162.53Z" transform="translate(-50.01 -39.99)" fill="#fff" fill-rule="evenodd"/>
    </g>
  </g>
  <g id="Table">
    <g id="Составная_фигура-31" data-name="Составная фигура">
      <path d="M687.41,382H75.6C63.12,382,53,393.63,53,408H710C710,393.63,699.89,382,687.41,382Z" transform="translate(-50.01 -39.99)" fill="#121214" fill-rule="evenodd"/>
    </g>
    <g id="Составная_фигура-32" data-name="Составная фигура">
      <path d="M686.3,380H73.71C60.64,380,50,392.43,50,407.72V409H710v-1.27C710,392.43,699.37,380,686.3,380ZM52.21,406.45c.57-13.3,10-23.91,21.5-23.91H686.3c11.51,0,20.94,10.61,21.5,23.91Z" transform="translate(-50.01 -39.99)" fill="#fff" fill-rule="evenodd"/>
    </g>
  </g>
  <g id="Laptop">
    <g id="Составная_фигура-33" data-name="Составная фигура">
      <path d="M466.05,369.45H381V380h95.63A10.55,10.55,0,0,0,466.05,369.45Z" transform="translate(-50.01 -39.99)" fill="#121214" fill-rule="evenodd"/>
    </g>
    <g id="Составная_фигура-34" data-name="Составная фигура">
      <path d="M466.05,368.09H379.6v13.28H478V380A11.93,11.93,0,0,0,466.05,368.09Zm-83.73,10.56v-7.84h83.73a9.2,9.2,0,0,1,9.08,7.84Z" transform="translate(-50.01 -39.99)" fill="#fff" fill-rule="evenodd"/>
    </g>
    <g id="Составная_фигура-35" data-name="Составная фигура">
      <path d="M365.65,252.81a16.6,16.6,0,0,0-16.29-13.46H175.63a16.61,16.61,0,0,0-16.29,19.77l23.18,120H390.05Z" transform="translate(-50.01 -39.99)" fill="#121214" fill-rule="evenodd"/>
    </g>
    <g id="Составная_фигура-36" data-name="Составная фигура">
      <path d="M367,252.55A18,18,0,0,0,349.36,238H175.63A18,18,0,0,0,158,259.38L181.4,380.47H391.69Zm-206.32,6.31a15.26,15.26,0,0,1,15-18.15H349.36a15.26,15.26,0,0,1,15,12.36L388.4,377.75H183.64Z" transform="translate(-50.01 -39.99)" fill="#fff" fill-rule="evenodd"/>
    </g>
    <g id="Составная_фигура-37" data-name="Составная фигура">
      <path d="M388,367.9a5.61,5.61,0,1,0,5.6,5.61A5.6,5.6,0,0,0,388,367.9Z" transform="translate(-50.01 -39.99)" fill="#121214" fill-rule="evenodd"/>
    </g>
    <g id="Составная_фигура-38" data-name="Составная фигура">
      <path d="M358,252.81a16.6,16.6,0,0,0-16.29-13.46H168a16.61,16.61,0,0,0-16.29,19.77l23.18,120H382.37Z" transform="translate(-50.01 -39.99)" fill="#121214" fill-rule="evenodd"/>
    </g>
    <g id="Составная_фигура-39" data-name="Составная фигура">
      <path d="M262.44,297a16.26,16.26,0,1,0,16.24,16.25A16.25,16.25,0,0,0,262.44,297Z" transform="translate(-50.01 -39.99)" fill="#00ffc4" fill-rule="evenodd"/>
    </g>
    <g id="Составная_фигура-40" data-name="Составная фигура">
      <path d="M359.31,252.55A18,18,0,0,0,341.68,238H168a18,18,0,0,0-17.62,21.39l23.38,121.09H384ZM153,258.86a15.26,15.26,0,0,1,15-18.15H341.68a15.26,15.26,0,0,1,15,12.36l24.08,124.68H176Z" transform="translate(-50.01 -39.99)" fill="#fff" fill-rule="evenodd"/>
    </g>
    <g id="Составная_фигура-41" data-name="Составная фигура">
      <path d="M388,366.54a7,7,0,1,0,6.95,7A7,7,0,0,0,388,366.54Zm0,11.22a4.25,4.25,0,1,1,4.24-4.25A4.26,4.26,0,0,1,388,377.76Z" transform="translate(-50.01 -39.99)" fill="#fff" fill-rule="evenodd"/>
    </g>
  </g>
  <g id="Cup">
    <g id="Составная_фигура-42" data-name="Составная фигура">
      <path d="M508.33,317.08H465.84a3.73,3.73,0,0,0-3.72,3.73v5.1a3.73,3.73,0,0,0,3.72,3.73h42.49a3.73,3.73,0,0,0,3.72-3.73v-5.1A3.73,3.73,0,0,0,508.33,317.08Zm1,8.83a1,1,0,0,1-1,1H465.84a1,1,0,0,1-1-1v-5.1a1,1,0,0,1,1-1h42.49a1,1,0,0,1,1,1Z" transform="translate(-50.01 -39.99)" fill="#fff" fill-rule="evenodd"/>
    </g>
    <g id="Составная_фигура-43" data-name="Составная фигура">
      <path d="M466.91,328.28l3.82,49.85a3,3,0,0,0,3,2.79h26.58a3,3,0,0,0,3-2.78l3.95-49.86Z" transform="translate(-50.01 -39.99)" fill="#121214" fill-rule="evenodd"/>
    </g>
    <g id="Составная_фигура-44" data-name="Составная фигура">
      <path d="M500.6,310.52,475,307.42a5.78,5.78,0,0,0-6.46,5.74v6.64h37.19v-3.54A5.77,5.77,0,0,0,500.6,310.52Zm2.37,6.56H471.2v-3.92a3.06,3.06,0,0,1,3.43-3l25.65,3.1a3.06,3.06,0,0,1,2.69,3Z" transform="translate(-50.01 -39.99)" fill="#fff" fill-rule="evenodd"/>
    </g>
    <g id="Составная_фигура-45" data-name="Составная фигура">
      <path d="M465.45,326.92l3.92,51.32a4.4,4.4,0,0,0,4.36,4h26.58a4.41,4.41,0,0,0,4.36-4l4.06-51.33ZM502,378a1.67,1.67,0,0,1-1.65,1.53H473.73a1.66,1.66,0,0,1-1.65-1.53l-3.7-48.39h37.41Z" transform="translate(-50.01 -39.99)" fill="#fff" fill-rule="evenodd"/>
    </g>
  </g>
  <g id="Clock">
    <g id="Составная_фигура-46" data-name="Составная фигура">
      <path d="M276,82a45,45,0,1,0,45,45A45.06,45.06,0,0,0,276,82Zm0,88.66A43.66,43.66,0,1,1,319.67,127,43.71,43.71,0,0,1,276,170.66Zm0-82.44A38.78,38.78,0,1,0,314.79,127,38.83,38.83,0,0,0,276,88.22Zm0,76.22A37.44,37.44,0,1,1,313.45,127,37.48,37.48,0,0,1,276,164.44Z" transform="translate(-50.01 -39.99)" fill="#fff" fill-rule="evenodd"/>
    </g>
    <g id="Составная_фигура-47" data-name="Составная фигура">
      <path d="M289.8,95.21a1.28,1.28,0,1,0,.38.91A1.3,1.3,0,0,0,289.8,95.21Z" transform="translate(-50.01 -39.99)" fill="#fff" fill-rule="evenodd"/>
    </g>
    <g id="Составная_фигура-48" data-name="Составная фигура">
      <path d="M308,113.06a1.3,1.3,0,0,0-1.82,0,1.32,1.32,0,0,0-.38.92,1.29,1.29,0,0,0,2.2.91,1.25,1.25,0,0,0,.38-.91A1.28,1.28,0,0,0,308,113.06Z" transform="translate(-50.01 -39.99)" fill="#fff" fill-rule="evenodd"/>
    </g>
    <g id="Составная_фигура-49" data-name="Составная фигура">
      <path d="M308.23,138.55a1.29,1.29,0,0,0-1.83,0,1.29,1.29,0,0,0-.37.91,1.33,1.33,0,0,0,.37.92,1.37,1.37,0,0,0,.92.37,1.28,1.28,0,0,0,1.29-1.29A1.3,1.3,0,0,0,308.23,138.55Z" transform="translate(-50.01 -39.99)" fill="#fff" fill-rule="evenodd"/>
    </g>
    <g id="Составная_фигура-50" data-name="Составная фигура">
      <path d="M290.37,156.74a1.29,1.29,0,0,0-1.83,0,1.28,1.28,0,0,0,0,1.82,1.29,1.29,0,0,0,1.83,0,1.28,1.28,0,0,0,0-1.82Z" transform="translate(-50.01 -39.99)" fill="#fff" fill-rule="evenodd"/>
    </g>
    <g id="Составная_фигура-51" data-name="Составная фигура">
      <path d="M264.87,157a1.27,1.27,0,0,0-.9-.38,1.3,1.3,0,0,0-1.3,1.29,1.28,1.28,0,0,0,.38.91,1.26,1.26,0,0,0,.92.38,1.23,1.23,0,0,0,.9-.38,1.25,1.25,0,0,0,.39-.91A1.26,1.26,0,0,0,264.87,157Z" transform="translate(-50.01 -39.99)" fill="#fff" fill-rule="evenodd"/>
    </g>
    <g id="Составная_фигура-52" data-name="Составная фигура">
      <path d="M246.68,139.11a1.27,1.27,0,0,0-.91-.37,1.29,1.29,0,0,0-.91.37,1.32,1.32,0,0,0-.38.92,1.3,1.3,0,0,0,1.29,1.29,1.28,1.28,0,0,0,.91-.38,1.25,1.25,0,0,0,.38-.91A1.28,1.28,0,0,0,246.68,139.11Z" transform="translate(-50.01 -39.99)" fill="#fff" fill-rule="evenodd"/>
    </g>
    <g id="Составная_фигура-53" data-name="Составная фигура">
      <path d="M246.45,113.63a1.28,1.28,0,1,0,.38.91A1.3,1.3,0,0,0,246.45,113.63Z" transform="translate(-50.01 -39.99)" fill="#fff" fill-rule="evenodd"/>
    </g>
    <g id="Составная_фигура-54" data-name="Составная фигура">
      <path d="M264.31,95.44a1.28,1.28,0,0,0-1.82,0,1.31,1.31,0,0,0-.38.91,1.29,1.29,0,1,0,2.58,0A1.31,1.31,0,0,0,264.31,95.44Z" transform="translate(-50.01 -39.99)" fill="#fff" fill-rule="evenodd"/>
    </g>
    <g id="Составная_фигура-55" data-name="Составная фигура">
      <path d="M277.34,92.79a1.28,1.28,0,0,0-1.82,0,1.28,1.28,0,0,0,0,1.82,1.29,1.29,0,1,0,1.82-1.82Z" transform="translate(-50.01 -39.99)" fill="#fff" fill-rule="evenodd"/>
    </g>
    <g id="Составная_фигура-56" data-name="Составная фигура">
      <path d="M300.89,102.54a1.3,1.3,0,0,0-1.82,0,1.3,1.3,0,0,0-.38.92,1.29,1.29,0,0,0,2.58,0A1.3,1.3,0,0,0,300.89,102.54Z" transform="translate(-50.01 -39.99)" fill="#fff" fill-rule="evenodd"/>
    </g>
    <g id="Составная_фигура-57" data-name="Составная фигура">
      <path d="M310.65,126.09a1.29,1.29,0,0,0-1.83,0,1.28,1.28,0,0,0,0,1.82,1.29,1.29,0,0,0,1.83,0,1.28,1.28,0,0,0,0-1.82Z" transform="translate(-50.01 -39.99)" fill="#fff" fill-rule="evenodd"/>
    </g>
    <g id="Составная_фигура-58" data-name="Составная фигура">
      <path d="M300.89,149.64a1.28,1.28,0,1,0,.38.91A1.3,1.3,0,0,0,300.89,149.64Z" transform="translate(-50.01 -39.99)" fill="#fff" fill-rule="evenodd"/>
    </g>
    <g id="Составная_фигура-59" data-name="Составная фигура">
      <path d="M277.34,159.39a1.28,1.28,0,0,0-1.82,0,1.29,1.29,0,1,0,1.82,1.82,1.28,1.28,0,0,0,0-1.82Z" transform="translate(-50.01 -39.99)" fill="#fff" fill-rule="evenodd"/>
    </g>
    <g id="Составная_фигура-60" data-name="Составная фигура">
      <path d="M253.79,149.64a1.29,1.29,0,0,0-1.83,0,1.28,1.28,0,0,0,0,1.82,1.29,1.29,0,0,0,1.83,0,1.28,1.28,0,0,0,0-1.82Z" transform="translate(-50.01 -39.99)" fill="#fff" fill-rule="evenodd"/>
    </g>
    <g id="Составная_фигура-61" data-name="Составная фигура">
      <path d="M244,126.09a1.28,1.28,0,1,0,.38.91A1.3,1.3,0,0,0,244,126.09Z" transform="translate(-50.01 -39.99)" fill="#fff" fill-rule="evenodd"/>
    </g>
    <g id="Составная_фигура-62" data-name="Составная фигура">
      <path d="M253.79,102.54a1.29,1.29,0,0,0-.91-.37,1.28,1.28,0,0,0-1.3,1.29,1.27,1.27,0,0,0,.38.9,1.29,1.29,0,0,0,.92.39,1.32,1.32,0,0,0,1.29-1.29A1.32,1.32,0,0,0,253.79,102.54Z" transform="translate(-50.01 -39.99)" fill="#fff" fill-rule="evenodd"/>
    </g>
    <g id="Составная_фигура-63" data-name="Составная фигура">
      <path d="M276.34,126.61a1,1,0,0,0-1.29.61l-4.74,13.19a1,1,0,1,0,1.9.68L277,127.9A1,1,0,0,0,276.34,126.61Z" transform="translate(-50.01 -39.99)" fill="#00ffc4" fill-rule="evenodd"/>
    </g>
    <g id="Составная_фигура-64" data-name="Составная фигура">
      <path d="M276.39,126.63,252,116.27a1,1,0,1,0-.79,1.85l24.42,10.37a1.09,1.09,0,0,0,.39.08,1,1,0,0,0,.39-1.94Z" transform="translate(-50.01 -39.99)" fill="#00ffc4" fill-rule="evenodd"/>
    </g>
    <g id="Составная_фигура-65" data-name="Составная фигура">
      <path d="M276,123.68a3.88,3.88,0,1,0,3.89,3.88A3.88,3.88,0,0,0,276,123.68Z" transform="translate(-50.01 -39.99)" fill="#00ffc4" fill-rule="evenodd"/>
    </g>
  </g>
</svg>
