<svg id="Logo" xmlns="http://www.w3.org/2000/svg" viewBox="0 0 105.6 111.83">
  <title>04_logo_dark_centered</title>
  <g id="Puzzle_job" data-name="Puzzle job">
    <path d="M77.15,151.69a8.28,8.28,0,0,0-2.64-1.77,8.33,8.33,0,0,0-6.45,0,8.26,8.26,0,0,0-4.41,4.39,8,8,0,0,0-.65,3.21v11.22h4.14v-4.05a7.79,7.79,0,0,0,2.84,1,8.94,8.94,0,0,0,2.83,0,8.31,8.31,0,0,0,4.76-2.73A8.45,8.45,0,0,0,79,160.49a8.4,8.4,0,0,0-.1-6.18A8.3,8.3,0,0,0,77.15,151.69Zm-2.06,7.45a4.25,4.25,0,0,1-.88,1.31,4.18,4.18,0,0,1-1.32.88,4,4,0,0,1-1.61.33,4,4,0,0,1-1.62-.33,4.2,4.2,0,0,1-1.3-.88,4.28,4.28,0,0,1-.89-1.31,4,4,0,0,1-.33-1.62,3.9,3.9,0,0,1,.33-1.59,4.45,4.45,0,0,1,.89-1.32,3.88,3.88,0,0,1,1.3-.88,4.14,4.14,0,0,1,1.62-.32,4.2,4.2,0,0,1,1.61.32,3.87,3.87,0,0,1,1.32.88,4.42,4.42,0,0,1,.88,1.32,3.9,3.9,0,0,1,.33,1.59A4,4,0,0,1,75.09,159.14Zm19.62,6.05a8.24,8.24,0,0,0,4.4-4.41,8.17,8.17,0,0,0,.64-3.23v-8.28H95.64v8.28a4,4,0,0,1-.33,1.62,4.25,4.25,0,0,1-.88,1.31,4.18,4.18,0,0,1-1.32.88,4,4,0,0,1-1.61.33,4,4,0,0,1-1.62-.33,4.42,4.42,0,0,1-1.32-.88,3.93,3.93,0,0,1-.88-1.31,4.14,4.14,0,0,1-.32-1.62v-8.28H83.22v8.28a8.17,8.17,0,0,0,.65,3.23,8.21,8.21,0,0,0,4.41,4.41,8.12,8.12,0,0,0,3.22.64A8,8,0,0,0,94.71,165.19Zm25.08.64v-4.14h-8.4l8.4-12.42H103.56v4.14H112l-8.43,12.42Zm20.07,0v-4.14h-8.4l8.4-12.42H123.63v4.14h8.43l-8.43,12.42Zm4,0h4.14v-20.7h-4.14Zm23.6-12.58a8,8,0,0,0-2.78-2.78,8.54,8.54,0,0,0-3.69-1.15,8.72,8.72,0,0,0-3.84.52,7.88,7.88,0,0,0-5,6.33,7.87,7.87,0,0,0,2.63,7.62,8.58,8.58,0,0,0,3.43,1.77,8.74,8.74,0,0,0,3.87.14,7.82,7.82,0,0,0,6-5.39h-4.71a4,4,0,0,1-1.8,1.19,4.17,4.17,0,0,1-5.16-2.51h12q.06-.36.09-.72t0-.72A8.06,8.06,0,0,0,167.51,153.25Zm-10.31,1.6a4.27,4.27,0,0,1,1.46-1.09,3.9,3.9,0,0,1,3.36,0,4.24,4.24,0,0,1,1.45,1.09Zm-61.12,27.7a4,4,0,0,1-.33,1.62,4.28,4.28,0,0,1-.89,1.31,4.18,4.18,0,0,1-1.32.88,4,4,0,0,1-1.6.33H90.56v4.14h1.38a8,8,0,0,0,3.21-.64,8.3,8.3,0,0,0,2.62-1.77,8.5,8.5,0,0,0,1.79-2.64,8,8,0,0,0,.66-3.23v-8.28H96.08Zm22-5.92a8.81,8.81,0,0,0-2.64-1.73,8,8,0,0,0-6.31,0,8.57,8.57,0,0,0-2.63,1.79,8.3,8.3,0,0,0-1.77,2.62,8.18,8.18,0,0,0,1.86,9.14,8.78,8.78,0,0,0,2.64,1.72,7.89,7.89,0,0,0,3.11.63,8,8,0,0,0,3.21-.64,8.26,8.26,0,0,0,4.39-4.41,8.17,8.17,0,0,0,.65-3.23,8.09,8.09,0,0,0-2.51-5.92Zm-2,7.54a3.93,3.93,0,0,1-.88,1.31,4.42,4.42,0,0,1-1.32.88,3.9,3.9,0,0,1-1.59.33,4,4,0,0,1-1.62-.33,4.1,4.1,0,0,1-2.19-2.19,4.09,4.09,0,0,1,0-3.22,4.18,4.18,0,0,1,.88-1.32,4.28,4.28,0,0,1,1.31-.89,4,4,0,0,1,1.62-.33,3.9,3.9,0,0,1,1.59.33,4.45,4.45,0,0,1,1.32.89,3.87,3.87,0,0,1,.88,1.32,4.21,4.21,0,0,1,0,3.22Zm22.86-7a8.25,8.25,0,0,0-10.39-1.79v-5.22h-4.14v12.39a8.17,8.17,0,0,0,.64,3.23,8.21,8.21,0,0,0,4.41,4.41,8.17,8.17,0,0,0,3.23.64,8,8,0,0,0,3.21-.64,8.26,8.26,0,0,0,4.39-4.41,8.17,8.17,0,0,0,.65-3.23,7.93,7.93,0,0,0-.54-3A8.5,8.5,0,0,0,139,177.17Zm-2.46,7a3.93,3.93,0,0,1-.88,1.31,4.42,4.42,0,0,1-1.32.88,3.9,3.9,0,0,1-1.59.33,4,4,0,0,1-1.62-.33,4.1,4.1,0,0,1-2.19-2.19,4.09,4.09,0,0,1,0-3.22,4.18,4.18,0,0,1,.88-1.32,4.28,4.28,0,0,1,1.31-.89,4,4,0,0,1,1.62-.33,3.9,3.9,0,0,1,1.59.33,4.45,4.45,0,0,1,1.32.89,3.87,3.87,0,0,1,.88,1.32,4.21,4.21,0,0,1,0,3.22Z" transform="translate(-63 -79)" fill="#121214" fill-rule="evenodd"/>
  </g>
  <g id="Составная_фигура" data-name="Составная фигура">
    <path d="M91,104v20.73A4.35,4.35,0,0,0,95.43,129H116V104Z" transform="translate(-63 -79)" fill="#fd4e26" fill-rule="evenodd"/>
  </g>
  <g id="Составная_фигура-2" data-name="Составная фигура">
    <path d="M116,104v25h21c2.36,0,4-2.22,4-4.62V104Z" transform="translate(-63 -79)" fill="#08469c" fill-rule="evenodd"/>
  </g>
  <g id="Составная_фигура-3" data-name="Составная фигура">
    <path d="M136.57,79H116v25h25V83.51A4.47,4.47,0,0,0,136.57,79Z" transform="translate(-63 -79)" fill="#159ce4" fill-rule="evenodd"/>
  </g>
  <g id="Составная_фигура-4" data-name="Составная фигура">
    <path d="M95.27,79A4.33,4.33,0,0,0,91,83.39V104h25V79Z" transform="translate(-63 -79)" fill="#f9bc35" fill-rule="evenodd"/>
  </g>
  <g id="Ellipse_1" data-name="Ellipse 1">
    <circle cx="52.5" cy="37.5" r="6.5" fill="#08469c"/>
  </g>
  <g id="Ellipse_1_copy" data-name="Ellipse 1 copy">
    <circle cx="40.5" cy="25.5" r="6.5" fill="#fd4e26"/>
  </g>
  <g id="Ellipse_1_copy_2" data-name="Ellipse 1 copy 2">
    <circle cx="53.5" cy="12.5" r="6.5" fill="#f9bc35"/>
  </g>
  <g id="Ellipse_1_copy_3" data-name="Ellipse 1 copy 3">
    <circle cx="65.5" cy="25.5" r="6.5" fill="#159ce4"/>
  </g>
</svg>
