<svg id="Man" xmlns="http://www.w3.org/2000/svg" viewBox="0 0 140 220">
  <title>09_freelancer_dark_tab</title>
  <g id="Body">
    <g id="body-2" data-name="body">
      <path d="M72.5,284.5V254A38.54,38.54,0,0,1,111,215.5h54A38.54,38.54,0,0,1,203.5,254v30.5Z" transform="translate(-65 -66)" fill="#121214" fill-rule="evenodd"/>
      <path d="M165,217a37,37,0,0,1,37,37v29H74V254a37,37,0,0,1,37-37h54m0-3H111a40,40,0,0,0-40,40v32H205V254a40,40,0,0,0-40-40Z" transform="translate(-65 -66)" fill="#fff"/>
    </g>
    <g id="Rectangle_2" data-name="Rectangle 2">
      <rect x="9" y="217" width="128" height="3" fill="#121214"/>
    </g>
  </g>
  <g id="Face">
    <g id="neck">
      <path d="M123,234.5A13.52,13.52,0,0,1,109.5,221V190.5h47V212A22.52,22.52,0,0,1,134,234.5Z" transform="translate(-65 -66)" fill="#121214" fill-rule="evenodd"/>
      <path d="M155,192v20a21,21,0,0,1-21,21H123a12,12,0,0,1-12-12V192h44m3-3H108v32a15,15,0,0,0,15,15h11a24,24,0,0,0,24-24V189Z" transform="translate(-65 -66)" fill="#fff"/>
    </g>
    <g id="head">
      <path d="M120,208.5A41.55,41.55,0,0,1,78.5,167V117A49.56,49.56,0,0,1,128,67.5h1A49.56,49.56,0,0,1,178.5,117v41A50.55,50.55,0,0,1,128,208.5Z" transform="translate(-65 -66)" fill="#121214" fill-rule="evenodd"/>
      <path d="M129,69a48.05,48.05,0,0,1,48,48v41a49.05,49.05,0,0,1-49,49h-8a40,40,0,0,1-40-40V117a48.05,48.05,0,0,1,48-48h1m0-3h-1a51,51,0,0,0-51,51v50a43,43,0,0,0,43,43h8a52,52,0,0,0,52-52V117a51,51,0,0,0-51-51Z" transform="translate(-65 -66)" fill="#fff"/>
    </g>
    <g id="hair">
      <path d="M177.82,150.5c-5.38,0-10.25-.28-15.43-3.75a18,18,0,0,1-7.49-12c-.32-1.87-.56-3.9-.79-5.87-.84-7.05-1.62-13.71-6.05-16.18-3.64-2-7-2.19-11.33-2.19H91.43c-12,0-24.93-8.64-24.93-21.5V67.5h78.79c23.28,0,42.21,18.62,42.21,41.5v41.5Z" transform="translate(-65 -66)" fill="#121214" fill-rule="evenodd"/>
      <path d="M145.3,69c22.44,0,40.7,17.94,40.7,40v40h-8.18c-5.13,0-9.76-.26-14.59-3.49a16.8,16.8,0,0,1-6.85-11c-.31-1.83-.55-3.85-.78-5.8-.84-7.11-1.72-14.46-6.81-17.31-3.95-2.21-7.64-2.38-12-2.38H91.43a25.94,25.94,0,0,1-16.35-5.84A18.36,18.36,0,0,1,68,89V69h77.3m0-3H65V89c0,13.26,13,23,26.43,23h45.31c4,0,7.2.11,10.59,2,4.92,2.75,4.7,12.91,6.1,21a19.6,19.6,0,0,0,8.13,13c5.5,3.68,10.77,4,16.26,4H189V109c0-23.75-19.57-43-43.7-43Z" transform="translate(-65 -66)" fill="#fff"/>
    </g>
    <g id="mouth">
      <path d="M97,180v1.41c0,6.95,5.38,12.61,12,12.61s12-5.66,12-12.61V180Zm12,11.21a9.11,9.11,0,0,1-9-8.2h18A9.1,9.1,0,0,1,109,191.2Z" transform="translate(-65 -66)" fill="#fff" fill-rule="evenodd"/>
    </g>
  </g>
  <g id="Ear">
    <g id="shape_1" data-name="shape #1">
      <circle cx="114" cy="85" r="13" fill="#121214"/>
    </g>
    <g id="shape_2" data-name="shape #2">
      <path d="M179,138a14,14,0,0,0-14,14,1.34,1.34,0,0,0,1.35,1.35c.75,0,1.65-.6,1.65-1.35a11,11,0,1,1,11,11,11.06,11.06,0,0,1-5.59-1.21,1.36,1.36,0,0,0-1.35,2.36A14,14,0,1,0,179,138Z" transform="translate(-65 -66)" fill="#fff" fill-rule="evenodd"/>
    </g>
    <g id="shape_3" data-name="shape #3">
      <path d="M178.85,145.22a1.35,1.35,0,1,0,0,2.69,3.75,3.75,0,0,1,3.75,3.75,1.35,1.35,0,0,0,2.69,0A6.45,6.45,0,0,0,178.85,145.22Z" transform="translate(-65 -66)" fill="#fff" fill-rule="evenodd"/>
    </g>
  </g>
  <g id="Glasses">
    <g id="Составная_фигура" data-name="Составная фигура">
      <path d="M84,134a16,16,0,1,0,16,16A16,16,0,0,0,84,134Zm0,29.31A13.32,13.32,0,1,1,97.33,150,13.34,13.34,0,0,1,84,163.31Z" transform="translate(-65 -66)" fill="#00ffc4" fill-rule="evenodd"/>
    </g>
    <g id="Составная_фигура-2" data-name="Составная фигура">
      <path d="M124,134a16,16,0,1,0,16,16A16,16,0,0,0,124,134Zm0,29.31A13.32,13.32,0,1,1,137.34,150,13.34,13.34,0,0,1,124,163.31Z" transform="translate(-65 -66)" fill="#00ffc4" fill-rule="evenodd"/>
    </g>
    <g id="Составная_фигура-3" data-name="Составная фигура">
      <path d="M110.78,141H97.23a1.53,1.53,0,0,0,0,3h13.55a1.53,1.53,0,0,0,0-3Z" transform="translate(-65 -66)" fill="#00ffc4" fill-rule="evenodd"/>
    </g>
    <g id="Составная_фигура-4" data-name="Составная фигура">
      <path d="M165,148H140.31a1.46,1.46,0,0,0,0,2.9l24.36.12H165c.73,0,1-.64,1-1.43S165.73,148,165,148Z" transform="translate(-65 -66)" fill="#00ffc4" fill-rule="evenodd"/>
    </g>
  </g>
</svg>
