<svg id="Man" xmlns="http://www.w3.org/2000/svg" viewBox="0 0 140 220">
  <title>10_freelancer_white_tab</title>
  <g id="Body">
    <g id="body-2" data-name="body">
      <path d="M54.5,265.5V235A38.54,38.54,0,0,1,93,196.5h54A38.54,38.54,0,0,1,185.5,235v30.5Z" transform="translate(-47 -47)" fill="#fff" fill-rule="evenodd"/>
      <path d="M147,198a37,37,0,0,1,37,37v29H56V235a37,37,0,0,1,37-37h54m0-3H93a40,40,0,0,0-40,40v32H187V235a40,40,0,0,0-40-40Z" transform="translate(-47 -47)" fill="#121214"/>
    </g>
  </g>
  <g id="Face">
    <g id="neck">
      <path d="M105,215.5A13.52,13.52,0,0,1,91.5,202V171.5h47V193A22.52,22.52,0,0,1,116,215.5Z" transform="translate(-47 -47)" fill="#fff" fill-rule="evenodd"/>
      <path d="M137,173v20a21,21,0,0,1-21,21H105a12,12,0,0,1-12-12V173h44m3-3H90v32a15,15,0,0,0,15,15h11a24,24,0,0,0,24-24V170Z" transform="translate(-47 -47)" fill="#121214"/>
    </g>
    <g id="head">
      <path d="M102,189.5A41.55,41.55,0,0,1,60.5,148V98A49.56,49.56,0,0,1,110,48.5h1A49.56,49.56,0,0,1,160.5,98v41A50.55,50.55,0,0,1,110,189.5Z" transform="translate(-47 -47)" fill="#fff" fill-rule="evenodd"/>
      <path d="M111,50a48.05,48.05,0,0,1,48,48v41a49.05,49.05,0,0,1-49,49h-8a40,40,0,0,1-40-40V98a48.05,48.05,0,0,1,48-48h1m0-3h-1A51,51,0,0,0,59,98v50a43,43,0,0,0,43,43h8a52,52,0,0,0,52-52V98a51,51,0,0,0-51-51Z" transform="translate(-47 -47)" fill="#121214"/>
    </g>
    <g id="hair">
      <path d="M159.82,131.5c-5.38,0-10.25-.28-15.43-3.75a18,18,0,0,1-7.49-12c-.32-1.87-.56-3.9-.79-5.87-.84-7.05-1.62-13.71-6.05-16.18-3.64-2-7-2.19-11.33-2.19H73.43c-12,0-24.93-8.64-24.93-21.5V48.5h78.79c23.28,0,42.21,18.62,42.21,41.5v41.5Z" transform="translate(-47 -47)" fill="#fff" fill-rule="evenodd"/>
      <path d="M127.3,50C149.74,50,168,67.94,168,90v40h-8.18c-5.13,0-9.76-.26-14.59-3.49a16.8,16.8,0,0,1-6.85-11c-.31-1.83-.55-3.85-.78-5.8-.84-7.11-1.72-14.46-6.81-17.31-3.95-2.21-7.64-2.38-12-2.38H73.43a25.94,25.94,0,0,1-16.35-5.84A18.36,18.36,0,0,1,50,70V50h77.3m0-3H47V70c0,13.26,13,23,26.43,23h45.31c4,0,7.2.11,10.59,2,4.92,2.75,4.7,12.91,6.1,21a19.6,19.6,0,0,0,8.13,13c5.5,3.68,10.77,4,16.26,4H171V90c0-23.75-19.57-43-43.7-43Z" transform="translate(-47 -47)" fill="#121214"/>
    </g>
    <g id="mouth">
      <path d="M79,161v1.41C79,169.35,84.39,175,91,175s12-5.66,12-12.61V161ZM91,172.2a9.11,9.11,0,0,1-9-8.2h18A9.1,9.1,0,0,1,91,172.2Z" transform="translate(-47 -47)" fill="#121214" fill-rule="evenodd"/>
    </g>
  </g>
  <g id="Ear">
    <g id="shape_1" data-name="shape #1">
      <circle cx="114" cy="85" r="13" fill="#fff"/>
    </g>
    <g id="shape_2" data-name="shape #2">
      <path d="M161,119a14,14,0,0,0-14,14,1.34,1.34,0,0,0,1.35,1.35c.75,0,1.65-.6,1.65-1.35a11,11,0,1,1,11,11,11.06,11.06,0,0,1-5.59-1.21,1.36,1.36,0,0,0-1.35,2.36A14,14,0,1,0,161,119Z" transform="translate(-47 -47)" fill="#121214" fill-rule="evenodd"/>
    </g>
    <g id="shape_3" data-name="shape #3">
      <path d="M160.85,126.22a1.35,1.35,0,1,0,0,2.69,3.75,3.75,0,0,1,3.75,3.75,1.35,1.35,0,0,0,2.69,0A6.45,6.45,0,0,0,160.85,126.22Z" transform="translate(-47 -47)" fill="#121214" fill-rule="evenodd"/>
    </g>
  </g>
  <g id="Glasses">
    <g id="Составная_фигура" data-name="Составная фигура">
      <path d="M66,115a16,16,0,1,0,16,16A16,16,0,0,0,66,115Zm0,29.31A13.32,13.32,0,1,1,79.33,131,13.34,13.34,0,0,1,66,144.31Z" transform="translate(-47 -47)" fill="#00ffc4" fill-rule="evenodd"/>
    </g>
    <g id="Составная_фигура-2" data-name="Составная фигура">
      <path d="M106,115a16,16,0,1,0,16,16A16,16,0,0,0,106,115Zm0,29.31A13.32,13.32,0,1,1,119.34,131,13.34,13.34,0,0,1,106,144.31Z" transform="translate(-47 -47)" fill="#00ffc4" fill-rule="evenodd"/>
    </g>
    <g id="Составная_фигура-3" data-name="Составная фигура">
      <path d="M92.78,122H79.23a1.53,1.53,0,0,0,0,3H92.78a1.53,1.53,0,0,0,0-3Z" transform="translate(-47 -47)" fill="#00ffc4" fill-rule="evenodd"/>
    </g>
    <g id="Составная_фигура-4" data-name="Составная фигура">
      <path d="M147,129H122.31a1.46,1.46,0,0,0,0,2.9l24.36.12H147c.73,0,1-.64,1-1.43S147.73,129,147,129Z" transform="translate(-47 -47)" fill="#00ffc4" fill-rule="evenodd"/>
    </g>
  </g>
</svg>
