<svg id="Man" xmlns="http://www.w3.org/2000/svg" viewBox="0 0 139.99 220.02">
  <title>12_employer_white_tab</title>
  <g id="Составная_фигура" data-name="Составная фигура">
    <path d="M163,212.57H109.16C92.77,212.57,79,225.6,79,242v41H206V250C206,223.12,181.58,211.91,163,212.57Z" transform="translate(-67.01 -62.98)" fill="#fff" fill-rule="evenodd"/>
  </g>
  <g id="Rectangle_1" data-name="Rectangle 1">
    <rect x="12.99" y="218.02" width="125" height="2" fill="#121214"/>
  </g>
  <g id="Составная_фигура-2" data-name="Составная фигура">
    <path d="M196.74,223.58A46,46,0,0,0,164,211H109c-17.06,0-31,14.94-31,32v40h2V243c0-15.68,13.32-30,29-30h55c9.32-.33,21.65,3.35,31,12.38,6.66,6.43,10,13.73,10,23.62v34h2V249C207,238.57,203.8,230.4,196.74,223.58Z" transform="translate(-67.01 -62.98)" fill="#121214" fill-rule="evenodd"/>
  </g>
  <g id="Составная_фигура-3" data-name="Составная фигура">
    <polygon points="45.99 151.02 45.99 220.01 89 153.46 45.99 151.02" fill="#fff" fill-rule="evenodd"/>
  </g>
  <g id="Составная_фигура-4" data-name="Составная фигура">
    <path d="M114.45,195v29.85a2.61,2.61,0,0,0,2.61,2.61H139a20.7,20.7,0,0,0,20.64-19c0-.56.07-1.12.07-1.68V188.16Z" transform="translate(-67.01 -62.98)" fill="#fff" fill-rule="evenodd"/>
  </g>
  <g id="Составная_фигура-5" data-name="Составная фигура">
    <path d="M113.11,194v29.84a5,5,0,0,0,5,4.94h20.81a22.05,22.05,0,0,0,21.88-20.18c.05-.6.08-1.18.08-1.78V186.7Zm45.22,12.82c0,.53,0,1-.07,1.58a19.54,19.54,0,0,1-19.39,17.88H118.06a2.45,2.45,0,0,1-2.45-2.44V196.1l42.72-6.49Z" transform="translate(-67.01 -62.98)" fill="#121214" fill-rule="evenodd"/>
  </g>
  <g id="new_vector_shape_done">
    <path d="M170.81,135.83c-2,1.83-5.08,2.44-6.62,4.73-1.13,1.67-1.09,4.2-2.37,5.68.9,4.54,4.87,8.72,7.1,12.3C189.5,164.18,193.58,135,170.81,135.83Z" transform="translate(-67.01 -62.98)" fill="#fff" fill-rule="evenodd"/>
  </g>
  <g id="Составная_фигура-6" data-name="Составная фигура">
    <path d="M174.26,134.36A13.27,13.27,0,0,0,161,147.62a1.25,1.25,0,0,0,2.5,0,10.74,10.74,0,1,1,5.42,9.34,1.25,1.25,0,0,0-1.24,2.17,13.25,13.25,0,1,0,6.56-24.77Z" transform="translate(-67.01 -62.98)" fill="#121214" fill-rule="evenodd"/>
  </g>
  <g id="Составная_фигура-7" data-name="Составная фигура">
    <path d="M174.26,141.48a1.25,1.25,0,0,0,0,2.5,3.63,3.63,0,0,1,3.63,3.64,1.26,1.26,0,0,0,2.51,0A6.14,6.14,0,0,0,174.26,141.48Z" transform="translate(-67.01 -62.98)" fill="#121214" fill-rule="evenodd"/>
  </g>
  <g id="new_vector_shape_done-2" data-name="new_vector_shape_done">
    <path d="M169.39,98.93a28.39,28.39,0,0,0-11.82-9.47c-5.37-2-13.22-1.41-20.34-1.41h-36.9c-1.85,1.13-5,.64-7.09,1.41a27.83,27.83,0,0,0-13.72,12.31c-4.33,8.38-2.36,25.34-2.36,37.37,0,9-1.59,22.44.47,30.28,6.05,23,19.71,32.7,49.19,32.64,6,0,11.56-.85,16.08-2.83,16.28-7.15,25.63-19.38,30.27-38.33V131.57C173.17,119.47,174.3,106.08,169.39,98.93Z" transform="translate(-67.01 -62.98)" fill="#fff" fill-rule="evenodd"/>
  </g>
  <g id="Составная_фигура-8" data-name="Составная фигура">
    <path d="M174.55,120.5v-7.67A25.88,25.88,0,0,0,148.66,87H101.91A25.92,25.92,0,0,0,76,112.84V162a41.49,41.49,0,0,0,41.44,41.45h7.81a49.27,49.27,0,0,0,49.27-49.28V120.65C174.56,120.6,174.55,120.55,174.55,120.5Zm-2.5,33.61a46.77,46.77,0,0,1-46.77,46.79h-7.81a39,39,0,0,1-38.94-39V112.84a23.41,23.41,0,0,1,23.38-23.39h46.75a23.39,23.39,0,0,1,23.39,23.38v41.28Z" transform="translate(-67.01 -62.98)" fill="#121214" fill-rule="evenodd"/>
  </g>
  <g id="Составная_фигура-9" data-name="Составная фигура">
    <path d="M103.73,165.46a6,6,0,0,1-6-6V143.18a1.26,1.26,0,1,0-2.51,0v16.28a8.51,8.51,0,0,0,8.51,8.5,1.25,1.25,0,0,0,0-2.5Z" transform="translate(-67.01 -62.98)" fill="#121214" fill-rule="evenodd"/>
  </g>
  <g id="Составная_фигура-10" data-name="Составная фигура">
    <path d="M137,64.24h0c-.1,0-.2,0,.29.06L69.2,64.24l0,18c0,17,9.67,30.83,26.71,30.83h9.55a54.85,54.85,0,0,0,29.42-8.55l.28-.18a10.2,10.2,0,0,1,15.45,6.49l.48,2.24,6.4,29.56A6.14,6.14,0,0,0,169,144.13l10.14-8.51V106.39A42.15,42.15,0,0,0,137,64.24Z" transform="translate(-67.01 -62.98)" fill="#fff" fill-rule="evenodd"/>
  </g>
  <g id="Составная_фигура-11" data-name="Составная фигура">
    <path d="M137,63h-1.3v0L67,63l0,19.35c0,19.24,11.44,32.17,28.34,32.17h9.68a57.23,57.23,0,0,0,30.5-8.77l.28-.18a9.06,9.06,0,0,1,8.38-.7,8.91,8.91,0,0,1,5.37,6.41l7,31.9a7.37,7.37,0,0,0,6.37,5.78,6.59,6.59,0,0,0,1,.07,7.4,7.4,0,0,0,6.52-3.84L181,136.41V106.52C181,82.52,161.26,63,137,63Zm41.45,72.25-10,8.33-.12.23a5,5,0,0,1-9.26-1.17L152.56,113l-.48-2.25a11.41,11.41,0,0,0-6.86-8.2,11.87,11.87,0,0,0-4.53-.92,11.63,11.63,0,0,0-6.2,1.81l-.28.18A54.62,54.62,0,0,1,105.07,112H95.39c-17.77,0-25.76-14.91-25.8-29.68l0-16.82,67.74.06V65.5a41.27,41.27,0,0,1,41.15,41Z" transform="translate(-67.01 -62.98)" fill="#121214" fill-rule="evenodd"/>
  </g>
  <g id="Составная_фигура-12" data-name="Составная фигура">
    <polygon points="39.28 150.06 30.99 172.75 35.77 178.8 32.33 191.89 45.99 220.02 45.99 147.02 39.28 150.06" fill="#fff" fill-rule="evenodd"/>
  </g>
  <g id="Составная_фигура-13" data-name="Составная фигура">
    <path d="M105.8,211.81,97,233.87l4.92,5.7-3.49,12.17L115,283V208ZM112.45,273,101.1,251.57l3.55-12.37-4.85-5.63,8.14-20.45,4.51-1.87Z" transform="translate(-67.01 -62.98)" fill="#121214" fill-rule="evenodd"/>
  </g>
  <g id="Составная_фигура-14" data-name="Составная фигура">
    <path d="M158.76,203l-33.47,19.39.09,28,36.35-37V206A3,3,0,0,0,158.76,203Z" transform="translate(-67.01 -62.98)" fill="#fff" fill-rule="evenodd"/>
  </g>
  <g id="Составная_фигура-15" data-name="Составная фигура">
    <path d="M158.78,202h-.34L124,221.65l.1,31.35L163,214v-7.85A4.21,4.21,0,0,0,158.78,202Zm1.72,11-33.9,34-.08-23.92,32.55-18.58a1.71,1.71,0,0,1,1.43,1.68Z" transform="translate(-67.01 -62.98)" fill="#121214" fill-rule="evenodd"/>
  </g>
  <g id="new_vector_shape_done-3" data-name="new_vector_shape_done">
    <path d="M114.52,204.9c-6.47.67-5.21,4.93-6.62,10.88-.47,2-1.77,5.84-1,9,.87,3.31,2.73,7.16,3.79,10.41.88,2.71.83,5.95,2.36,8l.48.48C115.78,232.36,114.6,217.67,114.52,204.9Z" transform="translate(-67.01 -62.98)" fill="#fff" fill-rule="evenodd"/>
  </g>
  <g id="Составная_фигура-16" data-name="Составная фигура">
    <path d="M114.65,203.86a7.66,7.66,0,0,0-7.56,6.61l-1.72,12.58,9.34,29.62,1.19-29.29V203.86Zm-1.86,34.41-4.86-15.44,1.64-12a5.14,5.14,0,0,1,3.83-4.29v16.81Z" transform="translate(-67.01 -62.98)" fill="#121214" fill-rule="evenodd"/>
  </g>
  <g id="Составная_фигура-17" data-name="Составная фигура">
    <path d="M122.84,222.39H115c-1.4,0-2,1.2-2,2.61v10c0,1.41.59,3,2,3h7.85c1.4,0,2.16-1.57,2.16-3V225C125,223.59,124.24,222.39,122.84,222.39Z" transform="translate(-67.01 -62.98)" fill="#00ffc4" fill-rule="evenodd"/>
  </g>
  <g id="Составная_фигура-18" data-name="Составная фигура">
    <path d="M123,221h-7a4.1,4.1,0,0,0-4,4v10a4.13,4.13,0,0,0,4,4h7c2,0,4-.78,4-3V225A4.12,4.12,0,0,0,123,221Zm2,14a2.81,2.81,0,0,1-2,2h-7a2.81,2.81,0,0,1-2-2V225a2.81,2.81,0,0,1,2-2h7a2.81,2.81,0,0,1,2,2Z" transform="translate(-67.01 -62.98)" fill="#121214" fill-rule="evenodd"/>
  </g>
  <g id="Составная_фигура-19" data-name="Составная фигура">
    <polygon points="46.99 176.01 46.99 217.01 57.99 200.42 57.99 176.01 46.99 176.01" fill="#00ffc4" fill-rule="evenodd"/>
  </g>
  <g id="Составная_фигура-20" data-name="Составная фигура">
    <path d="M125,263.4v-.2l-5.49,7.52ZM112,237v44l7.51-10.28L114,278.07,114,239h11V263.2l2-2.73V237.08Z" transform="translate(-67.01 -62.98)" fill="#121214" fill-rule="evenodd"/>
  </g>
  <g id="Составная_фигура-21" data-name="Составная фигура">
    <path d="M94.63,175.54v1.26a11.23,11.23,0,0,0,22.46,0v-1.26Zm11.23,10a8.75,8.75,0,0,1-8.64-7.48H114.5A8.75,8.75,0,0,1,105.86,185.53Z" transform="translate(-67.01 -62.98)" fill="#121214" fill-rule="evenodd"/>
  </g>
  <g id="Составная_фигура-22" data-name="Составная фигура">
    <path d="M174.82,213.44a4.26,4.26,0,0,0-3.17-1.42L161,212l-50,71,51.1-15.76,0-11.91,12.14-3.54,1.74-35A4.67,4.67,0,0,0,174.82,213.44Zm-3,36.33L160,254.6v11.58L116,279l48.48-64.37h7.17a1.83,1.83,0,0,1,1.34.61,2,2,0,0,1,.51,1.43Z" transform="translate(-67.01 -62.98)" fill="#121214" fill-rule="evenodd"/>
  </g>
</svg>
